<svg xmlns="http://www.w3.org/2000/svg" version="1.1" xmlns:xlink="http://www.w3.org/1999/xlink" xmlns:svgjs="http://svgjs.com/svgjs" width="512" height="512" x="0" y="0" viewBox="0 0 512 512" style="enable-background:new 0 0 512 512" xml:space="preserve"><g><path d="M260.5 121.67c18.3 0 32-19.09 32-36.16 0-17.28-13.75-30.31-32-30.31s-32 13-32 30.31c.01 17.07 13.69 36.16 32 36.16zm0-51.47c11.15 0 17 7.7 17 15.31 0 11.4-9.34 21.16-17 21.16s-17-9.76-17-21.16c.01-7.61 5.85-15.31 17-15.31zM230.75 158.31a7.5 7.5 0 0 0-7.49 7.52l.09 30.58a7.49 7.49 0 0 0 7.5 7.48 7.5 7.5 0 0 0 7.48-7.52l-.09-30.58a7.5 7.5 0 0 0-7.49-7.48z" fill="#f4ca59" data-original="#000000" opacity="1"></path><path d="M304 165.35c.27 7.9 2.1 31.54 2.1 31.54a7.5 7.5 0 0 0 7.47 7h.51a7.5 7.5 0 0 0 7-8s-1.79-23.27-2.07-31c-.74-20.68-13.94-37.22-33.71-40.25a207.76 207.76 0 0 0-24.43-1.75h-.08a241.72 241.72 0 0 0-25.07 1.73c-19.54 2.67-33.26 19.62-33.84 40.33-.22 7.78-1.62 31.1-1.62 31.1a7.5 7.5 0 1 0 15 .78s1.43-23.6 1.63-31.48c.35-13.44 8.59-24.19 20.88-25.86a227.45 227.45 0 0 1 23-1.6h.06a191.78 191.78 0 0 1 22.17 1.53c10.46 1.58 20.5 10.42 21 25.93z" fill="#f4ca59" data-original="#000000" opacity="1"></path><path d="M290.14 158.31a7.5 7.5 0 0 0-7.5 7.48l-.08 30.58a7.5 7.5 0 0 0 7.48 7.52 7.5 7.5 0 0 0 7.5-7.48l.08-30.58a7.5 7.5 0 0 0-7.48-7.52zM321 127.24c15.68 0 27.4-16.26 27.4-30.79 0-14.85-11.78-26-27.4-26s-27.39 11.19-27.39 26c-.04 14.55 11.67 30.79 27.39 30.79zm0-41.83c8.52 0 12.4 5.72 12.4 11 0 7-5.84 15.79-12.4 15.79s-12.39-8.83-12.39-15.79c-.04-5.28 3.84-11 12.39-11zM354.93 165.6c.27 6.19 2.14 24.69 2.14 24.69a7.51 7.51 0 0 0 7.47 6.85h.66A7.5 7.5 0 0 0 372 189s-1.82-18-2.11-24c-.83-17.45-11.86-31.41-28.59-34a173.6 173.6 0 0 0-20.06-1.44 7.5 7.5 0 1 0 0 15 155.3 155.3 0 0 1 17.8 1.27c7.96 1.17 15.38 8 15.89 19.77z" fill="#f4ca59" data-original="#000000" opacity="1"></path><path d="M343.92 158.35a7.49 7.49 0 0 0-7.38 7.62l.37 23.79a7.5 7.5 0 0 0 7.5 7.38h.11a7.51 7.51 0 0 0 7.39-7.62l-.38-23.79a7.46 7.46 0 0 0-7.61-7.38zM200.65 127.24c15.68 0 27.35-16.24 27.35-30.79 0-14.85-11.78-26-27.39-26s-27.4 11.19-27.4 26c.04 14.55 11.79 30.79 27.44 30.79zm0-41.83c8.51 0 12.39 5.72 12.39 11 0 7-5.83 15.79-12.39 15.79s-12.4-8.83-12.4-15.79c0-5.28 3.88-11 12.4-11zM166.68 165.6c.51-11.77 8-18.6 15.88-19.81a155.32 155.32 0 0 1 17.81-1.27 7.5 7.5 0 0 0 0-15 173.6 173.6 0 0 0-20.08 1.48c-16.73 2.56-27.76 16.52-28.59 34-.29 6-2.11 24-2.11 24a7.5 7.5 0 0 0 6.82 8.13h.66a7.51 7.51 0 0 0 7.47-6.85s1.87-18.49 2.14-24.68z" fill="#f4ca59" data-original="#000000" opacity="1"></path><path d="M177.57 158.35a7.49 7.49 0 0 0-7.49 7.38l-.38 23.79a7.51 7.51 0 0 0 7.39 7.62h.12a7.5 7.5 0 0 0 7.49-7.38l.37-23.79a7.49 7.49 0 0 0-7.38-7.62zM378.15 127.64c14.54 0 25.41-15 25.41-28.46 0-13.79-10.93-24.18-25.41-24.18s-25.41 10.39-25.41 24.18c0 13.44 10.87 28.46 25.41 28.46zm0-37.64c5 0 10.41 2.87 10.41 9.18s-5.45 13.46-10.41 13.46-10.41-7-10.41-13.46 5.4-9.18 10.41-9.18zM408 162.45c.24 5.58 1.93 22.26 1.93 22.26a7.5 7.5 0 0 0 7.46 6.84h.67a7.5 7.5 0 0 0 6.81-8.12s-1.63-16.2-1.89-21.62c-.78-16.06-10.95-28.92-26.37-31.28a151.69 151.69 0 0 0-18.16-1.3 7.5 7.5 0 0 0 0 15 140.27 140.27 0 0 1 15.91 1.13c6.74 1.01 13.17 6.94 13.64 17.09z" fill="#f4ca59" data-original="#000000" opacity="1"></path><path d="M397.81 155.14h-.11a7.51 7.51 0 0 0-7.39 7.62l.34 21.41a7.5 7.5 0 0 0 7.49 7.38h.12a7.5 7.5 0 0 0 7.39-7.62l-.34-21.41a7.5 7.5 0 0 0-7.5-7.38zM143.46 127.64c14.54 0 25.41-15 25.41-28.46C168.87 85.39 158 75 143.46 75s-25.41 10.39-25.41 24.18c0 13.44 10.87 28.46 25.41 28.46zm0-37.64c5 0 10.41 2.87 10.41 9.18s-5.45 13.46-10.41 13.46-10.41-7-10.41-13.46 5.4-9.18 10.41-9.18zM113.64 162.45c.44-10.15 6.87-16.08 13.66-17.12a140.27 140.27 0 0 1 15.91-1.13 7.5 7.5 0 0 0 0-15 151.69 151.69 0 0 0-18.21 1.3c-15.42 2.36-25.59 15.22-26.37 31.28-.26 5.42-1.89 21.62-1.89 21.62a7.5 7.5 0 0 0 6.81 8.12h.67a7.5 7.5 0 0 0 7.46-6.84s1.72-16.68 1.96-22.23z" fill="#f4ca59" data-original="#000000" opacity="1"></path><path d="M123.79 155.14a7.5 7.5 0 0 0-7.49 7.38l-.3 21.41a7.5 7.5 0 0 0 7.39 7.62h.11a7.5 7.5 0 0 0 7.5-7.38l.34-21.41a7.51 7.51 0 0 0-7.39-7.62zM392.38 219.78a7.5 7.5 0 0 0-9.83 11.33 73.39 73.39 0 0 1-5.19 115.44l3.23-5.52a7.5 7.5 0 1 0-12.95-7.57L352.11 360a7.49 7.49 0 0 0 5.09 11.15l30.24 5.68a7.34 7.34 0 0 0 1.39.13 7.5 7.5 0 0 0 1.38-14.87l-7.1-1.33a88.4 88.4 0 0 0 9.27-141zM151.48 352.46a73.42 73.42 0 0 1-37.55-109.29l-1 6.32a7.5 7.5 0 0 0 6.26 8.56 7.65 7.65 0 0 0 1.16.09 7.49 7.49 0 0 0 7.4-6.36l4.7-30.4a7.49 7.49 0 0 0-8.83-8.51l-30.21 5.81a7.5 7.5 0 0 0 2.84 14.73l7.07-1.36a88.41 88.41 0 0 0 43.18 134.56 7.5 7.5 0 0 0 5-14.15zM345.44 471.81h-12.86l9.41-9.13a25.63 25.63 0 0 0 6.48-27.47c-2-5.57-4.84-16.59-7.55-27.24-4-15.63-6.56-25.45-8.73-30-8.73-18.33-35.29-23.09-43.23-24.12h-.23a327.39 327.39 0 0 0-66.94 0h-.14c-7.94 1-34.5 5.79-43.23 24.12-2.15 4.51-4.62 14.17-8.43 29.54-2.66 10.73-5.41 21.82-7.46 27.43a25.55 25.55 0 0 0 6.9 27.85l9.71 9h-12.58a7.5 7.5 0 0 0 0 15h178.88a7.5 7.5 0 0 0 0-15zm-140.1 0-5.05-60.36h111.42l-5 60.36zm129-31.46a10.67 10.67 0 0 1-2.71 11.44l-.09.08-8.92 8.67 4-47.78c2.87 11.11 5.54 21.52 7.76 27.59zm-63.62-72.81a27 27 0 0 1-30.64-.07q14.92-.7 30.68.07zM222 369c5.84 11 18.84 18.31 33.52 18.31S283.12 380 289 369c17.7 2.7 27 9.89 29.66 15.4a102.9 102.9 0 0 1 3.9 12.6 7.65 7.65 0 0 0-2.69-.51H192.13a7.58 7.58 0 0 0-4.21 1.3c1.59-6.07 3.08-11.31 4-13.33 2.68-5.58 12.13-12.83 30.08-15.46zm-45.36 71.12c2.32-6.36 5.17-17.85 7.93-29l.49-2 4.33 51.68-9.78-9.07-.08-.08a10.62 10.62 0 0 1-2.91-11.56z" fill="#f4ca59" data-original="#000000" opacity="1"></path><path d="M262.8 452.06h-13.6a7.5 7.5 0 0 0 0 15h13.6a7.5 7.5 0 0 0 0-15zM256 448.37a7.31 7.31 0 1 0-7.31-7.31 7.32 7.32 0 0 0 7.31 7.31zM285.28 279.23c-7.45 1.72-11.26.45-15.64-5.21a7.51 7.51 0 0 0-5.93-2.91h-.13a7.49 7.49 0 0 0-5.95 3.12c-8.61 11.94-18 14.58-31.3 8.83a7.51 7.51 0 0 0-10.33 5.71 53.58 53.58 0 0 0-.84 8.45c0 25.6 17.27 54.24 40.39 54.24s40.39-28.64 40.39-54.24a52.27 52.27 0 0 0-1.64-12.44 7.5 7.5 0 0 0-9.02-5.55zm-29.78 57.23c-12 0-24.14-17.92-25.3-36.4 13 2.87 24.41-.61 34-10.37a25.37 25.37 0 0 0 16.59 5.21c.07.79.1 1.56.1 2.32 0 19.43-12.81 39.24-25.39 39.24z" fill="#f4ca59" data-original="#000000" opacity="1"></path><path d="M187.24 360.08a7.48 7.48 0 0 0 10.47-1.68 79.34 79.34 0 0 0 13-41.32c1.05-42.43 15.27-62.19 44.75-62.19s43.71 19.76 44.75 62.19a79.34 79.34 0 0 0 13 41.32 7.5 7.5 0 0 0 12.17-8.77 65.2 65.2 0 0 1-10.21-32.92c-.3-12.24-1.57-30.31-9-46-9.62-20.19-27.16-30.86-50.72-30.86s-41.1 10.67-50.72 30.86c-7.46 15.64-8.72 33.72-9 46a65 65 0 0 1-10.2 32.9 7.5 7.5 0 0 0 1.71 10.47z" fill="#f4ca59" data-original="#000000" opacity="1"></path></g></svg>
