<svg xmlns="http://www.w3.org/2000/svg" version="1.1" xmlns:xlink="http://www.w3.org/1999/xlink" xmlns:svgjs="http://svgjs.com/svgjs" width="512" height="512" x="0" y="0" viewBox="0 0 512 512" style="enable-background:new 0 0 512 512" xml:space="preserve" class=""><g><path d="M170 379.708h121.432V200.903c0-11.253 9.122-20.375 20.375-20.375h126.071V80.314H23.093v289.393c0 5.523 4.477 10 10 10H135M72 36.653H17.5c-5.523 0-10 4.477-10 10v23.661c0 5.523 4.477 10 10 10h425.971c5.523 0 10-4.477 10-10V46.653c0-5.523-4.477-10-10-10H107" style="stroke-width:15;stroke-linecap:round;stroke-linejoin:round;stroke-miterlimit:10;" fill="none" stroke="#f4ca59" stroke-width="15" stroke-linecap="round" stroke-linejoin="round" stroke-miterlimit="10" data-original="#000000" opacity="1" class=""></path><path d="M169.349 160.36H75.393a5 5 0 0 1-5-5v-29.503a5 5 0 0 1 5-5h93.956a5 5 0 0 1 5 5v29.503a5 5 0 0 1-5 5zM169.349 245.604H75.393a5 5 0 0 1-5-5v-29.503a5 5 0 0 1 5-5h93.956a5 5 0 0 1 5 5v29.503a5 5 0 0 1-5 5zM169.349 330.848H75.393a5 5 0 0 1-5-5v-29.503a5 5 0 0 1 5-5h93.956a5 5 0 0 1 5 5v29.503a5 5 0 0 1-5 5zM122.371 160.36v45.741M122.371 245.604v45.741M273 120.857h117.578M213.853 120.857H246M360 150.856h30.578M213.853 150.856H336M213.853 180.855H262M213.853 210.853H262M213.853 240.852H262M213.853 270.851H262M213.853 300.85H262M213.853 330.848H262M230.486 379.708V429" style="stroke-width:15;stroke-linecap:round;stroke-linejoin:round;stroke-miterlimit:10;" fill="none" stroke="#f4ca59" stroke-width="15" stroke-linecap="round" stroke-linejoin="round" stroke-miterlimit="10" data-original="#000000" opacity="1" class=""></path><circle cx="230.486" cy="448" r="19" style="stroke-width:15;stroke-linecap:round;stroke-linejoin:round;stroke-miterlimit:10;" fill="none" stroke="#f4ca59" stroke-width="15" stroke-linecap="round" stroke-linejoin="round" stroke-miterlimit="10" data-original="#000000" opacity="1" class=""></circle><path d="M311.807 180.528c-11.253 0-20.375 9.122-20.375 20.375v234.026h.382c2.037-11.577 12.136-20.375 24.297-20.375H504.5v-223.63c0-5.741-4.654-10.396-10.396-10.396H311.807z" style="stroke-width:15;stroke-linecap:round;stroke-linejoin:round;stroke-miterlimit:10;" fill="none" stroke="#f4ca59" stroke-width="15" stroke-linecap="round" stroke-linejoin="round" stroke-miterlimit="10" data-original="#000000" opacity="1" class=""></path><path d="M316.111 414.554c-13.63 0-24.679 11.049-24.679 24.679v0c0 13.162 10.305 23.915 23.286 24.638v-23.453h30.796v23.494h148.591c5.741 0 10.396-4.654 10.396-10.396v-38.963h-188.39z" style="stroke-width:15;stroke-linecap:round;stroke-linejoin:round;stroke-miterlimit:10;" fill="none" stroke="#f4ca59" stroke-width="15" stroke-linecap="round" stroke-linejoin="round" stroke-miterlimit="10" data-original="#000000" opacity="1" class=""></path><path d="M314.718 440.418v32.904c0 1.603 1.775 2.569 3.121 1.698l11.179-7.232a2.024 2.024 0 0 1 2.197 0l11.179 7.232c1.346.871 3.121-.095 3.121-1.698v-32.904h-30.797zM345.514 440.418h72.702M406 344.778h-55.854c-8.005 0-14.554 6.549-14.554 14.554s6.549 14.554 14.554 14.554h95.64c8.005 0 14.554-6.549 14.554-14.554s-6.549-14.554-14.554-14.554H441M437.096 313.287l-39.13-84.939-39.13 84.939M376.098 289.221h44.054M370.553 180.528h-58.746c-11.253 0-20.375 9.122-20.375 20.375v60.438c41.875-5.043 74.947-38.677 79.121-80.813z" style="stroke-width:15;stroke-linecap:round;stroke-linejoin:round;stroke-miterlimit:10;" fill="none" stroke="#f4ca59" stroke-width="15" stroke-linecap="round" stroke-linejoin="round" stroke-miterlimit="10" data-original="#000000" opacity="1" class=""></path></g></svg>
