<svg xmlns="http://www.w3.org/2000/svg" version="1.1" xmlns:xlink="http://www.w3.org/1999/xlink" xmlns:svgjs="http://svgjs.com/svgjs" width="512" height="512" x="0" y="0" viewBox="0 0 512 512" style="enable-background:new 0 0 512 512" xml:space="preserve"><g><path d="M88.686 173.188 58.75 143.252l52.584-52.584 25.863 25.862M349.521 351.714H224.987c-8.057 0-14.588-6.531-14.588-14.588v-88.242c0-8.057 6.531-14.588 14.588-14.588h124.534c8.057 0 14.588 6.531 14.588 14.588v88.242c.001 8.056-6.531 14.588-14.588 14.588zM212.026 346.526l-58.202 48.36M358.579 234.717l62.105-43.593M362.482 346.526l58.202 48.36M215.929 234.717l-62.105-43.593" style="stroke-width:15;stroke-linecap:round;stroke-linejoin:round;stroke-miterlimit:10;" fill="none" stroke="#f4ca59" stroke-width="15" stroke-linecap="round" stroke-linejoin="round" stroke-miterlimit="10" data-original="#000000" opacity="1"></path><path d="M327.915 487.093h135.133c22.893 0 41.452-18.559 41.452-41.452V140.368c0-22.893-18.559-41.452-41.452-41.452H173.8a41.454 41.454 0 0 0-31.314 14.291l-62.339 71.869a41.45 41.45 0 0 0-10.139 27.162v233.403c0 22.894 18.559 41.452 41.452 41.452h187.454M32.587 146.776l4.652 4.652c3.682 3.682 9.652 3.682 13.335 0l68.938-68.938a9.429 9.429 0 0 0 0-13.334L92.534 42.179c-3.682-3.682-9.652-3.682-13.335 0l-68.938 68.938a9.429 9.429 0 0 0 0 13.334l1.819 1.819M399.486 50.028 388.97 32.141a14.667 14.667 0 0 0-12.644-7.233H256.419a14.666 14.666 0 0 0-12.644 7.233l-39.259 66.775h34.029l26.265-44.674h103.124L394.2 98.916h34.029l-14.044-23.888M229.333 416.991h115.842" style="stroke-width:15;stroke-linecap:round;stroke-linejoin:round;stroke-miterlimit:10;" fill="none" stroke="#f4ca59" stroke-width="15" stroke-linecap="round" stroke-linejoin="round" stroke-miterlimit="10" data-original="#000000" opacity="1"></path><path d="M346.628 181.395H227.88a8.975 8.975 0 0 1-8.975-8.975v-18.381a8.975 8.975 0 0 1 8.975-8.975h118.748a8.975 8.975 0 0 1 8.975 8.975v18.381a8.975 8.975 0 0 1-8.975 8.975z" style="stroke-width:15;stroke-linecap:round;stroke-linejoin:round;stroke-miterlimit:10;" fill="none" stroke="#f4ca59" stroke-width="15" stroke-linecap="round" stroke-linejoin="round" stroke-miterlimit="10" data-original="#000000" opacity="1"></path></g></svg>
