<svg xmlns="http://www.w3.org/2000/svg" version="1.1" xmlns:xlink="http://www.w3.org/1999/xlink" xmlns:svgjs="http://svgjs.com/svgjs" width="512" height="512" x="0" y="0" viewBox="0 0 682.667 682.667" style="enable-background:new 0 0 512 512" xml:space="preserve"><g><defs><clipPath id="a" clipPathUnits="userSpaceOnUse"><path d="M0 512h512V0H0Z" fill="#f4ca59" data-original="#000000" opacity="1"></path></clipPath></defs><g clip-path="url(#a)" transform="matrix(1.33333 0 0 -1.33333 0 682.667)"><path d="M0 0v23.17a19.8 19.8 0 0 0 5.8 14.01c3.59 3.58 8.541 5.8 14.011 5.8" style="stroke-width:15;stroke-linecap:round;stroke-linejoin:round;stroke-miterlimit:10;stroke-dasharray:none;stroke-opacity:1" transform="translate(343.99 461.52)" fill="none" stroke="#f4ca59" stroke-width="15" stroke-linecap="round" stroke-linejoin="round" stroke-miterlimit="10" stroke-dasharray="none" stroke-opacity="" data-original="#000000" opacity="1"></path><path d="M0 0v-36.42c0-8.48-8.591-14.21-16.45-11.04a249.639 249.639 0 0 1-74.601 17.43" style="stroke-width:15;stroke-linecap:round;stroke-linejoin:round;stroke-miterlimit:10;stroke-dasharray:none;stroke-opacity:1" transform="translate(475.9 164.46)" fill="none" stroke="#f4ca59" stroke-width="15" stroke-linecap="round" stroke-linejoin="round" stroke-miterlimit="10" stroke-dasharray="none" stroke-opacity="" data-original="#000000" opacity="1"></path><path d="M0 0a249.76 249.76 0 0 0 127.6 24.86" style="stroke-width:15;stroke-linecap:round;stroke-linejoin:round;stroke-miterlimit:10;stroke-dasharray:none;stroke-opacity:1" transform="translate(256 437)" fill="none" stroke="#f4ca59" stroke-width="15" stroke-linecap="round" stroke-linejoin="round" stroke-miterlimit="10" stroke-dasharray="none" stroke-opacity="" data-original="#000000" opacity="1"></path><path d="M0 0c9.85-3.04 19.54-6.72 29.04-11.01 4.26-1.92 6.99-6.19 6.99-10.87v-229.96" style="stroke-width:15;stroke-linecap:round;stroke-linejoin:round;stroke-miterlimit:10;stroke-dasharray:none;stroke-opacity:1" transform="translate(439.87 451.3)" fill="none" stroke="#f4ca59" stroke-width="15" stroke-linecap="round" stroke-linejoin="round" stroke-miterlimit="10" stroke-dasharray="none" stroke-opacity="" data-original="#000000" opacity="1"></path><path d="M0 0v66.913" style="stroke-width:15;stroke-linecap:round;stroke-linejoin:round;stroke-miterlimit:10;stroke-dasharray:none;stroke-opacity:1" transform="translate(256 163.12)" fill="none" stroke="#f4ca59" stroke-width="15" stroke-linecap="round" stroke-linejoin="round" stroke-miterlimit="10" stroke-dasharray="none" stroke-opacity="" data-original="#000000" opacity="1"></path><path d="M0 0v-245.17c0-8.48 8.59-14.21 16.45-11.04 24.04 9.7 49.21 15.51 74.61 17.43" style="stroke-width:15;stroke-linecap:round;stroke-linejoin:round;stroke-miterlimit:10;stroke-dasharray:none;stroke-opacity:1" transform="translate(36.1 373.21)" fill="none" stroke="#f4ca59" stroke-width="15" stroke-linecap="round" stroke-linejoin="round" stroke-miterlimit="10" stroke-dasharray="none" stroke-opacity="" data-original="#000000" opacity="1"></path><path d="M0 0v21.21c0 4.68 2.73 8.95 6.99 10.87 67.78 30.65 145.87 29.56 212.91-3.29v-171.789" style="stroke-width:15;stroke-linecap:round;stroke-linejoin:round;stroke-miterlimit:10;stroke-dasharray:none;stroke-opacity:1" transform="translate(36.1 408.21)" fill="none" stroke="#f4ca59" stroke-width="15" stroke-linecap="round" stroke-linejoin="round" stroke-miterlimit="10" stroke-dasharray="none" stroke-opacity="" data-original="#000000" opacity="1"></path><path d="M0 0a249.81 249.81 0 0 0 125.85 0" style="stroke-width:15;stroke-linecap:round;stroke-linejoin:round;stroke-miterlimit:10;stroke-dasharray:none;stroke-opacity:1" transform="translate(83.12 387.45)" fill="none" stroke="#f4ca59" stroke-width="15" stroke-linecap="round" stroke-linejoin="round" stroke-miterlimit="10" stroke-dasharray="none" stroke-opacity="" data-original="#000000" opacity="1"></path><path d="M0 0a249.81 249.81 0 0 0 125.85 0" style="stroke-width:15;stroke-linecap:round;stroke-linejoin:round;stroke-miterlimit:10;stroke-dasharray:none;stroke-opacity:1" transform="translate(83.12 339.36)" fill="none" stroke="#f4ca59" stroke-width="15" stroke-linecap="round" stroke-linejoin="round" stroke-miterlimit="10" stroke-dasharray="none" stroke-opacity="" data-original="#000000" opacity="1"></path><path d="M0 0a249.81 249.81 0 0 0 125.85 0" style="stroke-width:15;stroke-linecap:round;stroke-linejoin:round;stroke-miterlimit:10;stroke-dasharray:none;stroke-opacity:1" transform="translate(83.12 291.27)" fill="none" stroke="#f4ca59" stroke-width="15" stroke-linecap="round" stroke-linejoin="round" stroke-miterlimit="10" stroke-dasharray="none" stroke-opacity="" data-original="#000000" opacity="1"></path><path d="M0 0a249.81 249.81 0 0 0 125.85 0" style="stroke-width:15;stroke-linecap:round;stroke-linejoin:round;stroke-miterlimit:10;stroke-dasharray:none;stroke-opacity:1" transform="translate(303.025 339.36)" fill="none" stroke="#f4ca59" stroke-width="15" stroke-linecap="round" stroke-linejoin="round" stroke-miterlimit="10" stroke-dasharray="none" stroke-opacity="" data-original="#000000" opacity="1"></path><path d="M0 0a249.81 249.81 0 0 0 125.85 0" style="stroke-width:15;stroke-linecap:round;stroke-linejoin:round;stroke-miterlimit:10;stroke-dasharray:none;stroke-opacity:1" transform="translate(303.025 291.27)" fill="none" stroke="#f4ca59" stroke-width="15" stroke-linecap="round" stroke-linejoin="round" stroke-miterlimit="10" stroke-dasharray="none" stroke-opacity="" data-original="#000000" opacity="1"></path><path d="M0 0v-83.891l-28.127 19.617-28.139-19.617V0c0 10.935-8.867 19.812-19.801 19.812H-19.8C-8.865 19.812 0 10.935 0 0Z" style="stroke-width:15;stroke-linecap:round;stroke-linejoin:round;stroke-miterlimit:10;stroke-dasharray:none;stroke-opacity:1" transform="translate(439.868 484.688)" fill="none" stroke="#f4ca59" stroke-width="15" stroke-linecap="round" stroke-linejoin="round" stroke-miterlimit="10" stroke-dasharray="none" stroke-opacity="" data-original="#000000" opacity="1"></path><path d="m0 0-11.311-53.39" style="stroke-width:15;stroke-linecap:round;stroke-linejoin:round;stroke-miterlimit:10;stroke-dasharray:none;stroke-opacity:1" transform="translate(282.98 97.38)" fill="none" stroke="#f4ca59" stroke-width="15" stroke-linecap="round" stroke-linejoin="round" stroke-miterlimit="10" stroke-dasharray="none" stroke-opacity="" data-original="#000000" opacity="1"></path><path d="m0 0-11.31 53.39" style="stroke-width:15;stroke-linecap:round;stroke-linejoin:round;stroke-miterlimit:10;stroke-dasharray:none;stroke-opacity:1" transform="translate(240.33 43.99)" fill="none" stroke="#f4ca59" stroke-width="15" stroke-linecap="round" stroke-linejoin="round" stroke-miterlimit="10" stroke-dasharray="none" stroke-opacity="" data-original="#000000" opacity="1"></path><path d="m0 0 3.31-3.19c5.26-5.06 12.92-6.76 19.81-4.36C33.77-3.83 45.61-.96 58.28.86c10.31 1.47 21.18 2.269 32.39 2.269S112.75 2.33 123.06.86c12.669-1.82 24.51-4.69 35.16-8.41 6.89-2.4 14.55-.7 19.81 4.36L181.34 0" style="stroke-width:15;stroke-linecap:round;stroke-linejoin:round;stroke-miterlimit:10;stroke-dasharray:none;stroke-opacity:1" transform="translate(165.33 159.99)" fill="none" stroke="#f4ca59" stroke-width="15" stroke-linecap="round" stroke-linejoin="round" stroke-miterlimit="10" stroke-dasharray="none" stroke-opacity="" data-original="#000000" opacity="1"></path><path d="m0 0-53.921-7.401" style="stroke-width:15;stroke-linecap:round;stroke-linejoin:round;stroke-miterlimit:10;stroke-dasharray:none;stroke-opacity:1" transform="translate(347.11 114.5)" fill="none" stroke="#f4ca59" stroke-width="15" stroke-linecap="round" stroke-linejoin="round" stroke-miterlimit="10" stroke-dasharray="none" stroke-opacity="" data-original="#000000" opacity="1"></path><path d="m0 0-53.92 7.401" style="stroke-width:15;stroke-linecap:round;stroke-linejoin:round;stroke-miterlimit:10;stroke-dasharray:none;stroke-opacity:1" transform="translate(218.81 107.1)" fill="none" stroke="#f4ca59" stroke-width="15" stroke-linecap="round" stroke-linejoin="round" stroke-miterlimit="10" stroke-dasharray="none" stroke-opacity="" data-original="#000000" opacity="1"></path><path d="m0 0-2.565-17.81a27.527 27.527 0 0 0-3.794-10.495c-4.882-7.939-13.646-13.123-23.475-13.123h-27.43c-9.829 0-18.592 5.184-23.475 13.123a27.526 27.526 0 0 0-3.793 10.495L-87.098 0c-1.121 7.804 1.288 15.205 5.937 20.709 2.563 3.036 6.233 4.913 10.177 5.386a230.82 230.82 0 0 0 27.435 1.62c9.434 0 18.618-.563 27.436-1.62 3.944-.473 7.614-2.35 10.176-5.386C-1.287 15.205 1.121 7.804 0 0Z" style="stroke-width:15;stroke-linecap:round;stroke-linejoin:round;stroke-miterlimit:10;stroke-dasharray:none;stroke-opacity:1" transform="translate(299.549 135.404)" fill="none" stroke="#f4ca59" stroke-width="15" stroke-linecap="round" stroke-linejoin="round" stroke-miterlimit="10" stroke-dasharray="none" stroke-opacity="" data-original="#000000" opacity="1"></path><path d="M0 0c-51.736 0-93.677 41.941-93.677 93.677 0 51.736 41.941 93.676 93.677 93.676 51.736 0 93.677-41.94 93.677-93.676C93.677 41.941 51.736 0 0 0Zm-83.093-4.812C-60.659-23.759-31.664-35.179 0-35.179c71.165 0 128.856 57.691 128.856 128.856 0 71.165-57.691 128.855-128.856 128.855-71.166 0-128.856-57.69-128.856-128.855 0-26.691 8.115-51.486 22.012-72.053" style="stroke-width:15;stroke-linecap:round;stroke-linejoin:round;stroke-miterlimit:10;stroke-dasharray:none;stroke-opacity:1" transform="translate(256 42.68)" fill="none" stroke="#f4ca59" stroke-width="15" stroke-linecap="round" stroke-linejoin="round" stroke-miterlimit="10" stroke-dasharray="none" stroke-opacity="" data-original="#000000" opacity="1"></path></g></g></svg>
