<svg width="12" height="7" viewBox="0 0 12 7" fill="none" xmlns="http://www.w3.org/2000/svg">
<path d="M6.00002 6.54548C5.92839 6.54555 5.85744 6.53147 5.79126 6.50405C5.72508 6.47662 5.66497 6.43639 5.61439 6.38566L0.159852 0.931123C-0.053284 0.717987 -0.053284 0.372852 0.159852 0.159852C0.372988 -0.0531477 0.718124 -0.053284 0.931123 0.159852L6.00002 5.22875L11.0689 0.159852C11.2821 -0.053284 11.6272 -0.053284 11.8402 0.159852C12.0532 0.372988 12.0533 0.718124 11.8402 0.931123L6.38566 6.38566C6.33508 6.43639 6.27497 6.47662 6.20879 6.50405C6.14261 6.53147 6.07166 6.54555 6.00002 6.54548Z" fill="#F4CA59"/>
</svg>
