<svg width="1161" height="228" viewBox="0 0 1161 228" fill="none" xmlns="http://www.w3.org/2000/svg">
<path d="M1154.27 106.089L896.281 2.38413C889.113 -0.183362 881.276 -0.677352 872.764 0.903202C864.262 2.48583 859.993 5.34805 859.993 9.49818V75.869H21.4995C15.2257 75.869 10.072 76.7563 6.04555 78.5341C2.02146 80.3108 0 82.5835 0 85.3482V142.236C0 144.999 2.01205 147.272 6.0432 149.047C10.0791 150.823 15.2327 151.711 21.4971 151.711H859.998V218.081C859.998 222.037 864.274 224.899 872.771 226.671C881.29 228.258 889.127 227.658 896.295 224.899L1154.29 120.002C1158.77 118.028 1161 115.662 1161 112.894C1161 110.333 1158.75 108.064 1154.27 106.089Z" fill="#F4CA59"/>
</svg>
