<svg width="263" height="158" viewBox="0 0 263 158" fill="none" xmlns="http://www.w3.org/2000/svg">
<path d="M61.9457 85.2887L34.0721 67.0674C33.4899 66.6849 32.8171 66.4625 32.1216 66.4227C31.426 66.3829 30.7323 66.5269 30.1101 66.8404C28.8439 67.4775 28.0116 68.7358 27.9201 70.1534L26.8091 87.8849C26.7637 88.6072 26.9162 89.3282 27.2502 89.9702C27.5842 90.6122 28.087 91.1509 28.7045 91.5284L44.6322 101.3C45.2973 101.707 46.0675 101.91 46.847 101.883C47.6265 101.856 48.3809 101.601 49.0163 101.149L62.0731 91.8668C62.6016 91.4912 63.0304 90.9921 63.3222 90.4131C63.614 89.834 63.7599 89.1924 63.7474 88.5441C63.7348 87.8958 63.5641 87.2604 63.2501 86.693C62.9361 86.1257 62.4883 85.6436 61.9457 85.2887ZM46.5475 93.1291L34.9083 85.9895L35.4419 77.4761L52.7036 88.757L46.5475 93.1291ZM199.135 88.5419C199.122 89.1902 199.268 89.8318 199.561 90.4107C199.853 90.9895 200.282 91.4881 200.811 91.8629L213.868 101.145C214.504 101.597 215.258 101.852 216.038 101.879C216.817 101.906 217.587 101.703 218.252 101.296L234.18 91.5244C235.438 90.7519 236.167 89.3503 236.075 87.8809L234.965 70.1494C234.921 69.4542 234.696 68.7825 234.312 68.2014C233.928 67.6202 233.398 67.15 232.776 66.8377C232.153 66.5254 231.459 66.3819 230.764 66.4215C230.068 66.4611 229.396 66.6824 228.812 67.0634L200.939 85.2847C200.397 85.6406 199.949 86.123 199.635 86.6905C199.32 87.258 199.149 87.8934 199.135 88.5419ZM227.443 77.4761L227.976 85.9895L216.337 93.1291L210.181 88.757L227.443 77.4761Z" fill="#03152e"/>
<path d="M246.918 48.8022C247.442 48.8031 247.96 48.7004 248.444 48.5002C248.928 48.3 249.367 48.0061 249.737 47.6355L253.719 43.6496C254.31 43.0586 254.699 42.2969 254.833 41.4722C254.967 40.6475 254.837 39.8017 254.464 39.0545L250.482 31.0946C250.151 30.4329 249.642 29.8765 249.013 29.4876C248.383 29.0987 247.658 28.8927 246.918 28.8926H230.99C230.467 28.8918 229.949 28.9945 229.466 29.1947C228.983 29.395 228.544 29.6888 228.175 30.0593L224.193 34.0412C223.602 34.6318 223.212 35.3933 223.077 36.218C222.943 37.0427 223.072 37.8887 223.445 38.6364L226.539 44.8203L225.018 47.8625L219.335 36.4981C215.957 29.7693 211.162 23.8519 205.279 19.1528C197.045 12.5735 186.991 8.67906 176.474 7.99541L131.709 5.00896C131.533 4.99701 131.356 4.99701 131.179 5.00896L86.4145 7.99541C75.8557 8.68202 65.7646 12.6042 57.5136 19.2284C51.674 23.9158 46.9125 29.8059 43.553 36.4981L37.8668 47.8625L36.3457 44.8203L39.4356 38.6364C39.8088 37.8887 39.9372 37.0427 39.8029 36.218C39.6685 35.3933 39.2782 34.6318 38.687 34.0412L34.7051 30.0593C34.337 29.6886 33.8989 29.3946 33.4164 29.1943C32.9338 28.994 32.4163 28.8915 31.8939 28.8926H15.9661C14.457 28.8926 13.0792 29.7447 12.4023 31.0946L8.42039 39.0545C8.04677 39.8017 7.91764 40.6475 8.05128 41.4722C8.18491 42.2969 8.57454 43.0586 9.16501 43.6496L13.1469 47.6355C13.5168 48.0061 13.9563 48.3 14.4401 48.5002C14.9239 48.7004 15.4425 48.8031 15.9661 48.8022H29.433L31.3284 52.597L22.1501 57.1882C21.5308 57.4997 21.0027 57.9661 20.617 58.542L12.6532 70.4878C12.2176 71.1411 11.9848 71.9086 11.9842 72.6938V123.447C11.9842 126.924 13.4934 130.129 15.9781 132.423H15.9661V140.144C15.9661 146.865 21.3258 152.332 27.9119 152.332H43.8397C49.4024 152.332 54.0533 148.414 55.3713 143.154L67.3331 144.349C68.0038 144.418 68.6812 144.314 69.3001 144.046L82.2454 138.499L84.0811 142.171C84.4121 142.831 84.9204 143.387 85.549 143.775C86.1777 144.163 86.902 144.369 87.6409 144.369H175.243C176.753 144.369 178.13 143.516 178.807 142.167L180.643 138.495L193.588 144.042C194.204 144.315 194.881 144.42 195.551 144.349L207.441 143.158C208.035 145.783 209.51 148.126 211.622 149.796C213.733 151.465 216.353 152.36 219.045 152.332H234.972C241.558 152.332 246.918 146.865 246.918 140.144V132.423H246.906C248.157 131.285 249.158 129.9 249.846 128.355C250.533 126.81 250.892 125.139 250.9 123.447V72.6938C250.9 71.9094 250.665 71.1369 250.231 70.4838L242.267 58.538C241.883 57.9612 241.354 57.4946 240.734 57.1842L231.556 52.593L233.451 48.8022H246.918ZM62.3994 25.5119L62.491 25.4402C69.4713 19.8371 78.0079 16.5198 86.9401 15.9394L131.442 12.9728L175.944 15.9394C184.876 16.5218 193.412 19.8389 200.393 25.4402L200.481 25.5119C205.386 29.4677 209.386 34.4292 212.212 40.0619L216.58 48.7983L46.3005 48.8022L50.6727 40.0619C53.4993 34.4311 57.4977 29.4702 62.3994 25.5119ZM213.41 56.7621L189.081 81.0957L162.74 88.6215H148.31L141.186 85.0577C140.633 84.7824 140.024 84.6393 139.406 84.6396H123.478C122.861 84.6396 122.248 84.783 121.698 85.0577L114.575 88.6215H100.144L73.8555 81.1116L50.7802 56.7661L213.41 56.7621ZM29.433 40.8384H17.6186L16.8302 40.0499L18.427 36.8564H30.2454L31.0298 37.6409L29.433 40.8384ZM24.7264 122.07C24.2095 122.759 23.93 123.597 23.93 124.459V128.477L21.7678 126.991C21.1994 126.593 20.7367 126.062 20.4196 125.445C20.1026 124.827 19.9407 124.142 19.9481 123.447V98.2339L32.8933 111.179L24.7264 122.07ZM43.8397 144.369H27.9119C25.7139 144.369 23.93 142.473 23.93 140.144V138.137L24.7105 138.674C25.0286 139.141 25.4437 139.534 25.9275 139.826C26.4112 140.118 26.9523 140.303 27.5137 140.367L47.1606 142.33C46.4598 143.528 45.2652 144.369 43.8397 144.369ZM168.848 124.781L165.715 132.1L173.308 135.353L172.783 136.405H90.1017L89.5761 135.353L97.1697 132.1L94.0359 124.781L67.1021 136.321L31.8939 132.801V125.785L41.1917 113.377L87.0317 120.429C87.2332 120.461 87.4369 120.477 87.6409 120.477H175.239C175.442 120.477 175.644 120.461 175.845 120.429L221.685 113.381L230.99 125.785V132.801L195.778 136.321L168.848 124.781ZM238.158 122.07L229.991 111.179L242.936 98.2339V123.447C242.936 124.885 242.255 126.211 241.116 126.995L238.954 128.477V124.459C238.954 123.597 238.675 122.759 238.158 122.07ZM234.972 144.369H219.045C217.619 144.369 216.424 143.528 215.724 142.334L235.371 140.371C235.932 140.307 236.474 140.124 236.957 139.831C237.441 139.539 237.856 139.146 238.174 138.678L238.954 138.141V140.148C238.954 142.473 237.17 144.369 234.972 144.369ZM242.936 73.9003V86.977L225.113 104.8L174.937 112.513H87.9435L37.7712 104.796L19.9481 86.973V73.8964L26.6576 63.834L40.1285 57.0966L68.8263 87.3752C69.3161 87.8928 69.9333 88.2671 70.6221 88.4623L98.4956 96.4261C98.8461 96.5336 99.2164 96.5854 99.5867 96.5854H115.514C116.132 96.5854 116.745 96.442 117.294 96.1673L124.418 92.6035H138.462L145.586 96.1673C146.139 96.442 146.753 96.5854 147.37 96.5854H163.298C163.667 96.586 164.034 96.5337 164.389 96.4301L192.262 88.4662C192.914 88.2815 193.507 87.9334 193.986 87.4548L223.807 57.6262L236.227 63.838L242.936 73.9003ZM232.639 36.8564H244.457L246.054 40.0499L245.266 40.8384H233.451L231.854 37.6409L232.639 36.8564Z" fill="#03152e"/>
<path d="M127.46 96.5815H135.424V104.545H127.46V96.5815ZM117.19 37.6012L145.076 17.7035L149.703 24.1861L121.817 44.0838L117.19 37.6012Z" fill="#03152e"/>
</svg>
