<svg xmlns="http://www.w3.org/2000/svg" version="1.1" xmlns:xlink="http://www.w3.org/1999/xlink" xmlns:svgjs="http://svgjs.com/svgjs" width="512" height="512" x="0" y="0" viewBox="0 0 48 48" style="enable-background:new 0 0 512 512" xml:space="preserve"><g><path d="M45.38 19.523A6.982 6.982 0 0 0 39.998 17H29V9a7.008 7.008 0 0 0-7-7h-2a2.003 2.003 0 0 0-2 2v11c0 1.644-1.74 2.992-3.478 3.9A4.946 4.946 0 0 1 15 21v21a4.967 4.967 0 0 1-1.346 3.388A4.936 4.936 0 0 0 16 46h22.884a5.002 5.002 0 0 0 4.917-4.09l3.08-16.635a6.982 6.982 0 0 0-1.501-5.752zM10 18H4a3.003 3.003 0 0 0-3 3v21a3.003 3.003 0 0 0 3 3h6a3.003 3.003 0 0 0 3-3V21a3.003 3.003 0 0 0-3-3zm-3 6a1 1 0 1 1 1-1 1 1 0 0 1-1 1z" fill="#f4ca59" data-original="#000000" opacity="1"></path></g></svg>
