<svg xmlns="http://www.w3.org/2000/svg" version="1.1" xmlns:xlink="http://www.w3.org/1999/xlink" xmlns:svgjs="http://svgjs.com/svgjs" width="512" height="512" x="0" y="0" viewBox="0 0 376.15 376.15" style="enable-background:new 0 0 512 512" xml:space="preserve"><g><path d="M95.35 216.475c-3.2-14-4-27.6-2-41.2.4-2-1.2-4-3.6-4.4-2-.4-4 1.2-4.4 3.6-2 14.4-1.2 29.2 2 43.6.4 2 2 3.2 4 3.2h.8c2-.4 3.6-2.8 3.2-4.8zM102.95 132.075c-2-.8-4.4 0-5.2 2-2 3.6-3.6 7.6-4.8 11.2-.8 2 .4 4.4 2.4 5.2.4 0 .8.4 1.6.4 1.6 0 3.2-.8 3.6-2.4 1.2-3.6 2.8-7.2 4.8-10.8.4-2-.4-4.4-2.4-5.6z" fill="#8a8a9a" data-original="#000000" opacity="1"></path><path d="M336.55 280.875c0-.4-2-1.2-3.6-.4-6.4 2.4-12.8 4.4-19.6 5.6-38.4 8.8-78 1.6-111.6-19.2-33.6-20.8-56.4-54-65.2-92.8-10-44.4.8-90 29.2-125.2 1.2-1.6 1.2-3.2 0-4.8-1.2-1.6-2.8-2-4.8-1.6-72.4 27.2-114.4 104.4-97.6 180 16.4 72.4 80.8 121.6 152 121.6 11.2 0 22.8-1.2 34-4 34.8-8 64.8-26.4 87.2-54.4 1.2-1.6 1.2-3.2 0-4.8zm-88 52.4c-79.6 18-158.8-32.4-176.8-112-15.2-67.2 18.4-135.6 79.2-165.2-23.2 35.2-31.2 78.4-22 120 9.2 40.8 33.6 75.2 68.8 97.6 35.2 22.4 76.8 29.6 117.6 20.4 2-.4 4.4-1.2 6.4-1.6-20 20.4-45.2 34.4-73.2 40.8zM317.35 49.675c-.4-1.6-1.6-2.4-3.2-2.8l-20.4-2.8-9.2-18.4c-1.2-2.8-6-2.8-7.2 0l-8.8 18.4-20.4 2.8c-1.6.4-2.8 1.2-3.2 2.8-.4 1.6 0 3.2 1.2 4l14.4 14.4-3.6 20c-.4 1.6.4 3.2 1.6 4 .8.4 1.6.8 2.4.8s1.2 0 2-.4l18-9.6 18 9.6c1.2.8 2.8.4 4.4-.4 1.2-.8 2-2.4 1.6-4l-3.6-20 14.8-14.4c1.2-1.2 1.6-2.8 1.2-4zm-22.4 14c-.8.8-1.2 2.4-1.2 3.6l2.4 14.4-12.8-6.8c-.4-.4-1.2-.4-2-.4s-1.2 0-2 .4l-12.8 6.8 2.4-14.4c.4-1.2-.4-2.8-1.2-3.6l-10.4-10 14.4-2c1.2 0 2.4-1.2 3.2-2l6.4-12.8 6.4 12.8c.4 1.2 1.6 2 3.2 2l14.4 2-10.4 10z" fill="#8a8a9a" data-original="#000000" opacity="1"></path><path d="M337.35 192.475c-.4-1.6-1.6-2.4-3.2-2.8l-20.4-2.8-9.6-18.4c-1.2-2.8-6-2.8-7.2 0l-8.8 18.4-20.4 2.8c-1.6.4-2.8 1.2-3.2 2.8-.4 1.6 0 3.2 1.2 4l14.8 14.4-3.6 20c-.4 1.6.4 3.2 1.6 4s2.8 1.2 4.4.4l18-9.6 18 9.6c.4.4 1.2.4 2 .4s1.6-.4 2.4-.8c1.2-.8 2-2.4 1.6-4l-3.6-20 14.8-14.4c1.2-1.2 1.6-2.8 1.2-4zm-23.2 14c-.8.8-1.2 2.4-1.2 3.6l2.4 14.4-12.8-6.8c-.4-.4-1.2-.4-2-.4s-1.2 0-2 .4l-12.8 6.8 2.4-14.4c.4-1.2-.4-2.8-1.2-3.6l-10.4-10 14.4-2c1.2 0 2.4-1.2 3.2-2l6.4-12.8 6.4 12.8c.4 1.2 1.6 2 3.2 2l14.4 2-10.4 10zM72.55 38.075c-.4-1.6-1.6-2.4-3.2-2.8l-20.4-2.8-8.8-18.4c-1.2-2.8-6-2.8-7.2 0l-9.2 18.4-20.4 2.8c-1.6.4-2.8 1.2-3.2 2.8-.4 1.6 0 3.2 1.2 4l14.8 14.4-3.6 20c-.4 1.6.4 3.2 1.6 4 1.2.8 2.8 1.2 4.4.4l18-9.6 18 9.6c.4.4 1.2.4 2 .4s1.6-.4 2.4-.8c1.2-.8 1.6-2.4 1.2-4l-3.6-20 14.8-14.4c1.2-1.2 1.6-2.8 1.2-4zm-22.8 14c-.8.8-1.2 2.4-1.2 3.6l2.4 14.4-12.8-6.8c-.4-.4-1.2-.4-2-.4s-1.2 0-2 .4l-12.8 6.8 2.4-14.4c.4-1.2-.4-2.8-1.2-3.6l-10.4-10 14.4-2c1.2 0 2.4-1.2 3.2-2l6.4-12.8 6.4 12.8c.4 1.2 1.6 2 3.2 2l14.4 2-10.4 10zM362.55 40.475c-3.2 0-6 2.8-6 6s2.8 6 6 6 6-2.8 6-6-2.8-6-6-6zM18.15 138.475c-3.2 0-6 2.8-6 6s2.8 6 6 6 6-2.8 6-6c.4-3.2-2.4-6-6-6zM370.15 225.675c-3.2 0-6 2.8-6 6s2.8 6 6 6 6-2.8 6-6-2.8-6-6-6zM302.15 362.475c-3.2 0-6 2.8-6 6s2.8 6 6 6 6-2.8 6-6-2.8-6-6-6zM82.15 1.675c-3.2 0-6 2.8-6 6s2.8 6 6 6 6-2.8 6-6-2.8-6-6-6zM76.55 340.475c-3.2 0-6 2.8-6 6s2.8 6 6 6 6-2.8 6-6-2.8-6-6-6zM36.55 322.475c-3.2 0-6 2.8-6 6s2.8 6 6 6 6-2.8 6-6-2.8-6-6-6zM318.15 106.475c-3.2 0-6 2.8-6 6s2.8 6 6 6 6-2.8 6-6-2.8-6-6-6zM191.75 164.075c-3.6 0-6 2.8-6 6s2.8 6.4 6 6.4 6-2.8 6-6-2.4-6.4-6-6.4z" fill="#8a8a9a" data-original="#000000" opacity="1"></path></g></svg>
