<svg width="263" height="158" viewBox="0 0 263 158" fill="none" xmlns="http://www.w3.org/2000/svg">
<path d="M240.269 77.3463C236.14 74.1672 231.589 71.7648 226.765 70.1744C230.879 69.211 235.033 68.428 239.215 67.8278C244.074 67.135 247.148 62.2297 245.631 57.546C240.431 41.5278 239.009 34.4303 231.246 25.5249L212.988 4.57899C211.786 3.1943 210.131 2.28192 208.319 2.00488C206.507 1.72785 204.655 2.10421 203.095 3.06671L197.394 6.56803C194.139 8.56613 192.817 12.7082 194.319 16.2033C195.804 19.6598 197.879 26.0312 196.314 32.0151L195.297 28.897C194.602 26.7766 193.217 24.9501 191.362 23.709L179.292 15.6565C174.731 12.6129 168.543 13.8477 165.498 18.4107C162.447 22.9828 163.678 29.1545 168.252 32.2048L175.607 37.1107C175.368 37.082 175.13 37.0563 174.89 37.0391C158.736 26.4265 148.666 24.6196 142.377 23.0701C127.02 19.2875 112.498 15.7156 93.8764 40.036C88.3842 39.1645 72.8261 36.181 62.4528 29.0816C57.555 25.7299 51.2861 25.8358 46.6639 29.0129L39.6036 22.446C33.8062 17.0548 28.1466 17.8763 20.1814 17.8763C14.1175 17.8763 10.7988 24.938 14.6558 29.6069L30.2172 48.4446C33.903 52.9071 39.7414 55.2609 45.6265 54.488L67.7081 72.7036C71.7854 76.0778 76.9979 77.7666 82.2793 77.4245L94.3623 76.6607L97.4817 81.2648L82.9944 88.1811C75.1689 78.1005 63.166 72.1653 50.2992 72.1653C27.4706 72.1634 8.89746 90.7361 8.89746 113.565C8.89746 136.393 27.4706 154.965 50.2992 154.965C71.2504 154.965 88.6802 139.397 91.3377 118.97L91.4831 118.962L105.919 139.697C106.468 140.485 107.198 141.128 108.048 141.572C108.898 142.016 109.843 142.249 110.803 142.249H134.95C135.899 142.249 136.808 141.872 137.479 141.202C138.149 140.531 138.526 139.622 138.526 138.673C138.526 136.697 136.926 135.098 134.95 135.098H111.431L97.722 115.407H116.82C126.208 126.668 144.45 121.443 146.666 107.142C154.799 111.749 164.621 114.619 174.084 114.321C172.446 120.955 171.098 128.317 170.247 135.098H151.638C149.664 135.098 148.063 136.699 148.063 138.673C148.063 140.647 149.663 142.249 151.638 142.249H171.31C172.767 142.249 174.174 141.714 175.263 140.746C176.352 139.778 177.048 138.444 177.22 136.997C177.233 136.887 177.249 136.773 177.263 136.663C179.86 140.517 183.095 143.951 186.829 146.742C213.969 167.035 253 147.625 253 113.565C253 102.825 248.871 92.6455 241.541 84.9782C242.335 83.7814 242.645 82.3281 242.408 80.9117C242.172 79.4953 241.408 78.2211 240.269 77.3463H240.269ZM124.121 80.1062L128.538 70.8356C130.449 66.8424 133.617 63.5867 137.557 61.5684C140.477 60.0804 170.964 44.4461 173.618 44.1891C175.616 43.9974 177.674 45.0311 179.318 46.1839C174.787 48.1595 147.979 60.4304 142.157 65.135C137.384 68.9926 133.824 74.1436 131.901 79.9718C129.307 79.5827 126.575 79.6538 124.121 80.1062ZM94.0977 63.5198C99.126 62.509 97.4068 62.8552 106.192 61.0883L118.675 74.9086C117.112 78.1897 115.572 81.4211 114.034 84.6521C112.796 85.6152 111.518 86.861 110.62 87.9074C106.015 81.1098 99.4145 71.3658 94.0977 63.5198ZM187.222 50.5734C202.061 44.3564 206.926 32.0613 202.394 17.4591L212.044 31.7075C213.214 33.4422 214.754 34.8966 216.552 35.9665C218.351 37.0363 220.363 37.6952 222.446 37.8959L231.572 38.7903C233.168 42.0156 233.693 43.9359 235.425 49.2713C227.518 50.0089 221.838 53.9851 221.838 59.0916C221.838 60.7412 222.404 62.263 223.441 63.6018C212.571 66.2955 200.312 70.7999 191.981 78.2102C185.911 70.6697 175.882 64.1105 164.163 61.1717C171.47 57.5679 179.859 53.6404 187.222 50.5734ZM207.596 9.27698C228.492 33.2475 225.575 29.8763 226.596 31.1168C223.132 30.7783 220.148 30.9233 217.964 27.6975L205.83 9.77996L206.838 9.1616C206.958 9.08732 207.1 9.05812 207.239 9.07928C207.378 9.10043 207.504 9.17055 207.596 9.27698ZM238.206 60.7484C236.85 60.9405 235.373 61.1713 233.81 61.4397C230.685 60.7617 229.267 59.566 229.011 59.0892C229.427 58.2735 232.46 56.3946 237.707 56.3012L238.827 59.7524C238.863 59.8589 238.874 59.9717 238.861 60.083C238.847 60.1943 238.81 60.3013 238.75 60.3964C238.691 60.4915 238.611 60.5724 238.517 60.6333C238.423 60.6942 238.317 60.7332 238.206 60.7484ZM202.866 93.1923C201.666 89.5165 202.439 91.8869 199.096 81.6385C200.56 80.5525 202.182 79.5079 203.957 78.5115L215.107 112.698C215.336 113.403 215.277 114.17 214.941 114.831C214.605 115.492 214.02 115.992 213.316 116.222C212.967 116.336 212.598 116.381 212.232 116.353C211.866 116.325 211.509 116.225 211.181 116.058C210.854 115.892 210.563 115.663 210.324 115.383C210.086 115.104 209.905 114.78 209.792 114.431L202.866 93.1923ZM214.541 87.8998L210.46 75.3863L211.198 75.0664C219.147 74.7797 226.987 76.9865 233.619 81.3777L214.541 87.8998ZM183.868 34.9466C183.62 34.1834 183.121 33.5265 182.453 33.0825L172.221 26.2548C171.916 26.0514 171.653 25.7896 171.449 25.4847C171.245 25.1797 171.102 24.8374 171.03 24.4775C170.958 24.1175 170.958 23.7469 171.029 23.3868C171.101 23.0267 171.242 22.6841 171.446 22.3788C171.858 21.7627 172.498 21.3352 173.225 21.1901C173.952 21.0449 174.706 21.194 175.324 21.6045L187.392 29.657C187.913 30.0059 188.303 30.5196 188.498 31.1159L191.344 39.8387C189.921 41.0754 188.334 42.0956 186.641 42.9614C186.567 42.889 186.492 42.8203 186.412 42.7459L183.868 34.9466ZM140.666 30.0131C146.833 31.5326 152.78 32.3445 165.533 39.6933C157.345 43.5035 142.366 51.0911 134.309 55.1975C128.991 57.9088 124.647 62.3694 122.081 67.7586L122.003 67.9226L100.098 43.6732C115.55 23.8262 126.167 26.4432 140.666 30.0131ZM58.4132 34.9834C70.7384 43.4182 88.6168 46.5095 93.6881 47.2456L100.614 54.9143L87.4173 57.5698C85.8326 57.8918 84.196 57.8555 82.6271 57.4637C81.0582 57.0719 79.5966 56.3344 78.3493 55.3052L52.4899 34.0484C54.4156 33.4563 56.6015 33.7414 58.4132 34.9834ZM35.7318 43.8897L20.1609 25.0615C20.1609 25.0501 20.1704 25.0296 20.159 25.0281H20.1828C28.098 25.0281 31.2308 24.4246 34.7335 27.6818C47.0382 39.1254 41.4716 34.2477 53.8749 44.4442C48.6601 46.2058 50.139 45.7071 45.6284 47.2323C41.9874 48.0795 38.1156 46.7765 35.7318 43.8897ZM72.2597 67.1856L53.8525 52.0022C56.3164 51.1698 54.8246 51.6723 60.3817 49.7948L73.8092 60.8318C77.3382 63.7341 81.8368 65.1895 86.397 64.9043C88.7398 68.3608 88.0228 67.3048 89.7062 69.7892C81.9646 70.2793 77.3086 71.352 72.2597 67.1861V67.1856ZM45.4592 106.101C42.7474 107.395 40.9929 110.174 40.9929 113.18C40.9929 117.642 44.7345 121.232 49.2189 121.015L68.3488 120.087C65.6633 127.54 58.529 132.757 50.2987 132.757C39.7176 132.757 31.1078 124.147 31.1078 113.566C31.1078 97.7878 49.2732 88.6979 61.8735 98.2646L45.4592 106.101ZM84.0671 119.324C81.3258 135.586 67.1908 147.814 50.2992 147.814C31.4134 147.814 16.0488 132.452 16.0488 113.566C16.0488 94.6793 31.4134 79.3172 50.2992 79.3172C55.2557 79.3129 60.1538 80.3868 64.6537 82.4645C69.1536 84.5423 73.1477 87.5741 76.3589 91.3496L68.8966 94.9125C52.4709 78.4976 23.9545 90.0648 23.9545 113.566C23.9545 128.092 35.7733 139.909 50.2992 139.909C62.5982 139.909 73.1183 131.42 75.9136 119.721C79.2118 119.559 77.4445 119.644 84.0671 119.324ZM95.4254 108.254C92.9782 108.254 90.8571 109.738 89.9465 111.878L48.8728 113.873C48.478 113.897 48.1462 113.577 48.1462 113.18C48.1462 112.915 48.3007 112.67 48.539 112.556C49.7738 111.968 99.897 88.0362 101.538 87.2543L106.561 94.6665C104.847 99.0412 104.553 103.891 105.519 108.254H95.4254ZM112.933 108.254C109.251 97.097 118.384 85.5127 130.428 87.0011C130.334 88.0197 130.284 89.0419 130.279 90.0648C130.279 92.398 131.646 94.5287 133.782 95.4841C133.795 95.492 133.809 95.4989 133.823 95.5046C137.952 97.3163 140.371 101.803 139.563 106.293C138.161 114.051 128.095 117.678 121.949 110.39C120.806 109.035 119.165 108.254 117.399 108.254H112.933ZM145.519 97.8955C143.898 94.0762 140.869 90.9716 137.444 89.3043C137.602 84.1329 139.375 79.0955 142.48 75.004C146.126 70.1877 150.083 68.3403 153.056 66.7965C165.751 67.0907 179.892 73.8993 187.073 83.5332C182.023 90.2154 178.508 99.0226 176.08 107.036C165.645 108.079 153.845 104.052 145.519 97.8955ZM211.596 147.814C196.806 147.814 183.879 138.517 179.16 124.588C181.445 112.671 185.818 96.532 193.358 87.107L195.251 92.9096C175.791 108.266 186.654 139.908 211.596 139.908C221.866 139.908 231.267 133.872 235.55 124.531C235.745 124.104 235.855 123.642 235.873 123.173C235.89 122.704 235.815 122.236 235.652 121.795C235.488 121.355 235.24 120.951 234.92 120.607C234.601 120.263 234.217 119.985 233.79 119.789C233.363 119.593 232.902 119.483 232.432 119.466C231.963 119.448 231.495 119.524 231.054 119.687C230.614 119.85 230.21 120.099 229.866 120.418C229.522 120.738 229.244 121.122 229.048 121.549C225.927 128.357 219.078 132.757 211.596 132.757C201.015 132.757 192.407 124.146 192.407 113.565C192.407 108.561 194.321 103.875 197.679 100.354L202.992 116.649C204.706 121.899 210.321 124.72 215.533 123.022C220.761 121.316 223.61 115.707 221.906 110.481L216.9 95.1332C222.929 96.8638 227.789 101.464 229.803 107.485C229.948 107.934 230.181 108.35 230.489 108.709C230.796 109.068 231.171 109.362 231.593 109.575C232.015 109.788 232.474 109.916 232.946 109.95C233.417 109.984 233.89 109.925 234.338 109.775C234.786 109.625 235.2 109.388 235.556 109.078C235.912 108.767 236.203 108.389 236.412 107.965C236.621 107.541 236.744 107.08 236.773 106.609C236.803 106.137 236.739 105.665 236.585 105.218C234.705 99.5987 230.987 94.7766 226.03 91.5299L234.924 88.4905C257.511 109.496 242.746 147.814 211.596 147.814Z" fill="#03152e"/>
</svg>
