<svg width="263" height="158" viewBox="0 0 263 158" fill="none" xmlns="http://www.w3.org/2000/svg">
<path d="M236.023 107.035L233.455 81.5912H186.557L184.002 107.038C183.857 108.469 184.105 109.913 184.721 111.213C185.338 112.513 186.298 113.62 187.498 114.413L188.162 114.853C201.396 123.668 218.63 123.668 231.864 114.853L232.531 114.41C233.731 113.617 234.69 112.51 235.306 111.21C235.922 109.91 236.17 108.466 236.023 107.035ZM229.607 110.02L228.941 110.462C217.469 118.103 202.53 118.103 191.059 110.462L190.395 110.022C189.997 109.757 189.678 109.389 189.474 108.956C189.269 108.524 189.186 108.043 189.234 107.567L191.312 86.8591H228.701L230.779 107.57C230.825 108.046 230.739 108.526 230.533 108.957C230.326 109.389 230.006 109.756 229.607 110.02ZM231.74 27.4712L226.633 24.6344C221.552 21.7913 215.827 20.2985 210.005 20.2985C204.183 20.2985 198.458 21.7913 193.377 24.6344L188.264 27.4712C186.841 28.266 185.697 29.4808 184.99 30.9498C184.283 32.4188 184.047 34.0702 184.313 35.6786L186.697 50.0179H233.302L235.691 35.6812C235.959 34.0724 235.722 32.4204 235.015 30.9509C234.308 29.4814 233.164 28.2662 231.74 27.4712ZM230.495 34.8146L228.84 44.75H191.159L189.502 34.812C189.413 34.2754 189.491 33.7243 189.728 33.2342C189.964 32.7442 190.346 32.3394 190.822 32.0753L195.929 29.2385C200.229 26.8331 205.073 25.5701 210 25.5701C214.926 25.5701 219.771 26.8331 224.07 29.2385L229.178 32.0753C229.652 32.3417 230.032 32.7474 230.268 33.2374C230.503 33.7275 230.583 34.2781 230.495 34.8146ZM184.092 125.215L188.475 122.293L199.011 138.095L194.628 141.017L184.092 125.215ZM220.996 138.155L231.537 122.352L235.92 125.276L225.379 141.078L220.996 138.155Z" fill="#03152e"/>
<path d="M258.889 89.9805C258.532 89.7389 258.122 89.5885 257.693 89.5426C257.265 89.4967 256.831 89.5566 256.431 89.7171L245.514 94.0842L244.241 78.9916L248.013 33.9508C249.037 22.1578 242.717 10.946 232.099 5.71466L230.018 4.67951C223.794 1.60125 216.944 -0.00012207 210 -0.00012207C203.056 -0.00012207 196.206 1.60125 189.982 4.67951L187.904 5.71466C177.281 10.9428 170.957 22.1555 171.979 33.9508L175.758 78.9916L174.494 94.0947L163.576 89.7276C163.177 89.5661 162.744 89.505 162.316 89.5495C161.888 89.5941 161.477 89.743 161.119 89.9831C160.762 90.2233 160.469 90.5475 160.266 90.9272C160.063 91.307 159.956 91.7307 159.955 92.1614V99.1308C159.95 100.711 160.421 102.257 161.307 103.566C162.193 104.875 163.453 105.886 164.922 106.469L173.174 109.769L172.071 122.881C171.033 135.285 178.076 146.952 189.534 151.813L198.584 155.677C202.193 157.21 206.074 158 209.995 158C213.916 158 217.796 157.21 221.405 155.677L230.455 151.813C241.918 146.956 248.966 135.287 247.929 122.881L246.831 109.769L255.083 106.469C256.551 105.886 257.81 104.874 258.695 103.565C259.58 102.256 260.051 100.711 260.045 99.1308V92.1614C260.045 91.7311 259.94 91.3073 259.738 90.9271C259.537 90.5469 259.245 90.2219 258.889 89.9805ZM173.124 104.075L166.879 101.575C166.389 101.382 165.969 101.045 165.674 100.609C165.378 100.173 165.221 99.6577 165.223 99.1308V96.0517L173.124 99.2125V104.075ZM242.766 33.5004L238.974 78.9916L242.682 123.332C243.521 133.47 237.758 143.002 228.39 146.969L219.34 150.83C216.386 152.086 213.21 152.733 210 152.733C206.79 152.733 203.614 152.086 200.66 150.83L191.61 146.969C182.245 142.994 176.49 133.456 177.339 123.319L181.026 78.9916L177.231 33.5004C176.4 23.8637 181.567 14.7044 190.245 10.4321L192.326 9.39695C197.821 6.67834 203.868 5.26402 209.999 5.26402C216.129 5.26402 222.177 6.67834 227.671 9.39695L229.749 10.4321C238.428 14.7037 243.596 23.863 242.766 33.5004ZM254.777 99.1308C254.779 99.6577 254.622 100.173 254.326 100.609C254.031 101.045 253.611 101.382 253.121 101.575L246.875 104.075V99.2125L254.777 96.0517V99.1308Z" fill="#03152e"/>
<path d="M149.228 123.573C151.477 108.754 151.589 92.2297 149.543 77.0381C149.237 74.78 148.881 72.5297 148.472 70.2891C148.462 70.2255 148.451 70.1621 148.437 70.0991C146.317 58.5382 142.964 48.4672 138.426 40.0997C138.389 40.0301 138.348 39.9622 138.305 39.8961C138.291 39.871 138.276 39.8459 138.261 39.8207C132.693 30.4176 125.319 22.4895 116.344 16.2567C108.003 10.4634 98.4414 6.2335 87.9247 3.6844C72.1233 -0.140617 53.3281 0.136146 37.6491 4.42458C36.0684 4.85674 35.126 6.53539 35.5428 8.17421C35.9596 9.8121 37.5788 10.7892 39.1583 10.3567C42.6716 9.39681 46.3507 8.65203 50.1176 8.11935C69.918 12.2101 87.6164 20.3465 101.319 31.6687C111.778 40.3105 119.164 50.4379 122.21 60.12L81.8897 47.2651C73.1906 44.4914 65.5956 46.6476 61.0538 53.1807C55.4262 61.274 56.0763 74.0222 62.5988 83.4934C76.4286 103.576 92.0278 113.496 141.054 133.006C140.556 134.771 140.034 136.418 139.543 137.649C138.37 139.923 129.438 149.713 123.181 151.531C121.964 151.884 121.048 151.871 120.459 151.491C120.381 151.44 120.3 151.393 120.217 151.35L107.909 144.969L107.907 144.968H107.906L81.3251 131.185L81.3192 131.182C74.1307 127.455 56.9948 115.016 41.4057 99.0289C28.6014 85.8988 13.357 66.7908 13.1583 50.1121C14.4414 44.0589 16.4079 38.9289 19.1031 34.5975C19.4287 34.0743 19.5931 33.4608 19.5743 32.8385C19.5556 32.2161 19.3547 31.6144 18.9982 31.1133L12.3244 21.7307C14.8443 20.2975 17.4438 18.9241 20.4347 17.4398C21.9093 16.7082 22.5319 14.8763 21.8262 13.3475C21.1205 11.8199 19.3538 11.1732 17.8801 11.9061C13.5971 14.0313 10.0797 15.9432 6.47653 18.1055C6.11644 18.3216 5.80437 18.614 5.56067 18.9637C5.31698 19.3133 5.14714 19.7123 5.06225 20.1346C4.97735 20.5569 4.97932 20.993 5.068 21.4145C5.15669 21.836 5.3301 22.2333 5.57693 22.5806L13.0555 33.0945C10.4826 37.6992 8.58526 42.9899 7.32085 49.0661C7.30696 49.1258 7.29424 49.1856 7.2839 49.2478C6.60484 52.5546 6.10818 56.09 5.79984 59.8831C4.83106 71.7689 5.81255 84.4261 6.60129 94.5964C6.61282 94.738 6.63233 94.8756 6.6613 95.0108C7.00896 97.7968 8.6568 100.274 11.0496 101.599C10.5494 103.872 10.657 106.254 11.3878 108.53C12.44 111.802 14.6492 114.449 17.6087 115.984L92.5555 154.845C94.2747 155.739 96.1715 156.205 98.095 156.205C101.699 156.205 105.197 154.569 107.582 151.659L117.459 156.781C118.69 157.544 120.079 157.924 121.61 157.924C122.635 157.924 123.724 157.754 124.871 157.412C133.173 154.939 143.373 143.517 144.891 140.281C144.915 140.229 144.939 140.177 144.959 140.124C145.82 137.999 146.719 134.928 147.475 131.946L147.482 131.917C148.351 128.486 149.027 125.179 149.228 123.573ZM37.2441 103.391C40.9602 107.201 44.7697 110.818 48.5262 114.18L16.0236 97.326H16.0224C16.0224 97.326 16.0224 97.3248 16.0212 97.3248L13.8918 96.2211C13.1019 95.8116 12.5893 95.0215 12.5189 94.1054C12.51 93.993 12.4953 93.8812 12.4748 93.7704C11.8673 85.9463 11.1631 76.6559 11.3491 67.5423C17.0666 80.8055 27.7831 93.6889 37.2441 103.391V103.391ZM95.2022 149.357L20.2555 110.496C18.7094 109.695 17.5546 108.308 17.0027 106.591C16.7874 105.923 16.674 105.224 16.6666 104.519L101.974 148.752C100.066 150.204 97.4596 150.527 95.2022 149.357ZM105.006 26.8705C95.0349 18.6308 83.0906 12.0008 69.8278 7.27527C75.5961 7.58176 81.266 8.37435 86.5781 9.65978C100.894 13.1296 120.607 21.7356 133.217 43.0282C133.232 43.0533 133.246 43.0785 133.259 43.1036C133.291 43.1621 133.324 43.2197 133.36 43.2761C136.888 49.8286 139.651 57.5458 141.621 66.3072L128.892 62.2498C126.363 50.056 117.951 37.5653 105.006 26.8705ZM67.4157 79.9283C62.4048 72.6525 61.7341 62.6952 65.8545 56.7688C68.8626 52.4421 73.9391 51.1502 80.1509 53.1292L89.402 56.0792L83.5343 97.4281C76.9705 92.2189 72.0604 86.6733 67.4157 79.9283ZM88.9526 101.396L95.1239 57.9038L142.964 73.1554C143.229 74.7278 143.468 76.3047 143.681 77.8855C145.651 92.5098 145.543 108.412 143.377 122.661C143.371 122.692 143.368 122.723 143.363 122.754C143.255 123.648 142.959 125.208 142.553 127.031C116.646 116.705 100.44 109.186 88.9526 101.396Z" fill="#03152e"/>
<path d="M26.6385 14.3461C26.9911 14.3461 27.3409 14.2804 27.6711 14.1521L27.7379 14.1257C29.2657 13.525 30.035 11.7541 29.4552 10.1701C28.8755 8.58619 27.1674 7.78778 25.6387 8.38973C25.6375 8.38973 25.6061 8.40199 25.5993 8.40536C24.0703 8.99935 23.2943 10.7638 23.8658 12.349C24.3092 13.5848 25.4373 14.3461 26.6385 14.3461ZM24.2276 22.151C23.2574 20.7871 21.4049 20.4974 20.0897 21.5021C18.7741 22.5074 18.4939 24.4279 19.4638 25.7918L23.793 31.8796C24.0681 32.2668 24.4272 32.5814 24.8413 32.7979C25.2554 33.0144 25.7129 33.1267 26.1767 33.1258C26.8081 33.1263 27.423 32.9165 27.9307 32.5273C29.2462 31.5217 29.5268 29.6012 28.5568 28.2376L24.2276 22.151ZM30.1018 21.7341L34.4313 27.8223C34.7063 28.2094 35.0654 28.5239 35.4794 28.7404C35.8935 28.957 36.3509 29.0693 36.8146 29.0685C37.4461 29.0687 38.061 28.8589 38.5689 28.4699C39.8842 27.4643 40.1647 25.5438 39.1948 24.1802L34.8653 18.0933C33.8956 16.7297 32.0432 16.4401 30.7276 17.4444C29.4124 18.4504 29.1318 20.3705 30.1018 21.7341ZM102.226 137.696C102.574 137.876 102.953 137.983 103.34 138.011C103.728 138.039 104.117 137.987 104.485 137.859C104.854 137.731 105.194 137.529 105.487 137.264C105.78 137 106.02 136.678 106.193 136.317C106.922 134.8 106.326 132.959 104.863 132.203L104.8 132.172C103.337 131.417 101.561 132.034 100.832 133.552C100.105 135.067 100.701 136.91 102.164 137.664L102.226 137.696ZM120.684 147.267C121.094 147.481 121.547 147.592 122.006 147.593C123.09 147.593 124.135 146.971 124.654 145.896C125.385 144.381 124.792 142.538 123.33 141.78L112.47 136.15C111.01 135.391 109.232 136.006 108.501 137.522C107.77 139.037 108.363 140.88 109.824 141.638L120.684 147.267Z" fill="#03152e"/>
</svg>
