<svg width="263" height="158" viewBox="0 0 263 158" fill="none" xmlns="http://www.w3.org/2000/svg">
<path d="M107.618 31.3838L103.039 35.9641C102.516 36.522 102.231 37.2615 102.243 38.0261C102.256 38.7907 102.565 39.5205 103.106 40.0612C103.647 40.6018 104.377 40.9108 105.141 40.9229C105.906 40.935 106.645 40.6491 107.203 40.1259L111.781 35.5456C112.304 34.9877 112.59 34.2482 112.577 33.4836C112.565 32.719 112.256 31.9892 111.715 31.4486C111.174 30.9079 110.444 30.5989 109.679 30.5868C108.915 30.5747 108.175 30.8606 107.618 31.3838ZM159.194 34.6175L154.996 33.6488C154.235 33.4768 153.438 33.6119 152.777 34.0248C152.116 34.4378 151.645 35.095 151.466 35.8537C151.29 36.6144 151.423 37.4138 151.837 38.0762C152.25 38.7385 152.91 39.2096 153.67 39.3858C153.67 39.3858 158.315 40.4301 158.534 40.4301C159.255 40.4275 159.951 40.1601 160.488 39.6785C161.026 39.1969 161.368 38.5347 161.449 37.8177C161.531 37.1006 161.346 36.3786 160.931 35.7887C160.515 35.1987 159.897 34.782 159.194 34.6175ZM56.9421 15.6958H67.426C70.3071 15.6958 73.0196 14.572 75.0559 12.5357L80.2698 7.32186C81.1914 6.40462 82.4376 5.88801 83.7379 5.88423H178.75C180.395 5.88423 184.275 10.2359 184.275 10.2359C185.259 11.7157 186.594 12.929 188.16 13.7674C189.727 14.6059 191.477 15.0434 193.254 15.0409H206.057C206.837 15.0409 207.586 14.7308 208.138 14.1789C208.69 13.627 209 12.8784 209 12.0978C209 11.3173 208.69 10.5687 208.138 10.0168C207.586 9.46482 206.837 9.15475 206.057 9.15475H193.254C190.303 9.18769 187.728 4.8031 187.728 4.8031C186.743 3.32447 185.408 2.11222 183.842 1.27424C182.275 0.436252 180.526 -0.00147851 178.75 3.75198e-06H83.7379C80.8568 3.75198e-06 78.1462 1.12376 76.108 3.16202C76.108 3.16202 68.7377 9.81157 67.426 9.81157H56.9421C56.1618 9.81157 55.4135 10.1215 54.8617 10.6733C54.31 11.225 54 11.9734 54 12.7537C54 13.534 54.31 14.2823 54.8617 14.8341C55.4135 15.3858 56.1618 15.6958 56.9421 15.6958Z" fill="#03152e"/>
<path d="M206.057 76.0881C206.838 76.0881 207.586 75.778 208.138 75.2261C208.69 74.6742 209 73.9256 209 73.145C209 72.3645 208.69 71.6159 208.138 71.0639C207.586 70.512 206.838 70.2019 206.057 70.2019H187.139C185.393 67.3196 183.391 64.6001 181.158 62.076C183.28 60.9678 185.169 59.4216 186.571 57.4299C187.758 55.7573 188.586 53.8581 189.006 51.8509C189.425 49.8438 189.426 47.7717 189.009 45.7641L184.733 24.3798C184.039 20.9497 182.181 17.8645 179.475 15.6457C176.769 13.4269 173.379 12.2107 169.88 12.2025H92.2205C85.073 12.2025 78.8264 17.3137 77.3656 24.3837L73.1302 45.7544C72.681 47.9482 72.7271 50.2145 73.2651 52.3882C73.803 54.5619 74.8193 56.5881 76.2399 58.3192C77.6596 60.0617 79.4504 61.4654 81.4817 62.4277C83.513 63.3901 85.7335 63.8868 87.9812 63.8818H95.9521C94.2928 65.9476 92.7816 68.1282 91.43 70.4073C88.0908 70.775 84.8847 71.9218 82.0698 73.7553C77.459 76.8409 72.0345 78.4852 66.4864 78.479H56.9422C56.1745 78.4987 55.4448 78.8175 54.9088 79.3675C54.3728 79.9174 54.0728 80.6551 54.0728 81.423C54.0728 82.191 54.3728 82.9286 54.9088 83.4786C55.4448 84.0286 56.1745 84.3474 56.9422 84.3671H66.4884C73.2212 84.3671 79.7409 82.3908 85.3152 78.6708C86.1105 78.1625 86.9495 77.7262 87.8223 77.3669C84.916 84.2374 83.4223 91.6226 83.43 99.0825C83.43 129.916 108.515 155.001 139.349 155.001C170.182 155.001 195.267 129.916 195.267 99.0825C195.262 91.1483 193.556 83.3073 190.264 76.0881H206.057ZM80.7969 54.5972C79.929 53.5385 79.3084 52.2995 78.9803 50.9705C78.6521 49.6414 78.6247 48.2559 78.9001 46.915L83.1355 25.552C84.0287 21.2274 87.8514 18.0887 92.2205 18.0887H169.878C172.018 18.0934 174.09 18.8367 175.745 20.193C177.4 21.5493 178.536 23.4355 178.961 25.5326L183.241 46.9266C183.495 48.1508 183.495 49.4143 183.239 50.6383C182.984 51.8623 182.479 53.0206 181.757 54.0411C180.524 55.7664 178.736 57.0155 176.692 57.579C173.882 55.045 170.822 52.8016 167.561 50.883C169.471 49.3272 171.011 47.3662 172.071 45.1418C173.13 42.9175 173.681 40.4855 173.685 38.0218C173.685 28.8264 166.204 21.3437 157.007 21.3437C147.812 21.3437 140.329 28.8264 140.329 38.0218C140.329 39.8372 140.631 41.5888 141.179 43.255C140.567 43.2356 139.967 43.162 139.349 43.162C132.218 43.162 125.422 44.5551 119.144 46.9983C120.873 44.3294 121.796 41.219 121.802 38.0392C121.802 28.8438 114.32 21.3611 105.124 21.3611C95.9269 21.3611 88.4462 28.8438 88.4462 38.0392C88.4462 47.2347 95.9269 54.7173 105.124 54.7173C105.25 54.7173 102.811 56.8312 101.548 57.9956H87.9831C86.6078 58.0005 85.2487 57.6978 84.0053 57.1098C82.762 56.5219 81.6658 55.6634 80.7969 54.5972ZM147.992 43.9041C146.834 42.1613 146.216 40.1159 146.215 38.0237C146.218 35.1625 147.356 32.4193 149.379 30.3961C151.403 28.3729 154.146 27.2349 157.007 27.2318C159.868 27.2344 162.612 28.3722 164.635 30.3955C166.659 32.4188 167.796 35.1623 167.799 38.0237C167.798 40.0793 167.206 42.0912 166.094 43.8198C164.981 45.5483 163.396 46.9207 161.525 47.7733C157.196 45.915 152.649 44.6149 147.992 43.9041ZM105.122 48.8351C99.1703 48.8351 94.3304 43.9951 94.3304 38.0431C94.3304 32.0911 99.1703 27.2512 105.122 27.2512C111.072 27.2512 115.914 32.0911 115.914 38.0431C115.914 43.9951 111.072 48.8351 105.122 48.8351ZM139.349 149.115C111.76 149.115 89.3161 126.671 89.3161 99.0825C89.3161 85.2874 94.931 72.7788 103.991 63.719C104.87 63.4575 113.738 50.3754 139.349 49.0501C166.9 47.6261 189.381 71.4943 189.381 99.0825C189.381 126.671 166.935 149.115 139.349 149.115Z" fill="#03152e"/>
<path d="M124.96 28.123H137.167C137.947 28.123 138.696 27.8129 139.248 27.261C139.8 26.709 140.11 25.9605 140.11 25.1799C140.11 24.3993 139.8 23.6508 139.248 23.0988C138.696 22.5469 137.947 22.2368 137.167 22.2368H124.96C124.18 22.2368 123.431 22.5469 122.879 23.0988C122.327 23.6508 122.017 24.3993 122.017 25.1799C122.017 25.9605 122.327 26.709 122.879 27.261C123.431 27.8129 124.18 28.123 124.96 28.123ZM134.117 31.3935H128.012C127.231 31.3935 126.483 31.7036 125.931 32.2555C125.379 32.8074 125.069 33.556 125.069 34.3366C125.069 35.1171 125.379 35.8657 125.931 36.4177C126.483 36.9696 127.231 37.2797 128.012 37.2797H134.117C134.898 37.2797 135.646 36.9696 136.198 36.4177C136.75 35.8657 137.06 35.1171 137.06 34.3366C137.06 33.556 136.75 32.8074 136.198 32.2555C135.646 31.7036 134.898 31.3935 134.117 31.3935ZM168.595 71.5562C161.256 63.7616 150.874 58.8616 139.348 58.8616C128.86 58.8616 119.328 62.9304 112.159 69.5315C112.082 69.5935 111.863 69.7911 111.822 69.8376C104.027 77.1769 99.1255 87.5581 99.1255 99.0824C99.1255 121.261 117.171 139.303 139.346 139.303C161.527 139.303 179.567 121.259 179.567 99.0824C179.567 88.5908 175.498 79.0563 168.895 71.8875C168.8 71.7731 168.699 71.6626 168.595 71.5562ZM162.463 73.7688L149.929 86.3026C147.042 83.9078 143.384 82.4082 139.346 82.4082C136.322 82.4082 133.526 83.2781 131.077 84.6906L118.359 71.9728C124.17 67.4642 131.441 64.7497 139.348 64.7497C148.255 64.7478 156.354 68.1849 162.463 73.7688ZM139.348 109.874C133.398 109.874 128.556 105.034 128.556 99.0824C128.556 93.1304 133.398 88.2905 139.348 88.2905C145.3 88.2905 150.14 93.1304 150.14 99.0824C150.14 105.034 145.298 109.874 139.348 109.874ZM105.012 99.0824C105.012 90.1737 108.451 82.0749 114.033 75.9679L126.568 88.5017C124.172 91.3905 122.672 95.0466 122.672 99.0844C122.672 107.272 128.616 114.065 136.407 115.464V133.27C118.847 131.768 105.012 117.022 105.012 99.0824ZM142.291 133.27V115.464C150.084 114.065 156.026 107.27 156.026 99.0844C156.026 96.0599 155.156 93.2621 153.744 90.8131L166.462 78.0953C170.97 83.9059 173.683 91.1774 173.683 99.0844C173.683 117.022 159.849 131.768 142.291 133.27Z" fill="#03152e"/>
</svg>
