<svg xmlns="http://www.w3.org/2000/svg" version="1.1" xmlns:xlink="http://www.w3.org/1999/xlink" xmlns:svgjs="http://svgjs.com/svgjs" width="512" height="512" x="0" y="0" viewBox="0 0 512 512" style="enable-background:new 0 0 512 512" xml:space="preserve" fill-rule="evenodd" class=""><g><path d="M290.98 66.49H145.11c-2.76 0-5-2.24-5-5V30.65c0-2.76 2.24-5 5-5h145.87c2.77 0 5 2.24 5 5v30.84c0 2.76-2.23 5-5 5zm-140.87-10h135.87V35.65H150.11zM303.55 250.61H196.7c-2.76 0-5-2.24-5-5s2.24-5 5-5h106.85c2.76 0 5 2.24 5 5s-2.24 5-5 5zM303.55 287.97H196.7c-2.76 0-5-2.24-5-5s2.24-5 5-5h106.85c2.76 0 5 2.24 5 5s-2.24 5-5 5zM303.55 175.89H196.7c-2.76 0-5-2.24-5-5s2.24-5 5-5h106.85c2.76 0 5 2.24 5 5s-2.24 5-5 5zM303.55 213.25H196.7c-2.76 0-5-2.24-5-5s2.24-5 5-5h106.85c2.76 0 5 2.24 5 5s-2.24 5-5 5zM303.55 101.17H196.7c-2.76 0-5-2.23-5-5 0-2.76 2.24-5 5-5h106.85c2.76 0 5 2.24 5 5 0 2.77-2.24 5-5 5zM303.55 138.53H196.7c-2.76 0-5-2.24-5-5s2.24-5 5-5h106.85c2.76 0 5 2.24 5 5s-2.24 5-5 5zM169.55 138.35h-37.01c-2.76 0-5-2.23-5-4.99V96.35c0-2.76 2.24-5 5-5h37.01c2.76 0 5 2.24 5 5v37c0 2.77-2.24 5-5 5zm-32.01-9.99h27.01v-27.01h-27.01zM169.55 213.07h-37.01c-2.76 0-5-2.24-5-5v-37c0-2.76 2.24-5 5-5h37.01c2.76 0 5 2.24 5 5v37c0 2.76-2.24 5-5 5zm-32.01-10h27.01v-27h-27.01zM169.55 287.79h-37.01c-2.76 0-5-2.24-5-5v-37c0-2.76 2.24-5 5-5h37.01c2.76 0 5 2.24 5 5v37c0 2.76-2.24 5-5 5zm-32.01-10h27.01v-27h-27.01z" fill="#8a8a9a" data-original="#000000" opacity="1" class=""></path><path d="M312.93 313.62H123.17c-14.17 0-25.7-11.53-25.7-25.7V25.71c0-14.17 11.53-25.7 25.7-25.7h189.76c14.17 0 25.7 11.53 25.7 25.7v262.21c0 14.17-11.53 25.7-25.7 25.7zM123.17 10.01c-8.66 0-15.7 7.04-15.7 15.7v262.21c0 8.65 7.04 15.7 15.7 15.7h189.76c8.65 0 15.7-7.05 15.7-15.7V25.71c0-8.66-7.05-15.7-15.7-15.7H123.17z" fill="#8a8a9a" data-original="#000000" opacity="1" class=""></path><path d="M478.74 422.96H33.26c-11.25 0-20.4-9.15-20.4-20.4V97.01c0-11.25 9.15-20.4 20.4-20.4h69.21c2.76 0 5 2.24 5 5s-2.24 5-5 5H33.26c-5.74 0-10.41 4.67-10.41 10.4v305.55c0 5.73 4.67 10.4 10.41 10.4h445.48c5.74 0 10.4-4.67 10.4-10.4V97.01c0-5.73-4.66-10.4-10.4-10.4H333.63c-2.77 0-5-2.24-5-5s2.23-5 5-5h145.11c11.25 0 20.4 9.15 20.4 20.4v305.55c0 11.25-9.15 20.4-20.4 20.4z" fill="#8a8a9a" data-original="#000000" opacity="1" class=""></path><path d="M494.15 373.82H17.86c-2.77 0-5-2.24-5-5s2.23-5 5-5h476.29c2.76 0 4.99 2.24 4.99 5s-2.23 5-4.99 5zM211.2 484.74c-.78 0-1.57-.19-2.31-.57a5.001 5.001 0 0 1-2.12-6.75c15.45-29.55 15.98-59.22 15.99-59.52a4.996 4.996 0 0 1 5-4.94h.06c2.76.03 4.97 2.3 4.94 5.06-.02 1.31-.58 32.39-17.13 64.04a5 5 0 0 1-4.43 2.68zM300.8 484.74c-1.8 0-3.54-.98-4.44-2.69-16.55-31.64-17.1-62.72-17.12-64.03a5.002 5.002 0 0 1 4.94-5.06h.06c2.74 0 4.97 2.2 5 4.94.01.29.59 30.08 15.98 59.52a4.998 4.998 0 0 1-4.42 7.32z" fill="#8a8a9a" data-original="#000000" opacity="1" class=""></path><path d="M318.65 511.99h-125.3c-10.27 0-18.62-8.35-18.62-18.63 0-10.27 8.35-18.62 18.62-18.62h125.3c10.27 0 18.62 8.35 18.62 18.62 0 10.28-8.35 18.63-18.62 18.63zm-125.3-27.25c-4.75 0-8.63 3.87-8.63 8.62 0 4.76 3.88 8.63 8.63 8.63h125.3c4.75 0 8.62-3.87 8.62-8.63 0-4.75-3.87-8.62-8.62-8.62zM447 319.54c-1.27 0-2.56-.49-3.53-1.47l-44.38-44.38-9.82 29.78a5.01 5.01 0 0 1-4.74 3.43h-.01a5 5 0 0 1-4.74-3.42l-37.69-113.06c-.6-1.79-.14-3.77 1.2-5.12a5.018 5.018 0 0 1 5.12-1.2l113.06 37.69c2.05.68 3.43 2.59 3.42 4.75a5.01 5.01 0 0 1-3.43 4.74l-29.78 9.82 44.38 44.38c.94.94 1.47 2.21 1.47 3.53 0 1.33-.53 2.6-1.47 3.54l-25.52 25.52a4.99 4.99 0 0 1-3.54 1.47zm-50.12-60.13c1.31 0 2.59.52 3.54 1.47L447 307.47l18.45-18.45-46.58-46.59a4.995 4.995 0 0 1 1.97-8.28l23.16-7.64-89.26-29.76 29.75 89.27 7.64-23.17a5.02 5.02 0 0 1 4.75-3.44z" fill="#8a8a9a" data-original="#000000" opacity="1" class=""></path></g></svg>
