<svg xmlns="http://www.w3.org/2000/svg" version="1.1" xmlns:xlink="http://www.w3.org/1999/xlink" xmlns:svgjs="http://svgjs.com/svgjs" width="512" height="512" x="0" y="0" viewBox="0 0 24 24" style="enable-background:new 0 0 512 512" xml:space="preserve" class=""><g><g fill="#fac14c" fill-rule="nonzero"><path d="M17.5 3A5.5 5.5 0 0 1 23 8.5c0 2.244-1.168 4.414-2.911 4.833-.673.162-1.208 1.025-1.093 2.01.154 1.318 1.346 2.65 3.707 3.7.526.234.306 1.025-.265.953C16.285 19.226 12.02 15.215 12 9.54 12 5.637 14.306 3 17.5 3zM5.5 3A5.5 5.5 0 0 1 11 8.5c0 2.244-1.168 4.414-2.911 4.833-.673.162-1.208 1.025-1.093 2.01.154 1.318 1.346 2.65 3.707 3.7.526.234.306 1.025-.265.953C4.285 19.226.02 15.215 0 9.54 0 5.637 2.306 3 5.5 3z" fill="#f4ca59" data-original="#fac14c" class="" opacity="1"></path></g></g></svg>
