<svg xmlns="http://www.w3.org/2000/svg" version="1.1" xmlns:xlink="http://www.w3.org/1999/xlink" xmlns:svgjs="http://svgjs.com/svgjs" width="512" height="512" x="0" y="0" viewBox="0 0 8.467 8.467" style="enable-background:new 0 0 512 512" xml:space="preserve"><g><path d="M.207.127a.066.066 0 0 0-.015.001.066.066 0 0 0-.052.078 4.174 4.174 0 0 0 4.068 3.366h.002a.066.066 0 0 0 .023.005.066.066 0 0 0 .001 0 .066.066 0 0 0 .021-.004A4.175 4.175 0 0 0 8.328.206a.066.066 0 0 0-.052-.078.066.066 0 0 0-.078.053 4.044 4.044 0 0 1-3.963 3.264A4.044 4.044 0 0 1 .27.18.066.066 0 0 0 .207.127zM4.233 3.893a.066.066 0 0 0-.066.066v4.314a.066.066 0 0 0 .066.066.066.066 0 0 0 .067-.066V3.96a.066.066 0 0 0-.067-.066zM6.464 3.295a.066.066 0 0 0-.035.009.066.066 0 0 0-.024.09l1.147 1.987a.066.066 0 0 0 .09.025.066.066 0 0 0 .024-.09L6.52 3.327a.066.066 0 0 0-.055-.033zM5.385 3.74a.066.066 0 0 0-.015.003.066.066 0 0 0-.047.08l.78 2.907a.066.066 0 0 0 .08.047.066.066 0 0 0 .047-.081L5.45 3.79a.066.066 0 0 0-.065-.05zm.935 3.491a.066.066 0 0 0-.015.003.066.066 0 0 0-.046.08l.181.678a.066.066 0 0 0 .08.047.066.066 0 0 0 .048-.082l-.182-.676a.066.066 0 0 0-.066-.05zM7.382 2.587a.066.066 0 0 0-.044.02.066.066 0 0 0 0 .093l.913.913a.066.066 0 0 0 .093 0 .066.066 0 0 0 0-.094l-.912-.913a.066.066 0 0 0-.05-.019zM8.095 1.664a.066.066 0 0 0-.059.033.066.066 0 0 0 .024.09l.259.15a.066.066 0 0 0 .09-.025.066.066 0 0 0-.024-.09l-.259-.15a.066.066 0 0 0-.031-.008zM2.006 3.295a.066.066 0 0 0-.059.033L.8 5.315a.066.066 0 0 0 .024.09.066.066 0 0 0 .09-.024l1.148-1.987a.066.066 0 0 0-.024-.09.066.066 0 0 0-.032-.009zM3.075 3.74a.066.066 0 0 0-.06.05l-.778 2.906a.066.066 0 0 0 .047.081.066.066 0 0 0 .08-.047l.78-2.906a.066.066 0 0 0-.047-.081.066.066 0 0 0-.022-.002zM2.14 7.233a.066.066 0 0 0-.06.049l-.18.676a.066.066 0 0 0 .046.082.066.066 0 0 0 .08-.047l.182-.677a.066.066 0 0 0-.047-.081.066.066 0 0 0-.021-.002zM1.078 2.587a.066.066 0 0 0-.043.02l-.912.912a.066.066 0 0 0 0 .094.066.066 0 0 0 .093 0l.912-.913a.066.066 0 0 0 0-.094.066.066 0 0 0-.05-.019zM.376 1.664a.066.066 0 0 0-.036.009l-.259.15a.066.066 0 0 0-.024.09.066.066 0 0 0 .09.024l.26-.15a.066.066 0 0 0 .024-.09.066.066 0 0 0-.055-.033z" fill="#8a8a9a" data-original="#000000" opacity="1"></path></g></svg>
