<svg xmlns="http://www.w3.org/2000/svg" version="1.1" xmlns:xlink="http://www.w3.org/1999/xlink" xmlns:svgjs="http://svgjs.com/svgjs" width="512" height="512" x="0" y="0" viewBox="0 0 32 32" style="enable-background:new 0 0 512 512" xml:space="preserve"><g><path d="M16 1C7.729 1 1 7.729 1 16c0 2.91.834 5.716 2.418 8.152l-2.337 5.454a1 1 0 0 0 1.313 1.313l5.454-2.338A14.879 14.879 0 0 0 16 31c8.271 0 15-6.729 15-15S24.271 1 16 1zm7.7 20.37s-1.248 1.599-2.15 1.973c-2.29.948-5.525 0-9.21-3.684-3.683-3.684-4.632-6.919-3.683-9.21.374-.902 1.974-2.148 1.974-2.148a1.165 1.165 0 0 1 1.496.093l1.81 1.81a1.003 1.003 0 0 1 0 1.413L12.8 12.752s-.46 1.38 2.303 4.144c2.762 2.763 4.144 2.303 4.144 2.303l1.135-1.136a1.003 1.003 0 0 1 1.414 0l1.81 1.81c.388.389.43 1.062.092 1.496z" fill="#f4ca59" data-original="#000000" opacity="1"></path></g></svg>
