<svg xmlns="http://www.w3.org/2000/svg" version="1.1" xmlns:xlink="http://www.w3.org/1999/xlink" xmlns:svgjs="http://svgjs.com/svgjs" width="512" height="512" x="0" y="0" viewBox="0 0 242.667 242.667" style="enable-background:new 0 0 512 512" xml:space="preserve"><g><path d="M127.675 58.313h13.771v68.831h-10.713c-6.123 0-12.036-2.632-15.85-7.422-3.961-4.976-7.406-13.253-7.406-26.993 0-30.096 17.301-33.983 19.691-34.376.17-.029.336-.04.507-.04zM242.667 0v242.667H0V0h242.667zm-84.683 45.5h-28.493c-18.136 0-39.742 19.07-39.742 50.059s27.115 43.504 27.115 43.504l-32.181 58.104h20.262l25.626-56.614h11.323v56.614h16.09V45.5z" fill="#f4ca59" data-original="#000000" opacity="1"></path></g></svg>
