<svg width="150" height="91" viewBox="0 0 150 91" fill="none" xmlns="http://www.w3.org/2000/svg">
<path fill-rule="evenodd" clip-rule="evenodd" d="M63.0485 25.1152H9.26674C9.26674 25.1152 3.91982 31.8292 2.07852 36.8935C0.618888 40.9081 0 47.6326 0 47.6326H63.0485H86.9515H150C150 47.6326 149.381 40.9081 147.921 36.8935C146.08 31.8292 140.733 25.1152 140.733 25.1152H86.9515H63.0485Z" fill="#ED2B54"/>
<path d="M126.097 51.1836C126.097 44.4621 124.773 37.8064 122.201 31.5965C119.629 25.3866 115.859 19.7442 111.106 14.9913C106.353 10.2385 100.71 6.46834 94.5005 3.89612C88.2906 1.3239 81.6349 -2.93807e-07 74.9134 0C68.1919 2.93807e-07 61.5362 1.3239 55.3263 3.89612C49.1164 6.46834 43.474 10.2385 38.7211 14.9913C33.9683 19.7442 30.1981 25.3866 27.6259 31.5965C25.0537 37.8064 23.7298 44.4621 23.7298 51.1836L74.9134 51.1836H126.097Z" fill="white"/>
<path d="M117.61 49.0179C117.61 43.4223 116.508 37.8815 114.366 32.7119C112.225 27.5422 109.086 22.845 105.13 18.8883C101.173 14.9316 96.4757 11.793 91.306 9.65167C86.1364 7.51034 80.5956 6.4082 75 6.4082C69.4044 6.4082 63.8636 7.51034 58.694 9.65167C53.5243 11.793 48.8271 14.9316 44.8704 18.8883C40.9137 22.845 37.7751 27.5422 35.6338 32.7119C33.4925 37.8815 32.3903 43.4223 32.3903 49.0179L75 49.0179H117.61Z" fill="#0065B2"/>
<path d="M27.3164 60.3127H19.3128V75.0349H10.2552V60.3127H2.25171V55.1016H27.3164V60.3127Z" fill="#ED2B54"/>
<path d="M43.8724 75.4905C40.9313 75.4905 38.2895 75.0444 35.947 74.1521C33.6045 73.2599 31.7695 72.0259 30.4421 70.4502C29.1147 68.8556 28.451 67.0616 28.451 65.0682C28.451 63.0749 29.1147 61.2904 30.4421 59.7147C31.7695 58.1201 33.6045 56.8766 35.947 55.9844C38.2895 55.0921 40.9313 54.646 43.8724 54.646C46.8135 54.646 49.4553 55.0921 51.7978 55.9844C54.1403 56.8766 55.9753 58.1201 57.3027 59.7147C58.6301 61.2904 59.2938 63.0749 59.2938 65.0682C59.2938 67.0616 58.6301 68.8556 57.3027 70.4502C55.9753 72.0259 54.1403 73.2599 51.7978 74.1521C49.4553 75.0444 46.8135 75.4905 43.8724 75.4905ZM43.8724 70.0516C45.0176 70.0516 46.0457 69.8522 46.9567 69.4536C47.8937 69.0359 48.6355 68.4569 49.182 67.7165C49.7286 66.9572 50.0019 66.0744 50.0019 65.0682C50.0019 64.0621 49.7286 63.1888 49.182 62.4484C48.6355 61.6891 47.8937 61.1101 46.9567 60.7114C46.0457 60.2937 45.0176 60.0849 43.8724 60.0849C42.7272 60.0849 41.6861 60.2937 40.7491 60.7114C39.8381 61.1101 39.1093 61.6891 38.5627 62.4484C38.0162 63.1888 37.7429 64.0621 37.7429 65.0682C37.7429 66.0744 38.0162 66.9572 38.5627 67.7165C39.1093 68.4569 39.8381 69.0359 40.7491 69.4536C41.6861 69.8522 42.7272 70.0516 43.8724 70.0516Z" fill="#ED2B54"/>
<path d="M89.041 55.1016V75.0349H79.9833V60.3127H71.6675V75.0349H62.6099V55.1016H89.041Z" fill="#ED2B54"/>
<path d="M113.16 71.5608H102.775L100.94 75.0349H91.5701L103.517 55.1016H112.574L124.521 75.0349H114.995L113.16 71.5608ZM110.622 66.7199L107.968 61.7081L105.313 66.7199H110.622Z" fill="#ED2B54"/>
<path d="M145.354 64.6696C146.812 65.1062 147.944 65.7422 148.751 66.5775C149.584 67.4128 150 68.362 150 69.4251C150 70.678 149.388 71.7696 148.165 72.6998C146.968 73.6111 145.341 74.3135 143.285 74.8071C141.255 75.2817 138.99 75.519 136.492 75.519C132.509 75.519 128.722 74.94 125.131 73.7819L127.824 69.1403C129.1 69.52 130.427 69.8143 131.807 70.0231C133.186 70.2129 134.488 70.3078 135.711 70.3078C137.194 70.3078 138.392 70.156 139.303 69.8522C140.24 69.5485 140.708 69.1024 140.708 68.5138C140.708 67.7165 139.81 67.3179 138.014 67.3179H130.635V62.4769H137.233C138.014 62.4769 138.6 62.3725 138.99 62.1637C139.407 61.9548 139.615 61.6606 139.615 61.2809C139.615 60.7873 139.251 60.4076 138.522 60.1419C137.819 59.8761 136.882 59.7432 135.711 59.7432C134.618 59.7432 133.433 59.8571 132.158 60.0849C130.883 60.3127 129.672 60.6355 128.527 61.0531L125.833 56.0698C128.853 55.0636 132.132 54.5605 135.672 54.5605C138.04 54.5605 140.227 54.7978 142.231 55.2725C144.261 55.7471 145.875 56.44 147.072 57.3512C148.295 58.2435 148.907 59.2971 148.907 60.5121C148.907 61.4043 148.594 62.2111 147.97 62.9325C147.345 63.6539 146.473 64.2329 145.354 64.6696Z" fill="#ED2B54"/>
<path d="M32.5072 88.5539H28.8481L28.1501 90.2427H26.2811L29.7938 82.3617H31.5952L35.1192 90.2427H33.2052L32.5072 88.5539ZM31.933 87.1691L30.6833 84.1518L29.4336 87.1691H31.933Z" fill="#0065B2"/>
<path d="M43.9328 86.1333C44.4131 86.2759 44.7809 86.5086 45.0361 86.8314C45.2913 87.1541 45.4189 87.5519 45.4189 88.0248C45.4189 88.7228 45.1525 89.267 44.6196 89.6573C44.0941 90.0476 43.3398 90.2427 42.3566 90.2427H38.4723V82.3617H42.1426C43.0583 82.3617 43.7714 82.5381 44.2818 82.8908C44.7922 83.2436 45.0474 83.7465 45.0474 84.3995C45.0474 84.7898 44.9498 85.135 44.7547 85.4353C44.5595 85.728 44.2855 85.9607 43.9328 86.1333ZM40.285 85.6267H41.985C42.3828 85.6267 42.6831 85.5479 42.8857 85.3902C43.0884 85.2251 43.1897 84.9849 43.1897 84.6697C43.1897 84.362 43.0846 84.1255 42.8745 83.9604C42.6718 83.7953 42.3753 83.7127 41.985 83.7127H40.285V85.6267ZM42.289 88.8917C43.1447 88.8917 43.5725 88.5539 43.5725 87.8784C43.5725 87.2254 43.1447 86.8989 42.289 86.8989H40.285V88.8917H42.289Z" fill="#0065B2"/>
<path d="M55.0828 83.8478H52.5609V90.2427H50.7595V83.8478H48.2488V82.3617H55.0828V83.8478Z" fill="#0065B2"/>
<path d="M62.1865 90.3778C61.3684 90.3778 60.629 90.2014 59.9685 89.8487C59.3155 89.4959 58.8014 89.0118 58.4261 88.3963C58.0583 87.7733 57.8744 87.0753 57.8744 86.3022C57.8744 85.5291 58.0583 84.8348 58.4261 84.2193C58.8014 83.5964 59.3155 83.1085 59.9685 82.7557C60.629 82.4029 61.3684 82.2266 62.1865 82.2266C63.0046 82.2266 63.7402 82.4029 64.3932 82.7557C65.0462 83.1085 65.5603 83.5964 65.9356 84.2193C66.3109 84.8348 66.4986 85.5291 66.4986 86.3022C66.4986 87.0753 66.3109 87.7733 65.9356 88.3963C65.5603 89.0118 65.0462 89.4959 64.3932 89.8487C63.7402 90.2014 63.0046 90.3778 62.1865 90.3778ZM62.1865 88.8241C62.6519 88.8241 63.0722 88.7191 63.4475 88.5089C63.8228 88.2912 64.1155 87.991 64.3256 87.6082C64.5433 87.2254 64.6521 86.7901 64.6521 86.3022C64.6521 85.8143 64.5433 85.379 64.3256 84.9962C64.1155 84.6134 63.8228 84.3169 63.4475 84.1068C63.0722 83.8891 62.6519 83.7803 62.1865 83.7803C61.7211 83.7803 61.3008 83.8891 60.9255 84.1068C60.5502 84.3169 60.2538 84.6134 60.0361 84.9962C59.8259 85.379 59.7208 85.8143 59.7208 86.3022C59.7208 86.7901 59.8259 87.2254 60.0361 87.6082C60.2538 87.991 60.5502 88.2912 60.9255 88.5089C61.3008 88.7191 61.7211 88.8241 62.1865 88.8241Z" fill="#0065B2"/>
<path d="M80.6146 82.3617V90.2427H70.2116V82.3617H72.0243V88.7566H74.5124V82.3617H76.3251V88.7566H78.802V82.3617H80.6146Z" fill="#0065B2"/>
<path d="M87.9289 87.0678H86.6679V90.2427H84.8553V82.3617H86.6679V85.5479H87.9739L90.0455 82.3617H91.9708L89.3925 86.1671L92.0496 90.2427H89.978L87.9289 87.0678Z" fill="#0065B2"/>
<path d="M98.9394 90.3778C98.1213 90.3778 97.382 90.2014 96.7215 89.8487C96.0685 89.4959 95.5543 89.0118 95.179 88.3963C94.8112 87.7733 94.6274 87.0753 94.6274 86.3022C94.6274 85.5291 94.8112 84.8348 95.179 84.2193C95.5543 83.5964 96.0685 83.1085 96.7215 82.7557C97.382 82.4029 98.1213 82.2266 98.9394 82.2266C99.7576 82.2266 100.493 82.4029 101.146 82.7557C101.799 83.1085 102.313 83.5964 102.689 84.2193C103.064 84.8348 103.251 85.5291 103.251 86.3022C103.251 87.0753 103.064 87.7733 102.689 88.3963C102.313 89.0118 101.799 89.4959 101.146 89.8487C100.493 90.2014 99.7576 90.3778 98.9394 90.3778ZM98.9394 88.8241C99.4048 88.8241 99.8251 88.7191 100.2 88.5089C100.576 88.2912 100.868 87.991 101.079 87.6082C101.296 87.2254 101.405 86.7901 101.405 86.3022C101.405 85.8143 101.296 85.379 101.079 84.9962C100.868 84.6134 100.576 84.3169 100.2 84.1068C99.8251 83.8891 99.4048 83.7803 98.9394 83.7803C98.4741 83.7803 98.0537 83.8891 97.6785 84.1068C97.3032 84.3169 97.0067 84.6134 96.789 84.9962C96.5789 85.379 96.4738 85.8143 96.4738 86.3022C96.4738 86.7901 96.5789 87.2254 96.789 87.6082C97.0067 87.991 97.3032 88.2912 97.6785 88.5089C98.0537 88.7191 98.4741 88.8241 98.9394 88.8241Z" fill="#0065B2"/>
<path d="M113.77 82.3617V90.2427H111.969V83.8478H109.267L109.21 85.4916C109.173 86.6099 109.083 87.5181 108.94 88.2162C108.797 88.9067 108.557 89.4396 108.22 89.8149C107.889 90.1827 107.424 90.3666 106.823 90.3666C106.576 90.3666 106.276 90.3253 105.923 90.2427L106.035 88.7003C106.133 88.7303 106.242 88.7453 106.362 88.7453C106.797 88.7453 107.101 88.4901 107.274 87.9797C107.446 87.4618 107.555 86.655 107.6 85.5591L107.713 82.3617H113.77Z" fill="#0065B2"/>
<path d="M123.383 88.5539H119.724L119.026 90.2427H117.157L120.67 82.3617H122.471L125.995 90.2427H124.081L123.383 88.5539ZM122.809 87.1691L121.559 84.1518L120.309 87.1691H122.809Z" fill="#0065B2"/>
<path d="M57.1199 45.03C57.1199 49.384 53.5904 52.9136 49.2364 52.9136C44.8824 52.9136 41.3528 49.384 41.3528 45.03C41.3528 40.6761 44.8824 37.1465 49.2364 37.1465C53.5904 37.1465 57.1199 40.6761 57.1199 45.03Z" fill="#0065B2"/>
<path fill-rule="evenodd" clip-rule="evenodd" d="M49.2364 49.318C51.6043 49.318 53.5239 47.3984 53.5239 45.0305C53.5239 42.6625 51.6043 40.7429 49.2364 40.7429C46.8684 40.7429 44.9488 42.6625 44.9488 45.0305C44.9488 47.3984 46.8684 49.318 49.2364 49.318ZM49.2364 50.1479C52.0626 50.1479 54.3537 47.8567 54.3537 45.0305C54.3537 42.2042 52.0626 39.9131 49.2364 39.9131C46.4101 39.9131 44.119 42.2042 44.119 45.0305C44.119 47.8567 46.4101 50.1479 49.2364 50.1479Z" fill="white"/>
<path d="M107.464 45.03C107.464 49.384 103.934 52.9136 99.5805 52.9136C95.2265 52.9136 91.6969 49.384 91.6969 45.03C91.6969 40.6761 95.2265 37.1465 99.5805 37.1465C103.934 37.1465 107.464 40.6761 107.464 45.03Z" fill="#0065B2"/>
<path fill-rule="evenodd" clip-rule="evenodd" d="M99.5805 49.318C101.948 49.318 103.868 47.3984 103.868 45.0305C103.868 42.6625 101.948 40.7429 99.5805 40.7429C97.2125 40.7429 95.2929 42.6625 95.2929 45.0305C95.2929 47.3984 97.2125 49.318 99.5805 49.318ZM99.5805 50.1479C102.407 50.1479 104.698 47.8567 104.698 45.0305C104.698 42.2042 102.407 39.9131 99.5805 39.9131C96.7542 39.9131 94.4631 42.2042 94.4631 45.0305C94.4631 47.8567 96.7542 50.1479 99.5805 50.1479Z" fill="white"/>
<path fill-rule="evenodd" clip-rule="evenodd" d="M39.1399 38.2531C39.1399 37.1006 39.2229 34.6571 39.5548 34.1039C39.8338 33.6389 41.3632 32.6738 42.4195 32.0072C42.9343 31.6823 43.3368 31.4284 43.4274 31.3377C43.542 31.2231 44.3685 30.2068 45.3368 29.0161C46.7061 27.3323 48.3591 25.2996 48.6831 24.9756C49.2364 24.4223 53.5239 23.1776 54.907 23.1776C56.0135 23.1776 55.368 23.6386 54.907 23.8691C56.6128 23.5003 60.467 22.735 62.2373 22.6243C62.3025 22.6202 62.3711 22.6159 62.443 22.6114C64.8145 22.4624 70.784 22.0874 74.4084 22.6243C78.1427 23.1776 83.1218 24.5606 86.1646 25.9437C87.7191 26.6503 89.5985 28.0789 91.3602 29.418C93.0468 30.7 94.6255 31.9 95.7078 32.3059C97.0922 32.825 99.0719 33.1817 100.902 33.5116C101.998 33.709 103.039 33.8967 103.868 34.1039C106.081 34.6571 110.23 36.3168 110.922 37.285C111.613 38.2531 112.581 39.9128 112.581 40.6043C112.581 40.9567 112.469 40.8602 112.209 40.6365C112.061 40.5089 111.864 40.3401 111.613 40.1894L111.613 40.1894C110.922 39.9128 110.23 39.6362 109.4 39.3596C109.224 39.3009 109.019 39.2399 108.798 39.1741C108.058 38.9538 107.135 38.6791 106.496 38.2531C106.258 38.0945 105.995 37.9786 105.705 37.8505C105.186 37.6212 104.578 37.353 103.868 36.7317C103.706 36.5292 103.591 36.3741 103.496 36.2456C103.267 35.9354 103.153 35.7803 102.762 35.487C101.978 34.8993 101.749 34.8707 100.757 34.7468C100.369 34.6983 99.865 34.6354 99.1655 34.5188C98.5376 34.4141 98.0681 34.3447 97.7014 34.2904C96.6144 34.1297 96.4318 34.1026 95.7078 33.6889C94.9333 33.2464 93.541 32.5825 92.9417 32.3059C92.9417 31.9832 92.7204 31.3377 91.8352 31.3377C90.95 31.3377 79.4797 30.8767 73.8552 30.6462H62.2373C60.301 30.7384 56.1241 31.0058 54.907 31.3377C53.026 31.6697 50.435 32.4903 49.3747 32.8591L48.6831 33.6889C47.7611 33.8734 45.668 34.4911 44.6722 35.487C43.6764 36.4828 42.9664 37.3772 42.7359 37.6999H41.0762C39.8591 37.6999 39.2782 38.0687 39.1399 38.2531ZM53.109 29.4013C53.3856 28.8481 53.9388 28.0183 54.4921 27.3268C54.8831 26.8381 55.7369 26.0819 56.705 25.5288C58.0066 24.8779 59.3816 24.6682 60.7379 24.4613C60.8229 24.4484 60.9078 24.4354 60.9926 24.4224C62.7906 24.1458 65.695 23.8691 68.7378 23.7308C71.7806 23.5925 75.9298 24.0074 77.7278 24.4224C79.5258 24.8373 82.9835 25.9435 84.9198 26.6352C86.4689 27.1885 89.4379 29.0787 90.7288 29.9546L91.4203 30.5078L86.9944 30.2312C86.5083 30.1826 85.9879 30.1169 85.4273 30.0461C84.3932 29.9155 83.2224 29.7676 81.8771 29.678C80.5522 29.5896 74.685 29.5396 72.0572 29.5396L64.7269 29.4013H58.3647H53.109Z" fill="white"/>
<path d="M38.31 42.8181C38.3658 41.9881 38.4484 41.02 38.725 39.9136C38.725 39.9136 39.5705 39.861 40.108 39.9136C40.6562 39.9674 41.4911 40.1901 41.4911 40.1901C41.4911 40.1901 41.6884 39.7093 41.906 39.3603C42.2511 38.8069 43.1121 38.0672 43.9807 37.5623C45.2815 36.8061 45.6404 36.4851 47.5767 36.1792C49.0981 35.939 50.2437 36.0344 51.8642 36.4558C53.0801 36.772 53.7894 37.0519 54.7687 37.8389C55.8212 38.6848 56.469 39.157 56.8433 40.4669C57.1199 41.4349 57.1199 41.7115 57.1199 43.3712C57.1199 43.3712 56.4284 41.1583 54.0771 39.6369C51.7259 38.1155 51.1845 38.3653 49.513 38.2538C47.4384 38.1155 46.0173 38.6118 44.9488 39.2221C43.3514 40.1344 42.4593 41.435 41.906 42.8181C41.4635 43.9246 41.2606 46.0453 41.2145 46.9673L38.31 45.4459C38.31 44.9388 38.2413 43.842 38.31 42.8181Z" fill="white"/>
<path d="M92.5267 39.7746C92.0842 40.6598 91.9735 42.5408 91.9735 43.3706L93.2183 41.296C93.4949 40.9733 93.8268 40.4108 94.6014 39.6363C95.3759 38.8618 96.9394 37.8994 98.3357 37.7C100.272 37.4234 101.655 37.5617 103.176 38.5298C104.507 39.3764 104.974 39.9127 105.666 41.1575C105.973 41.7107 106.358 42.5405 106.496 43.2321C106.634 43.9236 106.634 44.2002 106.911 44.8918C107.181 45.5665 107.45 45.9592 108.017 46.4132C108.709 46.9664 109.376 47.0326 109.954 47.1047C111.06 47.243 111.331 47.1526 112.305 46.8281C112.72 46.6898 113.227 46.4132 113.55 46.1366C113.872 45.8599 114.241 45.5559 113.688 45.4452C113.135 45.3346 112.779 44.935 112.305 44.4771C111.572 43.7692 111.143 41.9322 110.922 42.2641C110.645 42.6791 110.23 43.7855 110.645 45.0303C110.977 46.0261 111.705 46.1829 112.028 46.1368C112.028 46.1368 110.645 46.6898 109.539 46.1366C108.432 45.5833 107.719 44.5275 107.326 42.9555C106.911 41.296 106.69 40.5621 105.528 39.0828C104.006 37.1465 101.793 36.0401 100.272 35.9018C98.7506 35.7635 96.5377 36.04 95.2929 36.7316C94.0481 37.4231 93.08 38.6682 92.5267 39.7746Z" fill="white"/>
<path fill-rule="evenodd" clip-rule="evenodd" d="M57.2582 40.0518C57.4427 40.1901 58.3647 40.605 59.0562 40.605C59.4277 40.605 60.7289 40.6206 62.4579 40.6413C65.8796 40.6823 70.9762 40.7433 73.8552 40.7433H90.1755C91.0054 40.7433 91.8352 40.3284 91.8352 40.3284C91.8352 40.3284 91.6763 41.7046 91.4203 42.2647C90.9746 43.2398 89.6223 43.9243 89.6223 43.9243C89.6223 43.9243 89.7606 44.4775 89.6223 44.8924C89.484 45.3074 61.638 44.8003 60.8542 44.6159C60.3963 44.5082 60.3791 44.3374 60.3611 44.1589C60.3483 44.0319 60.3352 43.901 60.1627 43.7861C60.0339 43.7002 59.8513 43.601 59.6436 43.4881C58.9857 43.1307 58.0744 42.6357 57.8115 41.9881C57.5843 41.4286 57.2582 40.0518 57.2582 40.0518ZM58.9179 41.988C59.0562 42.2646 60.1628 42.8173 60.8543 43.0942C61.5458 43.3711 87.6861 43.7857 88.516 43.5088C89.3459 43.232 90.0927 42.4577 90.314 42.1258H90.3027C89.2017 42.1258 69.3913 42.1258 58.9179 41.988Z" fill="white"/>
</svg>
