<svg width="866" height="522" viewBox="0 0 866 522" fill="none" xmlns="http://www.w3.org/2000/svg">
<path fill-rule="evenodd" clip-rule="evenodd" d="M364 145H53.5C53.5 145 22.6305 183.762 12 213C3.57304 236.177 0 275 0 275H364H502H866C866 275 862.427 236.177 854 213C843.37 183.762 812.5 145 812.5 145H502H364Z" fill="#ED2B54"/>
<path d="M728 295.5C728 256.694 720.357 218.269 705.506 182.417C690.656 146.565 668.89 113.99 641.45 86.5499C614.01 59.1102 581.435 37.3439 545.583 22.4936C509.731 7.64333 471.306 -1.69625e-06 432.5 0C393.694 1.69625e-06 355.269 7.64334 319.417 22.4936C283.565 37.3439 250.99 59.1102 223.55 86.55C196.11 113.99 174.344 146.565 159.494 182.417C144.643 218.269 137 256.694 137 295.5L432.5 295.5H728Z" fill="white"/>
<path d="M679 283C679 250.695 672.637 218.706 660.274 188.86C647.912 159.014 629.791 131.895 606.948 109.052C584.105 86.2085 556.986 68.0883 527.14 55.7256C497.294 43.363 465.305 37 433 37C400.695 37 368.706 43.363 338.86 55.7256C309.014 68.0883 281.895 86.2085 259.052 109.052C236.209 131.895 218.088 159.014 205.726 188.86C193.363 218.706 187 250.695 187 283L433 283H679Z" fill="#0065B2"/>
<path d="M157.707 348.209H111.5V433.205H59.2069V348.209H13V318.124H157.707V348.209Z" fill="#0065B2"/>
<path d="M253.29 435.836C236.31 435.836 221.058 433.26 207.534 428.109C194.01 422.957 183.416 415.833 175.753 406.736C168.089 397.53 164.257 387.173 164.257 375.664C164.257 364.156 168.089 353.854 175.753 344.757C183.416 335.55 194.01 328.371 207.534 323.22C221.058 318.069 236.31 315.493 253.29 315.493C270.27 315.493 285.522 318.069 299.046 323.22C312.57 328.371 323.164 335.55 330.828 344.757C338.491 353.854 342.323 364.156 342.323 375.664C342.323 387.173 338.491 397.53 330.828 406.736C323.164 415.833 312.57 422.957 299.046 428.109C285.522 433.26 270.27 435.836 253.29 435.836ZM253.29 404.435C259.902 404.435 265.837 403.284 271.097 400.982C276.506 398.571 280.789 395.228 283.944 390.954C287.1 386.57 288.678 381.473 288.678 375.664C288.678 369.856 287.1 364.814 283.944 360.539C280.789 356.155 276.506 352.813 271.097 350.511C265.837 348.1 259.902 346.894 253.29 346.894C246.678 346.894 240.668 348.1 235.258 350.511C229.999 352.813 225.791 356.155 222.636 360.539C219.48 364.814 217.902 369.856 217.902 375.664C217.902 381.473 219.48 386.57 222.636 390.954C225.791 395.228 229.999 398.571 235.258 400.982C240.668 403.284 246.678 404.435 253.29 404.435Z" fill="#0065B2"/>
<path d="M514.063 318.124V433.205H461.771V348.209H413.76V433.205H361.468V318.124H514.063Z" fill="#0065B2"/>
<path d="M653.311 413.148H593.355L582.761 433.205H528.665L597.637 318.124H649.93L718.902 433.205H663.905L653.311 413.148ZM638.66 385.2L623.333 356.265L608.006 385.2H638.66Z" fill="#0065B2"/>
<path d="M839.178 373.363C847.592 375.884 854.129 379.555 858.787 384.378C863.596 389.2 866 394.68 866 400.818C866 408.052 862.469 414.354 855.406 419.724C848.494 424.985 839.102 429.04 827.231 431.89C815.511 434.63 802.437 436 788.012 436C765.021 436 743.157 432.657 722.421 425.971L737.973 399.174C745.336 401.366 753 403.065 760.964 404.27C768.928 405.366 776.441 405.914 783.504 405.914C792.069 405.914 798.981 405.038 804.241 403.284C809.65 401.53 812.355 398.955 812.355 395.557C812.355 390.954 807.171 388.652 796.802 388.652H754.202V360.704H792.294C796.802 360.704 800.183 360.101 802.437 358.895C804.842 357.69 806.044 355.991 806.044 353.799C806.044 350.949 803.94 348.757 799.733 347.223C795.675 345.688 790.266 344.921 783.504 344.921C777.193 344.921 770.355 345.579 762.992 346.894C755.629 348.209 748.642 350.072 742.03 352.484L726.478 323.713C743.909 317.904 762.842 315 783.278 315C796.953 315 809.575 316.37 821.146 319.11C832.866 321.85 842.183 325.851 849.095 331.111C856.158 336.263 859.689 342.346 859.689 349.36C859.689 354.511 857.886 359.169 854.279 363.334C850.673 367.499 845.639 370.842 839.178 373.363Z" fill="#0065B2"/>
<path d="M187.675 511.25H166.55L162.52 521H151.73L172.01 475.5H182.41L202.755 521H191.705L187.675 511.25ZM184.36 503.255L177.145 485.835L169.93 503.255H184.36Z" fill="#ED2B54"/>
<path d="M253.639 497.275C256.412 498.098 258.535 499.441 260.009 501.305C261.482 503.168 262.219 505.465 262.219 508.195C262.219 512.225 260.68 515.366 257.604 517.62C254.57 519.873 250.215 521 244.539 521H222.114V475.5H243.304C248.59 475.5 252.707 476.518 255.654 478.555C258.6 480.591 260.074 483.495 260.074 487.265C260.074 489.518 259.51 491.511 258.384 493.245C257.257 494.935 255.675 496.278 253.639 497.275ZM232.579 494.35H242.394C244.69 494.35 246.424 493.895 247.594 492.985C248.764 492.031 249.349 490.645 249.349 488.825C249.349 487.048 248.742 485.683 247.529 484.73C246.359 483.776 244.647 483.3 242.394 483.3H232.579V494.35ZM244.149 513.2C249.089 513.2 251.559 511.25 251.559 507.35C251.559 503.58 249.089 501.695 244.149 501.695H232.579V513.2H244.149Z" fill="#ED2B54"/>
<path d="M318.011 484.08H303.451V521H293.051V484.08H278.556V475.5H318.011V484.08Z" fill="#ED2B54"/>
<path d="M359.023 521.78C354.3 521.78 350.032 520.761 346.218 518.725C342.448 516.688 339.48 513.893 337.313 510.34C335.19 506.743 334.128 502.713 334.128 498.25C334.128 493.786 335.19 489.778 337.313 486.225C339.48 482.628 342.448 479.811 346.218 477.775C350.032 475.738 354.3 474.72 359.023 474.72C363.747 474.72 367.993 475.738 371.763 477.775C375.533 479.811 378.502 482.628 380.668 486.225C382.835 489.778 383.918 493.786 383.918 498.25C383.918 502.713 382.835 506.743 380.668 510.34C378.502 513.893 375.533 516.688 371.763 518.725C367.993 520.761 363.747 521.78 359.023 521.78ZM359.023 512.81C361.71 512.81 364.137 512.203 366.303 510.99C368.47 509.733 370.16 508 371.373 505.79C372.63 503.58 373.258 501.066 373.258 498.25C373.258 495.433 372.63 492.92 371.373 490.71C370.16 488.5 368.47 486.788 366.303 485.575C364.137 484.318 361.71 483.69 359.023 483.69C356.337 483.69 353.91 484.318 351.743 485.575C349.577 486.788 347.865 488.5 346.608 490.71C345.395 492.92 344.788 495.433 344.788 498.25C344.788 501.066 345.395 503.58 346.608 505.79C347.865 508 349.577 509.733 351.743 510.99C353.91 512.203 356.337 512.81 359.023 512.81Z" fill="#ED2B54"/>
<path d="M465.415 475.5V521H405.355V475.5H415.82V512.42H430.185V475.5H440.65V512.42H454.95V475.5H465.415Z" fill="#ED2B54"/>
<path d="M507.643 502.67H500.363V521H489.898V475.5H500.363V493.895H507.903L519.863 475.5H530.978L516.093 497.47L531.433 521H519.473L507.643 502.67Z" fill="#ED2B54"/>
<path d="M571.21 521.78C566.487 521.78 562.219 520.761 558.405 518.725C554.635 516.688 551.667 513.893 549.5 510.34C547.377 506.743 546.315 502.713 546.315 498.25C546.315 493.786 547.377 489.778 549.5 486.225C551.667 482.628 554.635 479.811 558.405 477.775C562.219 475.738 566.487 474.72 571.21 474.72C575.934 474.72 580.18 475.738 583.95 477.775C587.72 479.811 590.689 482.628 592.855 486.225C595.022 489.778 596.105 493.786 596.105 498.25C596.105 502.713 595.022 506.743 592.855 510.34C590.689 513.893 587.72 516.688 583.95 518.725C580.18 520.761 575.934 521.78 571.21 521.78ZM571.21 512.81C573.897 512.81 576.324 512.203 578.49 510.99C580.657 509.733 582.347 508 583.56 505.79C584.817 503.58 585.445 501.066 585.445 498.25C585.445 495.433 584.817 492.92 583.56 490.71C582.347 488.5 580.657 486.788 578.49 485.575C576.324 484.318 573.897 483.69 571.21 483.69C568.524 483.69 566.097 484.318 563.93 485.575C561.764 486.788 560.052 488.5 558.795 490.71C557.582 492.92 556.975 495.433 556.975 498.25C556.975 501.066 557.582 503.58 558.795 505.79C560.052 508 561.764 509.733 563.93 510.99C566.097 512.203 568.524 512.81 571.21 512.81Z" fill="#ED2B54"/>
<path d="M656.833 475.5V521H646.433V484.08H630.833L630.508 493.57C630.291 500.026 629.771 505.27 628.948 509.3C628.124 513.286 626.738 516.363 624.788 518.53C622.881 520.653 620.194 521.715 616.728 521.715C615.298 521.715 613.564 521.476 611.528 521L612.178 512.095C612.741 512.268 613.369 512.355 614.063 512.355C616.576 512.355 618.331 510.881 619.328 507.935C620.324 504.945 620.953 500.286 621.213 493.96L621.863 475.5H656.833Z" fill="#ED2B54"/>
<path d="M712.331 511.25H691.206L687.176 521H676.386L696.666 475.5H707.066L727.411 521H716.361L712.331 511.25ZM709.016 503.255L701.801 485.835L694.586 503.255H709.016Z" fill="#ED2B54"/>
<path d="M329.772 259.971C329.772 285.108 309.395 305.486 284.258 305.486C259.121 305.486 238.743 285.108 238.743 259.971C238.743 234.835 259.121 214.457 284.258 214.457C309.395 214.457 329.772 234.835 329.772 259.971Z" fill="#0065B2"/>
<path fill-rule="evenodd" clip-rule="evenodd" d="M284.258 284.726C297.929 284.726 309.011 273.643 309.011 259.972C309.011 246.301 297.929 235.219 284.258 235.219C270.587 235.219 259.504 246.301 259.504 259.972C259.504 273.643 270.587 284.726 284.258 284.726ZM284.258 289.517C300.575 289.517 313.802 276.289 313.802 259.972C313.802 243.655 300.575 230.428 284.258 230.428C267.941 230.428 254.713 243.655 254.713 259.972C254.713 276.289 267.941 289.517 284.258 289.517Z" fill="white"/>
<path d="M620.425 259.971C620.425 285.108 600.048 305.486 574.911 305.486C549.774 305.486 529.397 285.108 529.397 259.971C529.397 234.835 549.774 214.457 574.911 214.457C600.048 214.457 620.425 234.835 620.425 259.971Z" fill="#0065B2"/>
<path fill-rule="evenodd" clip-rule="evenodd" d="M574.911 284.726C588.582 284.726 599.664 273.643 599.664 259.972C599.664 246.301 588.582 235.219 574.911 235.219C561.24 235.219 550.158 246.301 550.158 259.972C550.158 273.643 561.24 284.726 574.911 284.726ZM574.911 289.517C591.228 289.517 604.455 276.289 604.455 259.972C604.455 243.655 591.228 230.428 574.911 230.428C558.594 230.428 545.367 243.655 545.367 259.972C545.367 276.289 558.594 289.517 574.911 289.517Z" fill="white"/>
<path fill-rule="evenodd" clip-rule="evenodd" d="M225.967 220.844C225.967 214.19 226.447 200.084 228.363 196.89C229.973 194.205 238.803 188.633 244.902 184.785C247.874 182.909 250.198 181.443 250.721 180.92C251.382 180.258 256.154 174.391 261.744 167.516C269.65 157.795 279.193 146.06 281.064 144.189C284.258 140.995 309.011 133.808 316.996 133.808C323.384 133.808 319.658 136.47 316.996 137.801C326.844 135.671 349.096 131.253 359.317 130.614C359.693 130.591 360.089 130.566 360.504 130.54C374.195 129.68 408.66 127.514 429.584 130.614C451.144 133.808 479.89 141.793 497.457 149.778C506.431 153.858 517.282 162.105 527.452 169.836C537.19 177.238 546.304 184.166 552.553 186.509C560.545 189.506 571.975 191.566 582.541 193.47C588.865 194.61 594.881 195.694 599.664 196.89C612.44 200.083 636.395 209.665 640.388 215.255C644.38 220.844 649.97 230.426 649.97 234.419C649.97 236.453 649.322 235.896 647.82 234.604C646.964 233.868 645.83 232.893 644.38 232.023L644.38 232.023C640.388 230.426 636.395 228.829 631.604 227.232C630.588 226.894 629.406 226.542 628.129 226.162C623.855 224.89 618.525 223.304 614.836 220.844C613.463 219.929 611.946 219.259 610.271 218.52C607.271 217.196 603.764 215.648 599.664 212.061C598.729 210.892 598.067 209.996 597.519 209.254C596.196 207.464 595.535 206.568 593.276 204.874C588.753 201.482 587.432 201.317 581.703 200.601C579.465 200.322 576.553 199.958 572.515 199.285C568.89 198.681 566.179 198.28 564.063 197.967C557.787 197.038 556.733 196.882 552.553 194.494C548.081 191.939 540.043 188.106 536.583 186.509C536.583 184.646 535.305 180.92 530.195 180.92C525.085 180.92 458.863 178.258 426.39 176.927H359.317C348.138 177.459 324.023 179.003 316.996 180.92C306.137 182.836 291.178 187.574 285.056 189.703L281.064 194.494C275.74 195.559 263.657 199.125 257.907 204.874C252.158 210.624 248.059 215.787 246.728 217.65H237.146C230.12 217.65 226.766 219.78 225.967 220.844ZM306.616 169.74C308.213 166.546 311.407 161.755 314.601 157.763C316.858 154.942 321.787 150.576 327.377 147.383C334.891 143.625 342.829 142.414 350.66 141.22C351.15 141.145 351.641 141.07 352.13 140.995C362.511 139.398 379.279 137.801 396.846 137.002C414.413 136.204 438.368 138.599 448.748 140.995C459.129 143.39 479.091 149.777 490.27 153.77C499.213 156.965 516.354 167.877 523.807 172.934L527.8 176.128L502.248 174.531C499.441 174.25 496.436 173.871 493.2 173.462C487.23 172.709 480.47 171.855 472.703 171.337C465.055 170.827 431.181 170.539 416.01 170.539L373.69 169.74H336.959H306.616Z" fill="white"/>
<path d="M221.176 247.196C221.498 242.404 221.975 236.815 223.572 230.427C223.572 230.427 228.453 230.123 231.557 230.427C234.722 230.737 239.542 232.024 239.542 232.024C239.542 232.024 240.681 229.247 241.937 227.233C243.929 224.038 248.9 219.767 253.915 216.852C261.425 212.486 263.497 210.633 274.676 208.867C283.459 207.48 290.074 208.031 299.429 210.464C306.449 212.29 310.544 213.906 316.198 218.449C322.274 223.333 326.014 226.059 328.175 233.621C329.772 239.21 329.772 240.807 329.772 250.389C329.772 250.389 325.78 237.613 312.205 228.83C298.631 220.046 295.505 221.488 285.855 220.845C273.877 220.046 265.673 222.911 259.504 226.435C250.282 231.702 245.131 239.211 241.937 247.196C239.382 253.584 238.211 265.827 237.945 271.151L221.176 262.367C221.176 259.439 220.779 253.107 221.176 247.196Z" fill="white"/>
<path d="M534.188 229.629C531.632 234.74 530.994 245.599 530.994 250.39L538.18 238.413C539.777 236.549 541.693 233.302 546.165 228.831C550.637 224.359 559.663 218.803 567.724 217.652C578.903 216.055 586.888 216.853 595.672 222.443C603.353 227.33 606.052 230.426 610.045 237.613C611.819 240.807 614.037 245.598 614.836 249.59C615.634 253.583 615.634 255.18 617.231 259.172C618.789 263.068 620.343 265.335 623.619 267.956C627.612 271.15 631.466 271.532 634.798 271.948C641.186 272.747 642.752 272.225 648.373 270.351C650.768 269.553 653.696 267.956 655.559 266.359C657.422 264.762 659.552 263.006 656.358 262.367C653.164 261.729 651.111 259.422 648.373 256.778C644.14 252.691 641.665 242.086 640.388 244.002C638.791 246.398 636.395 252.785 638.791 259.972C640.707 265.721 644.913 266.626 646.776 266.36C646.776 266.36 638.791 269.553 632.403 266.359C626.015 263.165 621.896 257.069 619.627 247.993C617.231 238.413 615.956 234.175 609.246 225.635C600.463 214.456 587.687 208.068 578.903 207.27C570.12 206.471 557.344 208.068 550.158 212.061C542.971 216.053 537.382 223.241 534.188 229.629Z" fill="white"/>
<path fill-rule="evenodd" clip-rule="evenodd" d="M330.571 231.226C331.635 232.024 336.959 234.42 340.951 234.42C343.095 234.42 350.608 234.51 360.59 234.629C380.344 234.866 409.769 235.218 426.39 235.218H520.613C525.404 235.218 530.195 232.823 530.195 232.823C530.195 232.823 529.278 240.768 527.8 244.002C525.227 249.631 517.419 253.583 517.419 253.583C517.419 253.583 518.218 256.777 517.419 259.172C516.621 261.568 355.856 258.641 351.332 257.576C348.687 256.954 348.588 255.968 348.485 254.938C348.411 254.205 348.335 253.449 347.339 252.785C346.595 252.289 345.541 251.717 344.342 251.065C340.544 249.002 335.283 246.144 333.765 242.405C332.453 239.174 330.571 231.226 330.571 231.226ZM340.153 242.404C340.951 244.001 347.34 247.192 351.332 248.791C355.324 250.389 506.241 252.783 511.032 251.184C515.823 249.586 520.135 245.116 521.412 243.2H521.347C514.991 243.2 400.619 243.2 340.153 242.404Z" fill="white"/>
</svg>
