<svg width="194" height="64" viewBox="0 0 194 64" fill="none" xmlns="http://www.w3.org/2000/svg">
<path d="M96.4092 34.2547H89.9175V52.8404H82.5699V34.2547H76.0781V27.676H96.4092V34.2547Z" fill="#F4CA59"/>
<path d="M109.422 53.8889C107.095 53.8889 105.005 53.3054 103.153 52.1385C101.299 50.9714 99.8473 49.3577 98.7969 47.2969C97.7481 45.2113 97.2222 42.865 97.2222 40.2581C97.2222 37.6511 97.7481 35.3173 98.7969 33.2565C99.8473 31.1709 101.299 29.5447 103.153 28.3778C105.005 27.2109 107.095 26.6274 109.422 26.6274C111.747 26.6274 113.837 27.2109 115.691 28.3778C117.543 29.5447 118.994 31.1709 120.045 33.2565C121.095 35.3173 121.619 37.6511 121.619 40.2581C121.619 42.865 121.095 45.2113 120.045 47.2969C118.994 49.3577 117.543 50.9714 115.691 52.1385C113.837 53.3054 111.747 53.8889 109.422 53.8889ZM109.422 46.7755C110.327 46.7755 111.14 46.5149 111.861 45.9935C112.603 45.4473 113.188 44.6899 113.621 43.7216C114.053 42.7285 114.27 41.574 114.27 40.2581C114.27 38.9422 114.053 37.8001 113.621 36.8318C113.188 35.8387 112.603 35.0814 111.861 34.56C111.14 34.0138 110.327 33.7407 109.422 33.7407C108.515 33.7407 107.691 34.0138 106.951 34.56C106.23 35.0814 105.653 35.8387 105.222 36.8318C104.789 37.8001 104.573 38.9422 104.573 40.2581C104.573 41.574 104.789 42.7285 105.222 43.7216C105.653 44.6899 106.23 45.4473 106.951 45.9935C107.691 46.5149 108.515 46.7755 109.422 46.7755Z" fill="#F4CA59"/>
<path d="M145.204 27.676V52.8404H137.957V34.2547H131.305V52.8404H124.06V27.676H145.204Z" fill="#F4CA59"/>
<path d="M164.695 48.4547H156.494L155.044 52.8404H147.644L157.079 27.676H164.232L173.667 52.8404H166.144L164.695 48.4547ZM162.691 42.3433L160.594 36.0163L158.497 42.3433H162.691Z" fill="#F4CA59"/>
<path d="M190.354 39.7766C191.498 40.3446 192.386 41.1718 193.019 42.2584C193.673 43.3447 194 44.5795 194 45.9622C194 47.5921 193.52 49.012 192.56 50.2218C191.62 51.4071 190.343 52.3208 188.73 52.963C187.137 53.5803 185.36 53.8889 183.399 53.8889C180.273 53.8889 177.301 53.1357 174.482 51.6295L176.596 45.5919C177.597 46.0859 178.639 46.4685 179.721 46.7402C180.805 46.9871 181.826 47.1105 182.785 47.1105C183.951 47.1105 184.89 46.9131 185.605 46.518C186.34 46.1229 186.708 45.5426 186.708 44.7771C186.708 43.7398 186.004 43.2213 184.593 43.2213H178.803V36.9245H183.98C184.593 36.9245 185.054 36.7888 185.36 36.5171C185.687 36.2455 185.849 35.8628 185.849 35.3688C185.849 34.7268 185.564 34.233 184.991 33.8874C184.44 33.5415 183.705 33.3688 182.785 33.3688C181.927 33.3688 180.998 33.5168 179.998 33.8132C178.996 34.1095 178.047 34.5294 177.148 35.0727L175.034 28.5907C177.404 27.2819 179.977 26.6274 182.755 26.6274C184.614 26.6274 186.329 26.9361 187.902 27.5534C189.496 28.1708 190.762 29.072 191.702 30.2573C192.662 31.4179 193.142 32.7883 193.142 34.3687C193.142 35.5295 192.897 36.5788 192.407 37.5172C191.916 38.4556 191.232 39.2088 190.354 39.7766Z" fill="#F4CA59"/>
<path d="M81.9723 18.4916H78.5078L77.847 20.5505H76.0781L79.4034 10.9425H81.109L84.4455 20.5505H82.6331L81.9723 18.4916ZM81.4294 16.8033L80.2456 13.1249L79.0631 16.8033H81.4294Z" fill="white"/>
<path d="M92.7905 15.5407C93.2452 15.7144 93.593 15.9982 93.8352 16.3916C94.0762 16.7851 94.1967 17.27 94.1967 17.8465C94.1967 18.6975 93.9445 19.361 93.4402 19.8367C92.9433 20.3126 92.2291 20.5505 91.2974 20.5505H87.6206V10.9425H91.095C91.962 10.9425 92.6378 11.1575 93.121 11.5876C93.6042 12.0177 93.8452 12.6307 93.8452 13.4268C93.8452 13.9027 93.7532 14.3236 93.5682 14.6896C93.3831 15.0465 93.1247 15.3301 92.7905 15.5407ZM89.3361 14.9229H90.9459C91.3223 14.9229 91.6068 14.8269 91.7993 14.6347C91.9906 14.4334 92.0862 14.1406 92.0862 13.7563C92.0862 13.3811 91.9869 13.0928 91.7881 12.8916C91.5968 12.6902 91.3161 12.5896 90.9459 12.5896H89.3361V14.9229ZM91.2341 18.9034C92.044 18.9034 92.449 18.4916 92.449 17.6682C92.449 16.872 92.044 16.4739 91.2341 16.4739H89.3361V18.9034H91.2341Z" fill="white"/>
<path d="M103.346 12.7543H100.959V20.5505H99.2535V12.7543H96.876V10.9425H103.346V12.7543Z" fill="white"/>
<path d="M110.072 20.7152C109.298 20.7152 108.597 20.5002 107.972 20.0702C107.354 19.64 106.867 19.0498 106.511 18.2994C106.164 17.54 105.99 16.6889 105.99 15.7465C105.99 14.8041 106.164 13.9576 106.511 13.2072C106.867 12.4478 107.354 11.853 107.972 11.4228C108.597 10.9928 109.298 10.7778 110.072 10.7778C110.847 10.7778 111.544 10.9928 112.161 11.4228C112.78 11.853 113.266 12.4478 113.622 13.2072C113.977 13.9576 114.155 14.8041 114.155 15.7465C114.155 16.6889 113.977 17.54 113.622 18.2994C113.266 19.0498 112.78 19.64 112.161 20.0702C111.544 20.5002 110.847 20.7152 110.072 20.7152ZM110.072 18.821C110.513 18.821 110.91 18.6929 111.265 18.4367C111.621 18.1714 111.899 17.8054 112.098 17.3387C112.304 16.872 112.407 16.3413 112.407 15.7465C112.407 15.1517 112.304 14.621 112.098 14.1543C111.899 13.6876 111.621 13.3262 111.265 13.07C110.91 12.8046 110.513 12.672 110.072 12.672C109.632 12.672 109.233 12.8046 108.878 13.07C108.523 13.3262 108.242 13.6876 108.036 14.1543C107.837 14.621 107.737 15.1517 107.737 15.7465C107.737 16.3413 107.837 16.872 108.036 17.3387C108.242 17.8054 108.523 18.1714 108.878 18.4367C109.233 18.6929 109.632 18.821 110.072 18.821Z" fill="white"/>
<path d="M127.519 10.9425V20.5505H117.67V10.9425H119.387V18.7387H121.742V10.9425H123.458V18.7387H125.802V10.9425H127.519Z" fill="white"/>
<path d="M134.445 16.6799H133.251V20.5505H131.534V10.9425H133.251V14.8269H134.487L136.448 10.9425H138.271L135.83 15.5818L138.345 20.5505H136.384L134.445 16.6799Z" fill="white"/>
<path d="M144.869 20.7152C144.094 20.7152 143.394 20.5002 142.768 20.0702C142.151 19.64 141.664 19.0498 141.309 18.2994C140.96 17.54 140.786 16.6889 140.786 15.7465C140.786 14.8041 140.96 13.9576 141.309 13.2072C141.664 12.4478 142.151 11.853 142.768 11.4228C143.394 10.9928 144.094 10.7778 144.869 10.7778C145.643 10.7778 146.339 10.9928 146.958 11.4228C147.575 11.853 148.062 12.4478 148.418 13.2072C148.773 13.9576 148.95 14.8041 148.95 15.7465C148.95 16.6889 148.773 17.54 148.418 18.2994C148.062 19.0498 147.575 19.64 146.958 20.0702C146.339 20.5002 145.643 20.7152 144.869 20.7152ZM144.869 18.821C145.308 18.821 145.707 18.6929 146.062 18.4367C146.418 18.1714 146.695 17.8054 146.893 17.3387C147.1 16.872 147.203 16.3413 147.203 15.7465C147.203 15.1517 147.1 14.621 146.893 14.1543C146.695 13.6876 146.418 13.3262 146.062 13.07C145.707 12.8046 145.308 12.672 144.869 12.672C144.428 12.672 144.03 12.8046 143.675 13.07C143.32 13.3262 143.039 13.6876 142.833 14.1543C142.634 14.621 142.533 15.1517 142.533 15.7465C142.533 16.3413 142.634 16.872 142.833 17.3387C143.039 17.8054 143.32 18.1714 143.675 18.4367C144.03 18.6929 144.428 18.821 144.869 18.821Z" fill="white"/>
<path d="M158.909 10.9425V20.5505H157.204V12.7543H154.646L154.593 14.7582C154.557 16.1216 154.472 17.2289 154.337 18.0799C154.202 18.9218 153.974 19.5714 153.655 20.0289C153.342 20.4773 152.901 20.7016 152.333 20.7016C152.099 20.7016 151.814 20.6511 151.48 20.5505L151.587 18.6701C151.68 18.7067 151.782 18.725 151.896 18.725C152.309 18.725 152.595 18.4138 152.759 17.7916C152.923 17.1602 153.026 16.1765 153.069 14.8406L153.176 10.9425H158.909Z" fill="white"/>
<path d="M168.011 18.4916H164.547L163.886 20.5505H162.117L165.442 10.9425H167.148L170.485 20.5505H168.672L168.011 18.4916ZM167.468 16.8033L166.285 13.1249L165.102 16.8033H167.468Z" fill="white"/>
<g clip-path="url(#clip0_18110_822)">
<path d="M23.4544 28.313C23.4529 28.3166 23.451 28.32 23.4495 28.3236C23.0092 29.3946 22.783 30.5414 22.7837 31.6993C22.7837 36.6152 26.7832 40.6147 31.6992 40.6147C36.6152 40.6147 40.6146 36.6152 40.6146 31.6993C40.6146 27.4202 37.5838 23.8369 33.5565 22.9799V26.4465C35.7184 27.2133 37.2713 29.2779 37.2713 31.6993C37.2713 34.7718 34.7716 37.2715 31.6992 37.2715C28.6267 37.2715 26.127 34.7718 26.127 31.6993C26.127 29.2779 27.6799 27.2134 29.8418 26.4465V22.9799C26.9478 23.5957 24.5697 25.6193 23.4598 28.2975C23.4577 28.3027 23.4563 28.3079 23.4544 28.313ZM25.1714 20.8905L23.2956 16.3997C20.3663 18.0151 17.9473 20.4467 16.3489 23.3866L20.8522 25.2363C21.9165 23.4575 23.3992 21.9657 25.1714 20.8905ZM19.0689 31.6993C19.0689 30.6556 19.1971 29.6415 19.4368 28.6708L14.934 26.8214C14.4726 28.4062 14.2388 30.0487 14.2397 31.6993C14.2397 33.4282 14.4936 35.0987 14.9639 36.6769L19.4548 34.8009C19.1981 33.7871 19.0685 32.7452 19.0689 31.6993Z" fill="#F4CA59"/>
<path d="M29.8422 31.6993C29.8422 32.7235 30.6754 33.5567 31.6995 33.5567C32.7237 33.5567 33.5569 32.7235 33.5569 31.6993C33.5569 30.6752 32.7237 29.8418 31.6995 29.8418C30.6754 29.8418 29.8422 30.6752 29.8422 31.6993ZM29.8422 19.2061V19.193C29.8422 18.1672 30.6738 17.3356 31.6995 17.3356C32.7253 17.3356 33.5569 18.1672 33.5569 19.193V19.206C33.9537 19.2647 34.3442 19.3422 34.7281 19.437L36.5775 14.9342C34.9927 14.4728 33.3502 14.239 31.6995 14.2399C29.9706 14.2399 28.3002 14.4938 26.722 14.9641L28.5978 19.455C29.0052 19.3517 29.4203 19.2685 29.8422 19.2061ZM40.0123 16.3489L38.1627 20.8522C39.9414 21.9167 41.4332 23.3994 42.5084 25.1715L46.9993 23.2957C45.3838 20.3663 42.9523 17.9474 40.0123 16.3489ZM31.6995 44.3294C27.1223 44.3294 23.1063 41.8819 20.8907 38.2271L16.3999 40.1029C19.3743 45.4964 25.117 49.1585 31.6995 49.1585C38.3193 49.1585 44.0903 45.4554 47.0499 40.012L42.5467 38.1625C40.3393 41.8529 36.3035 44.3294 31.6995 44.3294Z" fill="#F4CA59"/>
<path d="M61.7743 24.2221L59.2076 23.8972C58.6029 21.7612 57.7496 19.7036 56.6651 17.7666C57.1939 17.0838 57.7227 16.4013 58.2516 15.7192C58.5288 15.3618 58.666 14.9155 58.6376 14.4642C58.6092 14.0128 58.417 13.5873 58.0972 13.2675L50.13 5.30035C49.4686 4.63875 48.418 4.57226 47.6785 5.14594L45.631 6.73326C43.694 5.6489 41.6364 4.79569 39.5005 4.19112C39.3918 3.33549 39.2832 2.47985 39.1749 1.62434C39.1183 1.17566 38.8998 0.763077 38.5605 0.464014C38.2213 0.164951 37.7845 -3.90597e-05 37.3323 6.93609e-09H26.0648C25.6125 -3.90597e-05 25.1758 0.164951 24.8366 0.464014C24.4973 0.763077 24.2788 1.17566 24.2221 1.62434L23.8971 4.19137C21.7615 4.79591 19.7042 5.64896 17.7675 6.73302L15.72 5.14594C15.3627 4.86875 14.9165 4.73149 14.4651 4.75992C14.0137 4.78835 13.5883 4.98051 13.2685 5.30035L5.30134 13.2675C4.98154 13.5873 4.78941 14.0128 4.76098 14.4642C4.73255 14.9155 4.86978 15.3618 5.14693 15.7192C5.67592 16.4013 6.20478 17.084 6.73351 17.7667C5.6492 19.7038 4.7959 21.7613 4.19112 23.8972L1.62422 24.2221C1.17556 24.2789 0.763019 24.4974 0.463989 24.8367C0.164958 25.176 -1.98655e-05 25.6127 1.79417e-09 26.0649L1.79417e-09 37.3323C-1.60523e-05 37.7846 0.164979 38.2213 0.464035 38.5606C0.763091 38.8998 1.17566 39.1183 1.62434 39.1751C2.47973 39.2832 3.33537 39.3918 4.191 39.5005C4.79556 41.6365 5.64878 43.6941 6.73314 45.6311L5.14594 47.6785C4.86883 48.0359 4.73161 48.4821 4.76004 48.9335C4.78847 49.3848 4.98059 49.8103 5.30035 50.13L13.2675 58.0973C13.5873 58.4172 14.0128 58.6094 14.4642 58.6378C14.9156 58.6663 15.3618 58.529 15.7192 58.2518C16.4014 57.7228 17.0841 57.1938 17.7669 56.6651C19.7038 57.7495 21.7613 58.6027 23.8972 59.2073L24.2223 61.7743C24.279 62.223 24.4975 62.6356 24.8367 62.9346C25.176 63.2337 25.6127 63.3987 26.0649 63.3987H37.3324C37.7847 63.3987 38.2214 63.2337 38.5607 62.9347C38.8999 62.6356 39.1184 62.223 39.1751 61.7743C39.2833 60.9188 39.3919 60.0631 39.5006 59.2074C41.6368 58.6027 43.6946 57.7494 45.632 56.6651C46.3147 57.1939 46.9974 57.7228 47.6797 58.2518C48.037 58.5289 48.4833 58.6662 48.9347 58.6377C49.386 58.6093 49.8115 58.4171 50.1313 58.0972L58.0983 50.13C58.4181 49.8102 58.6103 49.3848 58.6387 48.9334C58.6671 48.482 58.5299 48.0358 58.2527 47.6784L56.6656 45.6311C57.7499 43.6941 58.6032 41.6364 59.2078 39.5005C60.0633 39.3918 60.919 39.2832 61.7745 39.1751C62.2232 39.1183 62.6357 38.8998 62.9348 38.5606C63.2338 38.2213 63.3988 37.7846 63.3988 37.3323V26.0649C63.3988 25.6126 63.2337 25.1759 62.9347 24.8367C62.6356 24.4974 62.223 24.2789 61.7743 24.2221ZM31.6993 52.8734C20.0238 52.8734 10.5252 43.3747 10.5252 31.6993C10.5252 20.0238 20.0238 10.5252 31.6993 10.5252C43.3749 10.5252 52.8735 20.0238 52.8735 31.6993C52.8735 43.3747 43.3749 52.8734 31.6993 52.8734Z" fill="#F4CA59"/>
<path d="M44.3293 31.6993C44.3293 32.7431 44.2012 33.7572 43.9613 34.7279L48.4641 36.5773C48.9257 34.9925 49.1595 33.35 49.1585 31.6993C49.1585 29.9704 48.9047 28.2998 48.4344 26.7217L43.9434 28.5976C44.2002 29.6115 44.3299 30.6534 44.3293 31.6993Z" fill="#F4CA59"/>
</g>
<defs>
<clipPath id="clip0_18110_822">
<rect width="63.3987" height="63.3987" fill="white"/>
</clipPath>
</defs>
</svg>
