<?xml version="1.0" encoding="utf-8"?><svg viewBox="0 0 1161 512" xmlns="http://www.w3.org/2000/svg" xmlns:xlink="http://www.w3.org/1999/xlink"><style>:root>svg{display:none}:root>svg:target{display:block}</style><svg viewBox="0 0 512 512" id="address" xmlns="http://www.w3.org/2000/svg"><path d="M256 0C161.896 0 85.333 76.563 85.333 170.667c0 28.25 7.063 56.26 20.49 81.104L246.667 506.5c1.875 3.396 5.448 5.5 9.333 5.5s7.458-2.104 9.333-5.5l140.896-254.813c13.375-24.76 20.438-52.771 20.438-81.021C426.667 76.563 350.104 0 256 0zm0 256c-47.052 0-85.333-38.281-85.333-85.333S208.948 85.334 256 85.334s85.333 38.281 85.333 85.333S303.052 256 256 256z" data-original="#000000"/></svg><svg viewBox="0 0 12 7" id="arrow" xmlns="http://www.w3.org/2000/svg"><path d="M6 6.545a.544.544 0 01-.386-.16L.16.932A.545.545 0 11.93.16L6 5.229l5.069-5.07a.545.545 0 11.771.772L6.386 6.386a.544.544 0 01-.386.16z"/></svg><svg viewBox="0 0 12 7" id="arrow-b" xmlns="http://www.w3.org/2000/svg"><path d="M6 6.545a.544.544 0 01-.386-.16L.16.932A.545.545 0 11.93.16L6 5.229l5.069-5.07a.545.545 0 11.771.772L6.386 6.386a.544.544 0 01-.386.16z"/></svg><svg viewBox="0 0 1161 228" id="arrow-right" xmlns="http://www.w3.org/2000/svg"><path d="M1154.27 106.089L896.281 2.384c-7.168-2.567-15.005-3.061-23.517-1.48-8.502 1.582-12.771 4.444-12.771 8.594V75.87H21.499c-6.273 0-11.427.887-15.453 2.665C2.02 80.311 0 82.584 0 85.348v56.888c0 2.763 2.012 5.036 6.043 6.811 4.036 1.776 9.19 2.664 15.454 2.664h838.501v66.37c0 3.956 4.276 6.818 12.773 8.59 8.519 1.587 16.356.987 23.524-1.772l257.995-104.897c4.48-1.974 6.71-4.34 6.71-7.108 0-2.561-2.25-4.83-6.73-6.805z"/></svg><svg viewBox="0 0 263 158" id="auto" xmlns="http://www.w3.org/2000/svg"><path d="M61.946 85.289L34.072 67.067a3.965 3.965 0 00-3.962-.227 3.992 3.992 0 00-2.19 3.313l-1.11 17.732a3.978 3.978 0 001.895 3.643l15.927 9.772a3.98 3.98 0 004.384-.151l13.057-9.282a3.982 3.982 0 00-.127-6.578zm-15.398 7.84l-11.64-7.14.534-8.513 17.262 11.281-6.157 4.372zm152.587-4.587a3.972 3.972 0 001.676 3.321l13.057 9.282a3.982 3.982 0 004.384.151l15.928-9.772a3.985 3.985 0 001.895-3.643l-1.11-17.732a3.99 3.99 0 00-2.189-3.311 3.985 3.985 0 00-3.964.225l-27.873 18.222a3.998 3.998 0 00-1.804 3.257zm28.308-11.066l.533 8.514-11.639 7.14-6.156-4.373 17.262-11.28z"/><path d="M246.918 48.802a3.972 3.972 0 002.819-1.166l3.982-3.986a3.981 3.981 0 00.745-4.596l-3.982-7.96a3.987 3.987 0 00-3.564-2.201H230.99a3.964 3.964 0 00-2.815 1.166l-3.982 3.982a3.986 3.986 0 00-.748 4.595l3.094 6.184-1.521 3.042-5.683-11.364a52.137 52.137 0 00-14.056-17.345 51.495 51.495 0 00-28.805-11.158L131.709 5.01a3.922 3.922 0 00-.53 0L86.415 7.995a51.503 51.503 0 00-28.901 11.233 52.143 52.143 0 00-13.961 17.27l-5.686 11.364-1.521-3.042 3.09-6.184a3.982 3.982 0 00-.749-4.595l-3.982-3.982a3.95 3.95 0 00-2.811-1.166H15.966a3.987 3.987 0 00-3.564 2.202l-3.982 7.96a3.982 3.982 0 00.745 4.595l3.982 3.986a3.974 3.974 0 002.82 1.166h13.466l1.895 3.795-9.178 4.591a4.018 4.018 0 00-1.533 1.354l-7.964 11.946a3.982 3.982 0 00-.669 2.206v50.753c0 3.477 1.51 6.682 3.994 8.976h-.012v7.721c0 6.721 5.36 12.188 11.946 12.188H43.84c5.562 0 10.213-3.918 11.531-9.178l11.962 1.195a3.936 3.936 0 001.967-.303l12.945-5.547 1.836 3.672a3.984 3.984 0 003.56 2.198h87.602c1.51 0 2.887-.853 3.564-2.202l1.836-3.672 12.945 5.547a3.844 3.844 0 001.963.307l11.89-1.191a11.775 11.775 0 0011.604 9.174h15.927c6.586 0 11.946-5.467 11.946-12.188v-7.721h-.012a12.218 12.218 0 003.994-8.976V72.694c0-.785-.235-1.557-.669-2.21l-7.964-11.946a3.984 3.984 0 00-1.533-1.354l-9.178-4.591 1.895-3.79h13.467zM62.399 25.512l.092-.072a43.57 43.57 0 0124.45-9.5l44.501-2.967 44.502 2.966a43.6 43.6 0 0124.449 9.501l.088.072a44.095 44.095 0 0111.731 14.55l4.368 8.736-170.28.004 4.373-8.74a44.176 44.176 0 0111.726-14.55zm151.011 31.25l-24.329 24.334-26.341 7.525h-14.43l-7.124-3.563a3.989 3.989 0 00-1.78-.418h-15.928a3.99 3.99 0 00-1.78.418l-7.123 3.563h-14.431l-26.288-7.51L50.78 56.767l162.63-.004zM29.433 40.838H17.619l-.789-.788 1.597-3.194h11.818l.785.785-1.597 3.197zm-4.707 81.232a3.98 3.98 0 00-.796 2.389v4.018l-2.162-1.486a4.27 4.27 0 01-1.82-3.544V98.234l12.945 12.945-8.167 10.891zm19.114 22.299H27.912c-2.198 0-3.982-1.896-3.982-4.225v-2.007l.78.537a3.93 3.93 0 002.804 1.693l19.647 1.963c-.701 1.198-1.896 2.039-3.321 2.039zm125.008-19.588l-3.133 7.319 7.593 3.253-.525 1.052H90.102l-.526-1.052 7.594-3.253-3.134-7.319-26.934 11.54-35.208-3.52v-7.016l9.298-12.408 45.84 7.052c.201.032.405.048.609.048h87.598c.203 0 .405-.016.606-.048l45.84-7.048 9.305 12.404v7.016l-35.212 3.52-26.93-11.54zm69.31-2.711l-8.167-10.891 12.945-12.945v25.213c0 1.438-.681 2.764-1.82 3.548l-2.162 1.482v-4.018c0-.862-.279-1.7-.796-2.389zm-3.186 22.299h-15.927c-1.426 0-2.621-.841-3.321-2.035l19.647-1.963a3.913 3.913 0 002.803-1.693l.78-.537v2.007c0 2.325-1.784 4.221-3.982 4.221zm7.964-70.469v13.077L225.113 104.8l-50.176 7.713H87.943l-50.172-7.717-17.823-17.823V73.896l6.71-10.062 13.47-6.737 28.698 30.278c.49.518 1.107.892 1.796 1.087l27.874 7.964c.35.108.72.16 1.09.16h15.928c.618 0 1.231-.144 1.78-.419l7.124-3.564h14.044l7.124 3.564a4.02 4.02 0 001.784.418h15.928a3.87 3.87 0 001.091-.155l27.873-7.964a3.969 3.969 0 001.724-1.011l29.821-29.829 12.42 6.212 6.709 10.062zm-10.297-37.044h11.818l1.597 3.194-.788.788h-11.815l-1.597-3.197.785-.785z"/><path d="M127.46 96.582h7.964v7.963h-7.964v-7.963zm-10.27-58.98l27.886-19.898 4.627 6.482-27.886 19.898-4.627-6.483z"/></svg><svg viewBox="0 0 64 64" id="close" xmlns="http://www.w3.org/2000/svg"><path d="M4.59 59.41a2 2 0 002.83 0L32 34.83l24.59 24.58a2 2 0 002.83-2.83L34.83 32 59.41 7.41a2 2 0 00-2.83-2.83L32 29.17 7.41 4.59a2 2 0 00-2.82 2.82L29.17 32 4.59 56.59a2 2 0 000 2.82z" data-original="#000000"/></svg><svg viewBox="0 0 512 512" id="fb" xmlns="http://www.w3.org/2000/svg"><path d="M437 0H75C33.648 0 0 33.648 0 75v362c0 41.352 33.648 75 75 75h151V331h-60v-90h60v-61c0-49.629 40.371-90 90-90h91v90h-91v61h91l-15 90h-76v181h121c41.352 0 75-33.648 75-75V75c0-41.352-33.648-75-75-75zm0 0" data-original="#F4CA59"/></svg><svg viewBox="0 0 502.664 502.664" id="icon" xmlns="http://www.w3.org/2000/svg"><path d="M153.821 358.226L0 274.337v-46.463l153.821-83.414v54.574L46.636 250.523l107.185 53.431v54.272zm26.273 29.358L282.103 115.08h32.227L212.084 387.584h-31.99zm168.749-29.358v-54.272l107.164-52.999-107.164-52.59v-53.927l153.821 83.522v46.183l-153.821 84.083z"/></svg><svg viewBox="0 0 512 512" id="inst" xmlns="http://www.w3.org/2000/svg"><circle cx="256" cy="256" r="52.5" data-original="#000000"/><path d="M256 6C117.929 6 6 117.929 6 256s111.929 250 250 250 250-111.929 250-250S394.071 6 256 6zm154.458 313.54c-1.2 23.768-7.879 47.206-25.2 64.343-17.489 17.3-41.038 23.746-65.035 24.934H191.778c-24-1.188-47.546-7.63-65.035-24.934-17.322-17.137-24-40.575-25.2-64.343V192.46c1.2-23.768 7.879-47.206 25.2-64.344 17.489-17.3 41.038-23.746 65.035-24.933h128.444c24 1.187 47.546 7.63 65.035 24.933 17.322 17.138 24 40.576 25.2 64.344z" data-original="#000000"/><path d="M318.6 132.138c-31.286-.858-93.906-.858-125.192 0-16.281.447-34.738 4.5-46.338 16.89-12.054 12.879-16.609 28.439-17.071 45.846-.812 30.552 0 122.252 0 122.252.529 17.405 5.017 32.967 17.071 45.846 11.6 12.394 30.057 16.443 46.338 16.89 31.286.858 93.906.858 125.192 0 16.281-.447 34.738-4.5 46.338-16.89 12.054-12.879 16.609-28.439 17.071-45.846V194.874c-.462-17.407-5.017-32.967-17.071-45.846-11.604-12.394-30.061-16.443-46.338-16.89zM256 337.375A81.375 81.375 0 11337.375 256 81.375 81.375 0 01256 337.375zm81.721-145.953A16.275 16.275 0 11354 175.147a16.275 16.275 0 01-16.279 16.275z" data-original="#000000"/></svg><svg viewBox="0 0 48 48" id="like" xmlns="http://www.w3.org/2000/svg"><path d="M45.38 19.523A6.982 6.982 0 0039.998 17H29V9a7.008 7.008 0 00-7-7h-2a2.003 2.003 0 00-2 2v11c0 1.644-1.74 2.992-3.478 3.9A4.946 4.946 0 0115 21v21a4.967 4.967 0 01-1.346 3.388A4.936 4.936 0 0016 46h22.884a5.002 5.002 0 004.917-4.09l3.08-16.635a6.982 6.982 0 00-1.501-5.752zM10 18H4a3.003 3.003 0 00-3 3v21a3.003 3.003 0 003 3h6a3.003 3.003 0 003-3V21a3.003 3.003 0 00-3-3zm-3 6a1 1 0 111-1 1 1 0 01-1 1z" data-original="#000000"/></svg><svg viewBox="0 0 10 15" id="list" xmlns="http://www.w3.org/2000/svg"><path d="M10 7.5L.25 14.861V.14L10 7.5z"/></svg><svg viewBox="0 0 512 512" id="mail" xmlns="http://www.w3.org/2000/svg"><path d="M298.789 313.693c-12.738 8.492-27.534 12.981-42.789 12.981-15.254 0-30.05-4.489-42.788-12.981L3.409 173.82A76.269 76.269 0 010 171.403V400.6c0 26.278 21.325 47.133 47.133 47.133h417.733c26.278 0 47.133-21.325 47.133-47.133V171.402a75.21 75.21 0 01-3.416 2.422z" data-original="#000000"/><path d="M20.05 148.858l209.803 139.874c7.942 5.295 17.044 7.942 26.146 7.942 9.103 0 18.206-2.648 26.148-7.942L491.95 148.858c12.555-8.365 20.05-22.365 20.05-37.475 0-25.981-21.137-47.117-47.117-47.117H47.117C21.137 64.267 0 85.403 0 111.408a44.912 44.912 0 0020.05 37.45z" data-original="#000000"/></svg><svg viewBox="0 0 376.15 376.15" id="moon" xmlns="http://www.w3.org/2000/svg"><path d="M95.35 216.475c-3.2-14-4-27.6-2-41.2.4-2-1.2-4-3.6-4.4-2-.4-4 1.2-4.4 3.6-2 14.4-1.2 29.2 2 43.6.4 2 2 3.2 4 3.2h.8c2-.4 3.6-2.8 3.2-4.8zm7.6-84.4c-2-.8-4.4 0-5.2 2-2 3.6-3.6 7.6-4.8 11.2-.8 2 .4 4.4 2.4 5.2.4 0 .8.4 1.6.4 1.6 0 3.2-.8 3.6-2.4 1.2-3.6 2.8-7.2 4.8-10.8.4-2-.4-4.4-2.4-5.6z" data-original="#000000"/><path d="M336.55 280.875c0-.4-2-1.2-3.6-.4-6.4 2.4-12.8 4.4-19.6 5.6-38.4 8.8-78 1.6-111.6-19.2-33.6-20.8-56.4-54-65.2-92.8-10-44.4.8-90 29.2-125.2 1.2-1.6 1.2-3.2 0-4.8-1.2-1.6-2.8-2-4.8-1.6-72.4 27.2-114.4 104.4-97.6 180 16.4 72.4 80.8 121.6 152 121.6 11.2 0 22.8-1.2 34-4 34.8-8 64.8-26.4 87.2-54.4 1.2-1.6 1.2-3.2 0-4.8zm-88 52.4c-79.6 18-158.8-32.4-176.8-112-15.2-67.2 18.4-135.6 79.2-165.2-23.2 35.2-31.2 78.4-22 120 9.2 40.8 33.6 75.2 68.8 97.6 35.2 22.4 76.8 29.6 117.6 20.4 2-.4 4.4-1.2 6.4-1.6-20 20.4-45.2 34.4-73.2 40.8zm68.8-283.6c-.4-1.6-1.6-2.4-3.2-2.8l-20.4-2.8-9.2-18.4c-1.2-2.8-6-2.8-7.2 0l-8.8 18.4-20.4 2.8c-1.6.4-2.8 1.2-3.2 2.8-.4 1.6 0 3.2 1.2 4l14.4 14.4-3.6 20c-.4 1.6.4 3.2 1.6 4 .8.4 1.6.8 2.4.8s1.2 0 2-.4l18-9.6 18 9.6c1.2.8 2.8.4 4.4-.4 1.2-.8 2-2.4 1.6-4l-3.6-20 14.8-14.4c1.2-1.2 1.6-2.8 1.2-4zm-22.4 14c-.8.8-1.2 2.4-1.2 3.6l2.4 14.4-12.8-6.8c-.4-.4-1.2-.4-2-.4s-1.2 0-2 .4l-12.8 6.8 2.4-14.4c.4-1.2-.4-2.8-1.2-3.6l-10.4-10 14.4-2c1.2 0 2.4-1.2 3.2-2l6.4-12.8 6.4 12.8c.4 1.2 1.6 2 3.2 2l14.4 2-10.4 10z" data-original="#000000"/><path d="M337.35 192.475c-.4-1.6-1.6-2.4-3.2-2.8l-20.4-2.8-9.6-18.4c-1.2-2.8-6-2.8-7.2 0l-8.8 18.4-20.4 2.8c-1.6.4-2.8 1.2-3.2 2.8-.4 1.6 0 3.2 1.2 4l14.8 14.4-3.6 20c-.4 1.6.4 3.2 1.6 4s2.8 1.2 4.4.4l18-9.6 18 9.6c.4.4 1.2.4 2 .4s1.6-.4 2.4-.8c1.2-.8 2-2.4 1.6-4l-3.6-20 14.8-14.4c1.2-1.2 1.6-2.8 1.2-4zm-23.2 14c-.8.8-1.2 2.4-1.2 3.6l2.4 14.4-12.8-6.8c-.4-.4-1.2-.4-2-.4s-1.2 0-2 .4l-12.8 6.8 2.4-14.4c.4-1.2-.4-2.8-1.2-3.6l-10.4-10 14.4-2c1.2 0 2.4-1.2 3.2-2l6.4-12.8 6.4 12.8c.4 1.2 1.6 2 3.2 2l14.4 2-10.4 10zm-241.6-168.4c-.4-1.6-1.6-2.4-3.2-2.8l-20.4-2.8-8.8-18.4c-1.2-2.8-6-2.8-7.2 0l-9.2 18.4-20.4 2.8c-1.6.4-2.8 1.2-3.2 2.8-.4 1.6 0 3.2 1.2 4l14.8 14.4-3.6 20c-.4 1.6.4 3.2 1.6 4 1.2.8 2.8 1.2 4.4.4l18-9.6 18 9.6c.4.4 1.2.4 2 .4s1.6-.4 2.4-.8c1.2-.8 1.6-2.4 1.2-4l-3.6-20 14.8-14.4c1.2-1.2 1.6-2.8 1.2-4zm-22.8 14c-.8.8-1.2 2.4-1.2 3.6l2.4 14.4-12.8-6.8c-.4-.4-1.2-.4-2-.4s-1.2 0-2 .4l-12.8 6.8 2.4-14.4c.4-1.2-.4-2.8-1.2-3.6l-10.4-10 14.4-2c1.2 0 2.4-1.2 3.2-2l6.4-12.8 6.4 12.8c.4 1.2 1.6 2 3.2 2l14.4 2-10.4 10zm312.8-11.6c-3.2 0-6 2.8-6 6s2.8 6 6 6 6-2.8 6-6-2.8-6-6-6zm-344.4 98c-3.2 0-6 2.8-6 6s2.8 6 6 6 6-2.8 6-6c.4-3.2-2.4-6-6-6zm352 87.2c-3.2 0-6 2.8-6 6s2.8 6 6 6 6-2.8 6-6-2.8-6-6-6zm-68 136.8c-3.2 0-6 2.8-6 6s2.8 6 6 6 6-2.8 6-6-2.8-6-6-6zm-220-360.8c-3.2 0-6 2.8-6 6s2.8 6 6 6 6-2.8 6-6-2.8-6-6-6zm-5.6 338.8c-3.2 0-6 2.8-6 6s2.8 6 6 6 6-2.8 6-6-2.8-6-6-6zm-40-18c-3.2 0-6 2.8-6 6s2.8 6 6 6 6-2.8 6-6-2.8-6-6-6zm281.6-216c-3.2 0-6 2.8-6 6s2.8 6 6 6 6-2.8 6-6-2.8-6-6-6zm-126.4 57.6c-3.6 0-6 2.8-6 6s2.8 6.4 6 6.4 6-2.8 6-6-2.4-6.4-6-6.4z" data-original="#000000"/></svg><svg viewBox="0 0 263 158" id="moto" xmlns="http://www.w3.org/2000/svg"><path d="M240.269 77.346a45.393 45.393 0 00-13.504-7.172 144.864 144.864 0 0112.45-2.346c4.859-.693 7.933-5.598 6.416-10.282-5.2-16.018-6.622-23.116-14.385-32.021L212.988 4.579a7.73 7.73 0 00-9.893-1.512l-5.701 3.501c-3.255 1.998-4.577 6.14-3.075 9.635 1.485 3.457 3.56 9.828 1.995 15.812l-1.017-3.118a9.982 9.982 0 00-3.935-5.188l-12.07-8.053c-4.561-3.043-10.749-1.808-13.794 2.755a9.94 9.94 0 002.754 13.794l7.355 4.906a14.997 14.997 0 00-.717-.072c-16.154-10.613-26.224-12.42-32.513-13.969-15.357-3.782-29.879-7.354-48.5 16.966-5.493-.872-21.05-3.855-31.424-10.954-4.898-3.352-11.167-3.246-15.79-.07l-7.06-6.566c-5.797-5.391-11.456-4.57-19.422-4.57-6.064 0-9.382 7.062-5.525 11.73l15.561 18.839c3.686 4.462 9.524 6.816 15.41 6.043l22.081 18.216a20.751 20.751 0 0014.571 4.72l12.083-.763 3.12 4.604-14.488 6.916A41.315 41.315 0 0050.3 72.165c-22.828-.002-41.402 18.571-41.402 41.4 0 22.828 18.574 41.4 41.402 41.4 20.951 0 38.381-15.568 41.039-35.995l.145-.008 14.436 20.735a5.955 5.955 0 004.884 2.552h24.147a3.579 3.579 0 003.576-3.576c0-1.976-1.6-3.575-3.576-3.575h-23.519l-13.709-19.691h19.098c9.388 11.261 27.63 6.036 29.846-8.265 8.133 4.607 17.955 7.477 27.418 7.179-1.638 6.634-2.986 13.996-3.837 20.777h-18.609a3.576 3.576 0 000 7.151h19.672a5.951 5.951 0 005.91-5.252c.013-.11.029-.224.043-.334a41.645 41.645 0 009.566 10.079c27.14 20.293 66.171.883 66.171-33.177 0-10.74-4.129-20.92-11.459-28.587a5.67 5.67 0 00-1.272-7.632zm-116.148 2.76l4.417-9.27a20.217 20.217 0 019.019-9.268c2.92-1.488 33.407-17.122 36.061-17.379 1.998-.192 4.056.842 5.7 1.995-4.531 1.976-31.339 14.246-37.161 18.951a31.946 31.946 0 00-10.256 14.837 24.073 24.073 0 00-7.78.134zM94.098 63.52l12.094-2.432 12.483 13.82-4.641 9.744a25.184 25.184 0 00-3.414 3.255L94.098 63.52zm93.124-12.947c14.839-6.217 19.704-18.512 15.172-33.114l9.65 14.248a14.19 14.19 0 0010.402 6.189l9.126.894c1.596 3.226 2.121 5.146 3.853 10.481-7.907.738-13.587 4.714-13.587 9.82 0 1.65.566 3.172 1.603 4.51-10.87 2.695-23.129 7.199-31.46 14.61-6.07-7.541-16.099-14.1-27.818-17.04 7.307-3.603 15.696-7.53 23.059-10.598zm20.374-41.296c20.896 23.97 17.979 20.6 19 21.84-3.464-.339-6.448-.194-8.632-3.42L205.83 9.78l1.008-.618a.592.592 0 01.758.115zm30.61 51.471c-1.356.193-2.833.423-4.396.692-3.125-.678-4.543-1.874-4.799-2.35.416-.817 3.449-2.695 8.696-2.789l1.12 3.451a.757.757 0 01-.31.881.76.76 0 01-.311.115zm-35.34 32.444c-1.2-3.675-.427-1.305-3.77-11.553a45.723 45.723 0 014.861-3.127l11.15 34.186a2.799 2.799 0 01-3.926 3.36 2.782 2.782 0 01-1.389-1.627l-6.926-21.239zm11.675-5.292l-4.081-12.514.738-.32a38.124 38.124 0 0122.421 6.312L214.541 87.9zm-30.673-52.953a3.56 3.56 0 00-1.415-1.864l-10.232-6.828a2.795 2.795 0 113.103-4.65l12.068 8.052c.521.349.911.863 1.106 1.459l2.846 8.723c-1.423 1.236-3.01 2.257-4.703 3.122-.074-.072-.149-.14-.229-.215l-2.544-7.8zm-43.202-4.934c6.167 1.52 12.114 2.331 24.867 9.68-8.188 3.81-23.167 11.398-31.224 15.505a27.397 27.397 0 00-12.228 12.56l-.078.165-21.905-24.25c15.452-19.847 26.069-17.23 40.568-13.66zm-82.253 4.97c12.325 8.435 30.204 11.527 35.275 12.263l6.926 7.668-13.197 2.656a10.852 10.852 0 01-9.068-2.265L52.49 34.048c1.927-.592 4.113-.307 5.924.935zM35.732 43.89L20.16 25.06c0-.01.01-.031-.002-.033h.024c7.915 0 11.048-.603 14.55 2.654 12.305 11.443 6.739 6.566 19.142 16.762l-8.247 2.788a9.97 9.97 0 01-9.896-3.342zM72.26 67.186L53.852 52.002c2.464-.832.973-.33 6.53-2.207l13.427 11.037a18.044 18.044 0 0012.588 4.072l3.31 4.885c-7.742.49-12.398 1.563-17.447-2.603zM45.46 106.1a7.883 7.883 0 00-4.467 7.079c0 4.462 3.741 8.052 8.226 7.835l19.13-.928c-2.686 7.453-9.82 12.67-18.05 12.67-10.581 0-19.191-8.61-19.191-19.191 0-15.778 18.165-24.868 30.765-15.301L45.46 106.1zm38.607 13.223c-2.741 16.262-16.876 28.49-33.768 28.49-18.886 0-34.25-15.362-34.25-34.248 0-18.887 15.364-34.249 34.25-34.249A34.172 34.172 0 0176.36 91.35l-7.462 3.563c-16.426-16.415-44.943-4.848-44.943 18.653 0 14.526 11.82 26.343 26.345 26.343 12.3 0 22.82-8.489 25.615-20.188 3.298-.162 1.53-.077 8.153-.397zm11.358-11.07a5.957 5.957 0 00-5.478 3.624l-41.074 1.995a.69.69 0 01-.727-.693c0-.265.155-.51.393-.624 1.235-.588 51.358-24.52 52.999-25.302l5.023 7.412c-1.714 4.375-2.008 9.225-1.042 13.588H95.425zm17.508 0c-3.682-11.157 5.451-22.741 17.495-21.253a35.213 35.213 0 00-.149 3.064 5.937 5.937 0 003.544 5.44c4.129 1.811 6.548 6.298 5.74 10.788-1.402 7.758-11.468 11.385-17.614 4.097-1.143-1.355-2.784-2.136-4.55-2.136h-4.466zm32.586-10.359c-1.621-3.819-4.65-6.923-8.075-8.59.158-5.172 1.931-10.21 5.036-14.301 3.646-4.816 7.603-6.664 10.576-8.208 12.695.295 26.836 7.103 34.017 16.737-5.05 6.682-8.565 15.49-10.993 23.503-10.435 1.043-22.235-2.984-30.561-9.14zm66.077 49.919c-14.79 0-27.717-9.297-32.436-23.226 2.285-11.917 6.658-28.056 14.198-37.481l1.893 5.803c-19.46 15.356-8.597 46.998 16.345 46.998 10.27 0 19.671-6.036 23.954-15.377.195-.427.305-.889.323-1.358a3.578 3.578 0 00-6.825-1.624c-3.121 6.808-9.97 11.208-17.452 11.208-10.581 0-19.189-8.611-19.189-19.192 0-5.004 1.914-9.69 5.272-13.211l5.313 16.295a9.938 9.938 0 0012.541 6.373 9.942 9.942 0 006.373-12.541L216.9 95.133a19.202 19.202 0 0112.903 12.352 3.566 3.566 0 003.143 2.465 3.573 3.573 0 003.827-3.341 3.572 3.572 0 00-.188-1.391A26.36 26.36 0 00226.03 91.53l8.894-3.04c22.587 21.006 7.822 59.324-23.328 59.324z"/></svg><svg viewBox="0 0 263 158" id="moto-auto" xmlns="http://www.w3.org/2000/svg"><path d="M236.023 107.035l-2.568-25.444h-46.898l-2.555 25.447a7.89 7.89 0 003.496 7.375l.664.44a39.416 39.416 0 0043.702 0l.667-.443a7.878 7.878 0 003.492-7.375zm-6.416 2.985l-.666.442a34.167 34.167 0 01-37.882 0l-.664-.44a2.627 2.627 0 01-1.161-2.455l2.078-20.708h37.389l2.078 20.711a2.632 2.632 0 01-1.172 2.45zm2.133-82.549l-5.107-2.837a34.052 34.052 0 00-33.256 0l-5.113 2.837a7.919 7.919 0 00-3.951 8.208l2.384 14.339h46.605l2.389-14.337a7.912 7.912 0 00-3.951-8.21zm-1.245 7.344l-1.655 9.935h-37.681l-1.657-9.938a2.633 2.633 0 011.32-2.737l5.107-2.837a28.82 28.82 0 0128.141 0l5.108 2.837a2.652 2.652 0 011.317 2.74zm-46.403 90.4l4.383-2.922 10.536 15.802-4.383 2.922-10.536-15.802zm36.904 12.94l10.541-15.803 4.383 2.924-10.541 15.802-4.383-2.923z"/><path d="M258.889 89.98a2.632 2.632 0 00-2.458-.263l-10.917 4.367-1.273-15.092 3.772-45.041a28.71 28.71 0 00-15.914-28.236l-2.081-1.035a45.154 45.154 0 00-40.036 0l-2.078 1.035a28.708 28.708 0 00-15.925 28.236l3.779 45.04-1.264 15.104-10.918-4.367a2.634 2.634 0 00-3.621 2.433v6.97a7.87 7.87 0 004.967 7.338l8.252 3.3-1.103 13.112a28.817 28.817 0 0017.463 28.932l9.05 3.864a29.187 29.187 0 0022.821 0l9.05-3.864a28.815 28.815 0 0017.474-28.932l-1.098-13.112 8.252-3.3a7.864 7.864 0 004.962-7.338v-6.97a2.63 2.63 0 00-1.156-2.18zm-85.765 14.095l-6.245-2.5a2.614 2.614 0 01-1.656-2.444v-3.08l7.901 3.162v4.862zM242.766 33.5l-3.792 45.492 3.708 44.34a23.559 23.559 0 01-14.292 23.637l-9.05 3.861a23.867 23.867 0 01-18.68 0l-9.05-3.861a23.557 23.557 0 01-14.271-23.65l3.687-44.327-3.795-45.492a23.465 23.465 0 0113.014-23.068l2.081-1.035a39.852 39.852 0 0135.345 0l2.078 1.035A23.466 23.466 0 01242.766 33.5zm12.011 65.63a2.614 2.614 0 01-1.656 2.445l-6.246 2.5v-4.862l7.902-3.161v3.079zm-105.549 24.443c2.249-14.819 2.361-31.343.315-46.535a149.013 149.013 0 00-1.106-6.939c-2.12-11.56-5.473-21.632-10.011-30a2.693 2.693 0 00-.121-.203l-.044-.075a75.049 75.049 0 00-21.917-23.564c-8.341-5.794-17.903-10.024-28.42-12.573-15.8-3.825-34.596-3.548-50.275.74-1.58.433-2.523 2.111-2.106 3.75.417 1.638 2.036 2.615 3.615 2.183a88.941 88.941 0 0110.96-2.238c19.8 4.091 37.498 12.227 51.201 23.55 10.459 8.641 17.845 18.769 20.891 28.451L81.89 47.265c-8.7-2.774-16.294-.617-20.836 5.916-5.628 8.093-4.978 20.841 1.545 30.312 13.83 20.083 29.429 30.003 78.455 49.513-.498 1.765-1.02 3.412-1.511 4.643-1.173 2.274-10.105 12.064-16.362 13.882-1.217.353-2.133.34-2.722-.04a2.775 2.775 0 00-.242-.141l-12.308-6.381-.002-.001h-.001l-26.58-13.783-.007-.003c-7.188-3.727-24.324-16.166-39.913-32.153C28.6 85.899 13.357 66.79 13.158 50.112c1.283-6.053 3.25-11.183 5.945-15.515.326-.523.49-1.136.471-1.758a3.14 3.14 0 00-.576-1.726l-6.674-9.382c2.52-1.434 5.12-2.807 8.11-4.291 1.475-.732 2.098-2.564 1.392-4.093-.706-1.527-2.472-2.174-3.946-1.44-4.283 2.124-7.8 4.036-11.403 6.198-.36.217-.673.509-.916.859-.244.35-.414.748-.499 1.17a3.171 3.171 0 00.515 2.447l7.479 10.513C10.482 37.7 8.585 42.99 7.32 49.066c-.014.06-.027.12-.037.182-.68 3.307-1.176 6.842-1.484 10.635-.969 11.886.013 24.543.801 34.713.012.142.031.28.06.415.348 2.786 1.996 5.263 4.389 6.588-.5 2.273-.393 4.655.338 6.931 1.052 3.272 3.261 5.919 6.22 7.454l74.947 38.861a12 12 0 005.54 1.36c3.604 0 7.102-1.636 9.487-4.546l9.877 5.122c1.231.763 2.62 1.143 4.151 1.143 1.025 0 2.114-.17 3.261-.512 8.302-2.473 18.502-13.895 20.02-17.131a2.4 2.4 0 00.068-.157c.861-2.125 1.76-5.196 2.516-8.178l.007-.029c.869-3.431 1.545-6.738 1.746-8.344zM37.244 103.391a230.985 230.985 0 0011.282 10.789L16.024 97.326h-.002v-.001l-2.13-1.104c-.79-.41-1.303-1.2-1.373-2.116a3.252 3.252 0 00-.044-.335c-.608-7.824-1.312-17.114-1.126-26.228 5.718 13.263 16.434 26.147 25.895 35.849zm57.958 45.966l-74.947-38.861c-1.546-.801-2.7-2.188-3.252-3.905a6.996 6.996 0 01-.336-2.072l85.307 44.233c-1.908 1.452-4.514 1.775-6.772.605zm9.804-122.487C95.035 18.63 83.091 12 69.828 7.275c5.768.307 11.438 1.1 16.75 2.385 14.316 3.47 34.029 12.076 46.639 33.368a2.952 2.952 0 00.143.248c3.528 6.553 6.291 14.27 8.261 23.031l-12.729-4.057c-2.529-12.194-10.941-24.685-23.886-35.38zm-37.59 53.058c-5.011-7.275-5.682-17.233-1.561-23.16 3.008-4.326 8.084-5.618 14.296-3.639l9.251 2.95-5.868 41.35c-6.564-5.21-11.474-10.756-16.118-17.5zm21.537 21.468l6.17-43.492 47.841 15.251c.265 1.573.504 3.15.717 4.73 1.97 14.625 1.862 30.527-.304 44.776-.006.031-.009.062-.014.093-.108.894-.404 2.454-.81 4.277-25.907-10.326-42.113-17.845-53.6-25.635z"/><path d="M26.639 14.346a2.85 2.85 0 001.032-.194l.067-.026c1.528-.601 2.297-2.372 1.717-3.956-.58-1.584-2.288-2.382-3.816-1.78a.554.554 0 00-.04.015c-1.529.594-2.305 2.359-1.733 3.944.443 1.236 1.571 1.997 2.773 1.997zm-2.411 7.805c-.97-1.364-2.823-1.654-4.138-.649-1.316 1.005-1.596 2.926-.626 4.29l4.329 6.088a2.99 2.99 0 001.048.918 2.868 2.868 0 003.09-.27c1.315-1.006 1.596-2.927.626-4.29l-4.33-6.087zm5.874-.417l4.33 6.088c.274.387.633.702 1.047.918a2.868 2.868 0 003.09-.27c1.315-1.006 1.596-2.926.626-4.29l-4.33-6.087c-.97-1.363-2.822-1.653-4.137-.649-1.316 1.006-1.596 2.927-.626 4.29zm72.124 115.962a2.857 2.857 0 002.259.163 2.92 2.92 0 001.002-.595c.293-.264.533-.586.706-.947.729-1.517.133-3.358-1.33-4.114l-.063-.031c-1.463-.755-3.239-.138-3.968 1.38-.727 1.515-.131 3.358 1.332 4.112l.062.032zm18.458 9.571c.41.214.863.325 1.322.326 1.084 0 2.129-.622 2.648-1.697.731-1.515.138-3.358-1.324-4.116l-10.86-5.63c-1.46-.759-3.238-.144-3.969 1.372-.731 1.515-.138 3.358 1.323 4.116l10.86 5.629z"/></svg><svg viewBox="0 0 263 158" id="moto-auto-ind" xmlns="http://www.w3.org/2000/svg"><path d="M107.618 31.384l-4.579 4.58a2.947 2.947 0 00.067 4.097 2.946 2.946 0 004.097.065l4.578-4.58a2.942 2.942 0 00-.066-4.097 2.946 2.946 0 00-4.097-.065zm51.576 3.233l-4.198-.968a2.957 2.957 0 00-3.53 2.205 2.942 2.942 0 002.204 3.532s4.645 1.044 4.864 1.044a2.943 2.943 0 002.915-2.612 2.945 2.945 0 00-2.255-3.2zM56.942 15.697h10.484c2.881 0 5.594-1.124 7.63-3.16l5.214-5.214a4.937 4.937 0 013.468-1.438h95.012c1.645 0 5.525 4.352 5.525 4.352a10.771 10.771 0 008.979 4.805h12.803a2.944 2.944 0 000-5.886h-12.803c-2.951.033-5.526-4.352-5.526-4.352A10.782 10.782 0 00178.75 0H83.738a10.722 10.722 0 00-7.63 3.162s-7.37 6.65-8.682 6.65H56.942a2.942 2.942 0 100 5.884z"/><path d="M206.057 76.088a2.942 2.942 0 100-5.886h-18.918a56.245 56.245 0 00-5.981-8.126c2.122-1.108 4.011-2.654 5.413-4.646a14.917 14.917 0 002.438-11.666l-4.276-21.384a15.192 15.192 0 00-14.853-12.177H92.22c-7.147 0-13.394 5.11-14.854 12.18L73.13 45.755a15.048 15.048 0 003.11 12.565 15.1 15.1 0 0011.741 5.563h7.971a56.188 56.188 0 00-4.522 6.525 21.452 21.452 0 00-9.36 3.348 27.963 27.963 0 01-15.584 4.724h-9.544a2.945 2.945 0 000 5.888h9.546a33.832 33.832 0 0018.827-5.696 15.88 15.88 0 012.507-1.304 55.593 55.593 0 00-4.392 21.715c0 30.834 25.085 55.919 55.919 55.919 30.833 0 55.918-25.085 55.918-55.919a55.505 55.505 0 00-5.003-22.994h15.793zm-125.26-21.49a9.198 9.198 0 01-1.897-7.683l4.235-21.363c.894-4.325 4.716-7.463 9.085-7.463h77.658a9.287 9.287 0 019.083 7.444l4.28 21.394a9.1 9.1 0 01-1.484 7.114 9.246 9.246 0 01-5.065 3.538 56.158 56.158 0 00-9.131-6.696 16.626 16.626 0 006.124-12.861c0-9.196-7.481-16.678-16.678-16.678-9.195 0-16.678 7.482-16.678 16.678 0 1.815.302 3.567.85 5.233-.612-.02-1.212-.093-1.83-.093-7.131 0-13.927 1.393-20.205 3.836a16.535 16.535 0 002.658-8.959c0-9.195-7.482-16.678-16.678-16.678-9.197 0-16.678 7.483-16.678 16.678 0 9.196 7.48 16.678 16.678 16.678.126 0-2.313 2.114-3.576 3.279H87.983a9.228 9.228 0 01-7.186-3.399zm67.195-10.694a10.634 10.634 0 01-1.777-5.88 10.804 10.804 0 0110.792-10.792 10.802 10.802 0 0110.792 10.792 10.723 10.723 0 01-6.274 9.75 55.557 55.557 0 00-13.533-3.87zm-42.87 4.931c-5.952 0-10.792-4.84-10.792-10.792s4.84-10.792 10.792-10.792c5.95 0 10.792 4.84 10.792 10.792s-4.842 10.792-10.792 10.792zm34.227 100.28c-27.589 0-50.033-22.444-50.033-50.033 0-13.795 5.615-26.303 14.675-35.363.879-.261 9.747-13.344 35.358-14.669 27.551-1.424 50.032 22.444 50.032 50.032 0 27.589-22.446 50.033-50.032 50.033z"/><path d="M124.96 28.123h12.207a2.944 2.944 0 000-5.886H124.96a2.944 2.944 0 000 5.886zm9.157 3.27h-6.105a2.942 2.942 0 100 5.887h6.105a2.942 2.942 0 100-5.887zm34.478 40.163c-7.339-7.794-17.721-12.694-29.247-12.694-10.488 0-20.02 4.068-27.189 10.67-.077.062-.296.26-.337.306-7.795 7.339-12.697 17.72-12.697 29.244 0 22.179 18.046 40.221 40.221 40.221 22.181 0 40.221-18.044 40.221-40.22 0-10.492-4.069-20.027-10.672-27.195a5.532 5.532 0 00-.3-.332zm-6.132 2.213l-12.534 12.534c-2.887-2.395-6.545-3.895-10.583-3.895-3.024 0-5.82.87-8.269 2.283l-12.718-12.718c5.811-4.509 13.082-7.223 20.989-7.223 8.907-.002 17.006 3.435 23.115 9.019zm-23.115 36.105c-5.95 0-10.792-4.84-10.792-10.792s4.842-10.791 10.792-10.791c5.952 0 10.792 4.84 10.792 10.791 0 5.952-4.842 10.792-10.792 10.792zm-34.336-10.792c0-8.908 3.439-17.007 9.021-23.114l12.535 12.534c-2.396 2.889-3.896 6.545-3.896 10.582 0 8.188 5.944 14.981 13.735 16.38v17.806c-17.56-1.502-31.395-16.248-31.395-34.188zm37.279 34.188v-17.806c7.793-1.399 13.735-8.194 13.735-16.38 0-3.024-.87-5.822-2.282-8.27l12.718-12.719c4.508 5.81 7.221 13.082 7.221 20.99 0 17.937-13.834 32.683-31.392 34.185z"/></svg><svg viewBox="0 0 24 24" id="next" xmlns="http://www.w3.org/2000/svg"><g data-name="19"><path d="M12 19a1 1 0 01-.71-1.71l5.3-5.29-5.3-5.29A1 1 0 0112.7 5.3l6 6a1 1 0 010 1.41l-6 6a1 1 0 01-.7.29z" data-original="#000000"/><path d="M6 19a1 1 0 01-.71-1.71l5.3-5.29-5.3-5.29a1 1 0 011.42-1.42l6 6a1 1 0 010 1.41l-6 6A1 1 0 016 19z" data-original="#000000"/></g></svg><svg fill-rule="evenodd" viewBox="0 0 512 512" id="online" xmlns="http://www.w3.org/2000/svg"><path d="M290.98 66.49H145.11c-2.76 0-5-2.24-5-5V30.65c0-2.76 2.24-5 5-5h145.87c2.77 0 5 2.24 5 5v30.84c0 2.76-2.23 5-5 5zm-140.87-10h135.87V35.65H150.11zm153.44 194.12H196.7c-2.76 0-5-2.24-5-5s2.24-5 5-5h106.85c2.76 0 5 2.24 5 5s-2.24 5-5 5zm0 37.36H196.7c-2.76 0-5-2.24-5-5s2.24-5 5-5h106.85c2.76 0 5 2.24 5 5s-2.24 5-5 5zm0-112.08H196.7c-2.76 0-5-2.24-5-5s2.24-5 5-5h106.85c2.76 0 5 2.24 5 5s-2.24 5-5 5zm0 37.36H196.7c-2.76 0-5-2.24-5-5s2.24-5 5-5h106.85c2.76 0 5 2.24 5 5s-2.24 5-5 5zm0-112.08H196.7c-2.76 0-5-2.23-5-5 0-2.76 2.24-5 5-5h106.85c2.76 0 5 2.24 5 5 0 2.77-2.24 5-5 5zm0 37.36H196.7c-2.76 0-5-2.24-5-5s2.24-5 5-5h106.85c2.76 0 5 2.24 5 5s-2.24 5-5 5zm-134-.18h-37.01c-2.76 0-5-2.23-5-4.99V96.35c0-2.76 2.24-5 5-5h37.01c2.76 0 5 2.24 5 5v37c0 2.77-2.24 5-5 5zm-32.01-9.99h27.01v-27.01h-27.01zm32.01 84.71h-37.01c-2.76 0-5-2.24-5-5v-37c0-2.76 2.24-5 5-5h37.01c2.76 0 5 2.24 5 5v37c0 2.76-2.24 5-5 5zm-32.01-10h27.01v-27h-27.01zm32.01 84.72h-37.01c-2.76 0-5-2.24-5-5v-37c0-2.76 2.24-5 5-5h37.01c2.76 0 5 2.24 5 5v37c0 2.76-2.24 5-5 5zm-32.01-10h27.01v-27h-27.01z" data-original="#000000"/><path d="M312.93 313.62H123.17c-14.17 0-25.7-11.53-25.7-25.7V25.71c0-14.17 11.53-25.7 25.7-25.7h189.76c14.17 0 25.7 11.53 25.7 25.7v262.21c0 14.17-11.53 25.7-25.7 25.7zM123.17 10.01c-8.66 0-15.7 7.04-15.7 15.7v262.21c0 8.65 7.04 15.7 15.7 15.7h189.76c8.65 0 15.7-7.05 15.7-15.7V25.71c0-8.66-7.05-15.7-15.7-15.7H123.17z" data-original="#000000"/><path d="M478.74 422.96H33.26c-11.25 0-20.4-9.15-20.4-20.4V97.01c0-11.25 9.15-20.4 20.4-20.4h69.21c2.76 0 5 2.24 5 5s-2.24 5-5 5H33.26c-5.74 0-10.41 4.67-10.41 10.4v305.55c0 5.73 4.67 10.4 10.41 10.4h445.48c5.74 0 10.4-4.67 10.4-10.4V97.01c0-5.73-4.66-10.4-10.4-10.4H333.63c-2.77 0-5-2.24-5-5s2.23-5 5-5h145.11c11.25 0 20.4 9.15 20.4 20.4v305.55c0 11.25-9.15 20.4-20.4 20.4z" data-original="#000000"/><path d="M494.15 373.82H17.86c-2.77 0-5-2.24-5-5s2.23-5 5-5h476.29c2.76 0 4.99 2.24 4.99 5s-2.23 5-4.99 5zM211.2 484.74c-.78 0-1.57-.19-2.31-.57a5.001 5.001 0 01-2.12-6.75c15.45-29.55 15.98-59.22 15.99-59.52a4.996 4.996 0 015-4.94h.06c2.76.03 4.97 2.3 4.94 5.06-.02 1.31-.58 32.39-17.13 64.04a5 5 0 01-4.43 2.68zm89.6 0c-1.8 0-3.54-.98-4.44-2.69-16.55-31.64-17.1-62.72-17.12-64.03a5.002 5.002 0 014.94-5.06h.06c2.74 0 4.97 2.2 5 4.94.01.29.59 30.08 15.98 59.52a4.998 4.998 0 01-4.42 7.32z" data-original="#000000"/><path d="M318.65 511.99h-125.3c-10.27 0-18.62-8.35-18.62-18.63 0-10.27 8.35-18.62 18.62-18.62h125.3c10.27 0 18.62 8.35 18.62 18.62 0 10.28-8.35 18.63-18.62 18.63zm-125.3-27.25c-4.75 0-8.63 3.87-8.63 8.62 0 4.76 3.88 8.63 8.63 8.63h125.3c4.75 0 8.62-3.87 8.62-8.63 0-4.75-3.87-8.62-8.62-8.62zM447 319.54c-1.27 0-2.56-.49-3.53-1.47l-44.38-44.38-9.82 29.78a5.01 5.01 0 01-4.74 3.43h-.01a5 5 0 01-4.74-3.42l-37.69-113.06c-.6-1.79-.14-3.77 1.2-5.12a5.018 5.018 0 015.12-1.2l113.06 37.69c2.05.68 3.43 2.59 3.42 4.75a5.01 5.01 0 01-3.43 4.74l-29.78 9.82 44.38 44.38c.94.94 1.47 2.21 1.47 3.53 0 1.33-.53 2.6-1.47 3.54l-25.52 25.52a4.99 4.99 0 01-3.54 1.47zm-50.12-60.13c1.31 0 2.59.52 3.54 1.47L447 307.47l18.45-18.45-46.58-46.59a4.995 4.995 0 011.97-8.28l23.16-7.64-89.26-29.76 29.75 89.27 7.64-23.17a5.02 5.02 0 014.75-3.44z" data-original="#000000"/></svg><svg viewBox="0 0 401.523 401" id="pen" xmlns="http://www.w3.org/2000/svg"><path d="M370.59 250.973c-5.524 0-10 4.476-10 10v88.789c-.02 16.562-13.438 29.984-30 30H50c-16.563-.016-29.98-13.438-30-30V89.172c.02-16.559 13.438-29.98 30-30h88.79c5.523 0 10-4.477 10-10 0-5.52-4.477-10-10-10H50c-27.602.031-49.969 22.398-50 50v260.594c.031 27.601 22.398 49.968 50 50h280.59c27.601-.032 49.969-22.399 50-50v-88.793c0-5.524-4.477-10-10-10zm0 0" data-original="#000000"/><path d="M376.629 13.441c-17.574-17.574-46.067-17.574-63.64 0L134.581 191.848a9.997 9.997 0 00-2.566 4.402l-23.461 84.7a9.997 9.997 0 0012.304 12.308l84.7-23.465a9.997 9.997 0 004.402-2.566l178.402-178.41c17.547-17.587 17.547-46.055 0-63.641zM156.37 198.348L302.383 52.332l47.09 47.09-146.016 146.016zm-9.406 18.875l37.62 37.625-52.038 14.418zM374.223 74.676L363.617 85.28l-47.094-47.094 10.61-10.605c9.762-9.762 25.59-9.762 35.351 0l11.739 11.734c9.746 9.774 9.746 25.59 0 35.36zm0 0" data-original="#000000"/></svg><svg viewBox="0 0 512 512" id="percentage" xmlns="http://www.w3.org/2000/svg"><path d="M329.904 300.244c-16.388 0-29.724 13.332-29.724 29.72 0 16.392 13.336 29.728 29.724 29.728 16.392 0 29.72-13.336 29.72-29.728-.004-16.388-13.332-29.72-29.72-29.72zM181.768 152.116c-16.392 0-29.728 13.336-29.728 29.728.004 16.384 13.34 29.716 29.728 29.716s29.716-13.332 29.716-29.716c0-16.392-13.328-29.728-29.716-29.728z" data-original="#000000"/><path d="M256.012 0c-141.164 0-256 114.836-256 256 0 141.156 114.836 256 256 256 141.148 0 255.976-114.844 255.976-256 0-141.164-114.828-256-255.976-256zm-74.244 120.092c34.04 0 61.744 27.696 61.744 61.752 0 34.04-27.704 61.744-61.744 61.744-34.052 0-61.752-27.704-61.752-61.744 0-34.056 27.704-61.752 61.752-61.752zm-18.772 251.556a15.956 15.956 0 01-11.32 4.696 15.972 15.972 0 01-11.324-4.696c-6.252-6.252-6.252-16.396 0-22.64l208.652-208.66c6.248-6.252 16.388-6.252 22.644 0 6.252 6.252 6.252 16.396 0 22.644L162.996 371.648zm166.908 20.064c-34.048 0-61.752-27.7-61.752-61.752 0-34.04 27.704-61.744 61.752-61.744 34.044 0 61.744 27.704 61.744 61.744-.004 34.052-27.704 61.752-61.744 61.752z" data-original="#000000"/></svg><svg viewBox="0 0 32 32" id="phone" xmlns="http://www.w3.org/2000/svg"><path d="M30.035 22.6c-.082-.065-6.035-4.356-7.669-4.048-.78.138-1.226.67-2.121 1.735-.144.172-.49.584-.759.877a12.517 12.517 0 01-1.651-.672 13.7 13.7 0 01-6.321-6.321 12.458 12.458 0 01-.672-1.651c.294-.27.706-.616.882-.764 1.06-.89 1.593-1.336 1.731-2.118.283-1.62-4.005-7.614-4.05-7.668A2.289 2.289 0 007.7 1C5.962 1 1 7.437 1 8.521c0 .063.091 6.467 7.988 14.5C17.013 30.909 23.416 31 23.479 31 24.564 31 31 26.038 31 24.3a2.283 2.283 0 00-.965-1.7z" data-original="#000000"/></svg><svg viewBox="0 0 24 24" id="quote" xmlns="http://www.w3.org/2000/svg"><path d="M17.5 3A5.5 5.5 0 0123 8.5c0 2.244-1.168 4.414-2.911 4.833-.673.162-1.208 1.025-1.093 2.01.154 1.318 1.346 2.65 3.707 3.7.526.234.306 1.025-.265.953C16.285 19.226 12.02 15.215 12 9.54 12 5.637 14.306 3 17.5 3zm-12 0A5.5 5.5 0 0111 8.5c0 2.244-1.168 4.414-2.911 4.833-.673.162-1.208 1.025-1.093 2.01.154 1.318 1.346 2.65 3.707 3.7.526.234.306 1.025-.265.953C4.285 19.226.02 15.215 0 9.54 0 5.637 2.306 3 5.5 3z" data-original="#fac14c"/></svg><svg viewBox="0 0 8.467 8.467" id="sun" xmlns="http://www.w3.org/2000/svg"><path d="M.207.127a.066.066 0 00-.015.001.066.066 0 00-.052.078 4.174 4.174 0 004.068 3.366h.002a.066.066 0 00.023.005.066.066 0 00.001 0 .066.066 0 00.021-.004A4.175 4.175 0 008.328.206a.066.066 0 00-.052-.078.066.066 0 00-.078.053 4.044 4.044 0 01-3.963 3.264A4.044 4.044 0 01.27.18.066.066 0 00.207.127zm4.026 3.766a.066.066 0 00-.066.066v4.314a.066.066 0 00.066.066.066.066 0 00.067-.066V3.96a.066.066 0 00-.067-.066zm2.231-.598a.066.066 0 00-.035.009.066.066 0 00-.024.09l1.147 1.987a.066.066 0 00.09.025.066.066 0 00.024-.09L6.52 3.327a.066.066 0 00-.055-.033zm-1.079.445a.066.066 0 00-.015.003.066.066 0 00-.047.08l.78 2.907a.066.066 0 00.08.047.066.066 0 00.047-.081L5.45 3.79a.066.066 0 00-.065-.05zm.935 3.491a.066.066 0 00-.015.003.066.066 0 00-.046.08l.181.678a.066.066 0 00.08.047.066.066 0 00.048-.082l-.182-.676a.066.066 0 00-.066-.05zm1.062-4.644a.066.066 0 00-.044.02.066.066 0 000 .093l.913.913a.066.066 0 00.093 0 .066.066 0 000-.094l-.912-.913a.066.066 0 00-.05-.019zm.713-.923a.066.066 0 00-.059.033.066.066 0 00.024.09l.259.15a.066.066 0 00.09-.025.066.066 0 00-.024-.09l-.259-.15a.066.066 0 00-.031-.008zM2.006 3.295a.066.066 0 00-.059.033L.8 5.315a.066.066 0 00.024.09.066.066 0 00.09-.024l1.148-1.987a.066.066 0 00-.024-.09.066.066 0 00-.032-.009zm1.069.445a.066.066 0 00-.06.05l-.778 2.906a.066.066 0 00.047.081.066.066 0 00.08-.047l.78-2.906a.066.066 0 00-.047-.081.066.066 0 00-.022-.002zM2.14 7.233a.066.066 0 00-.06.049l-.18.676a.066.066 0 00.046.082.066.066 0 00.08-.047l.182-.677a.066.066 0 00-.047-.081.066.066 0 00-.021-.002zM1.078 2.587a.066.066 0 00-.043.02l-.912.912a.066.066 0 000 .094.066.066 0 00.093 0l.912-.913a.066.066 0 000-.094.066.066 0 00-.05-.019zm-.702-.923a.066.066 0 00-.036.009l-.259.15a.066.066 0 00-.024.09.066.066 0 00.09.024l.26-.15a.066.066 0 00.024-.09.066.066 0 00-.055-.033z" data-original="#000000"/></svg><svg viewBox="0 0 24 24" id="time" xmlns="http://www.w3.org/2000/svg"><clipPath id="axa"><path d="M0 0h24v24H0z" data-original="#000000"/></clipPath><g clip-path="url(#axa)"><path d="M11.99 2C6.47 2 2 6.48 2 12s4.47 10 9.99 10C17.52 22 22 17.52 22 12S17.52 2 11.99 2zM12 20c-4.42 0-8-3.58-8-8s3.58-8 8-8 8 3.58 8 8-3.58 8-8 8zm-.22-13h-.06c-.4 0-.72.32-.72.72v4.72c0 .35.18.68.49.86l4.15 2.49c.34.2.78.1.98-.24a.71.71 0 00-.25-.99l-3.87-2.3V7.72c0-.4-.32-.72-.72-.72z" data-original="#000000"/></g></svg><svg viewBox="0 0 548.358 548.358" id="vk" xmlns="http://www.w3.org/2000/svg"><path d="M545.451 400.298c-.664-1.431-1.283-2.618-1.858-3.569-9.514-17.135-27.695-38.167-54.532-63.102l-.567-.571-.284-.28-.287-.287h-.288c-12.18-11.611-19.893-19.418-23.123-23.415-5.91-7.614-7.234-15.321-4.004-23.13 2.282-5.9 10.854-18.36 25.696-37.397 7.807-10.089 13.99-18.175 18.556-24.267 32.931-43.78 47.208-71.756 42.828-83.939l-1.701-2.847c-1.143-1.714-4.093-3.282-8.846-4.712-4.764-1.427-10.853-1.663-18.278-.712l-82.224.568c-1.332-.472-3.234-.428-5.712.144l-3.713.859-1.431.715-1.136.859c-.952.568-1.999 1.567-3.142 2.995-1.137 1.423-2.088 3.093-2.848 4.996-8.952 23.031-19.13 44.444-30.553 64.238-7.043 11.803-13.511 22.032-19.418 30.693-5.899 8.658-10.848 15.037-14.842 19.126-4 4.093-7.61 7.372-10.852 9.849-3.237 2.478-5.708 3.525-7.419 3.142-1.715-.383-3.33-.763-4.859-1.143-2.663-1.714-4.805-4.045-6.42-6.995-1.622-2.95-2.714-6.663-3.285-11.136-.568-4.476-.904-8.326-1-11.563-.089-3.233-.048-7.806.145-13.706.198-5.903.287-9.897.287-11.991 0-7.234.141-15.085.424-23.555.288-8.47.521-15.181.716-20.125.194-4.949.284-10.185.284-15.705s-.336-9.849-1-12.991a44.442 44.442 0 00-2.99-9.137c-1.335-2.95-3.289-5.232-5.853-6.852-2.569-1.618-5.763-2.902-9.564-3.856-10.089-2.283-22.936-3.518-38.547-3.71-35.401-.38-58.148 1.906-68.236 6.855-3.997 2.091-7.614 4.948-10.848 8.562-3.427 4.189-3.905 6.475-1.431 6.851 11.422 1.711 19.508 5.804 24.267 12.275l1.715 3.429c1.334 2.474 2.666 6.854 3.999 13.134 1.331 6.28 2.19 13.227 2.568 20.837.95 13.897.95 25.793 0 35.689-.953 9.9-1.853 17.607-2.712 23.127-.859 5.52-2.143 9.993-3.855 13.418-1.715 3.426-2.856 5.52-3.428 6.28-.571.76-1.047 1.239-1.425 1.427a21.387 21.387 0 01-7.71 1.431c-2.667 0-5.901-1.334-9.707-4-3.805-2.666-7.754-6.328-11.847-10.992-4.093-4.665-8.709-11.184-13.85-19.558-5.137-8.374-10.467-18.271-15.987-29.691l-4.567-8.282c-2.855-5.328-6.755-13.086-11.704-23.267-4.952-10.185-9.329-20.037-13.134-29.554-1.521-3.997-3.806-7.04-6.851-9.134l-1.429-.859c-.95-.76-2.475-1.567-4.567-2.427a30.301 30.301 0 00-6.567-1.854l-78.229.568c-7.994 0-13.418 1.811-16.274 5.428l-1.143 1.711c-.571.953-.859 2.475-.859 4.57 0 2.094.571 4.664 1.714 7.707 11.42 26.84 23.839 52.725 37.257 77.659 13.418 24.934 25.078 45.019 34.973 60.237 9.897 15.229 19.985 29.602 30.264 43.112 10.279 13.515 17.083 22.176 20.412 25.981 3.333 3.812 5.951 6.662 7.854 8.565l7.139 6.851c4.568 4.569 11.276 10.041 20.127 16.416 8.853 6.379 18.654 12.659 29.408 18.85 10.756 6.181 23.269 11.225 37.546 15.126 14.275 3.905 28.169 5.472 41.684 4.716h32.834c6.659-.575 11.704-2.669 15.133-6.283l1.136-1.431c.764-1.136 1.479-2.901 2.139-5.276.668-2.379 1-5 1-7.851-.195-8.183.428-15.558 1.852-22.124 1.423-6.564 3.045-11.513 4.859-14.846 1.813-3.33 3.859-6.14 6.136-8.418 2.282-2.283 3.908-3.666 4.862-4.142.948-.479 1.705-.804 2.276-.999 4.568-1.522 9.944-.048 16.136 4.429 6.187 4.473 11.99 9.996 17.418 16.56 5.425 6.57 11.943 13.941 19.555 22.124 7.617 8.186 14.277 14.271 19.985 18.274l5.708 3.426c3.812 2.286 8.761 4.38 14.853 6.283 6.081 1.902 11.409 2.378 15.984 1.427l73.087-1.14c7.229 0 12.854-1.197 16.844-3.572 3.998-2.379 6.373-5 7.139-7.851.764-2.854.805-6.092.145-9.712-.677-3.611-1.344-6.136-2.008-7.563z" data-original="#000000"/></svg><svg viewBox="0 0 32 32" id="wts" xmlns="http://www.w3.org/2000/svg"><path d="M16 1C7.729 1 1 7.729 1 16c0 2.91.834 5.716 2.418 8.152l-2.337 5.454a1 1 0 001.313 1.313l5.454-2.338A14.879 14.879 0 0016 31c8.271 0 15-6.729 15-15S24.271 1 16 1zm7.7 20.37s-1.248 1.599-2.15 1.973c-2.29.948-5.525 0-9.21-3.684-3.683-3.684-4.632-6.919-3.683-9.21.374-.902 1.974-2.148 1.974-2.148a1.165 1.165 0 011.496.093l1.81 1.81a1.003 1.003 0 010 1.413L12.8 12.752s-.46 1.38 2.303 4.144c2.762 2.763 4.144 2.303 4.144 2.303l1.135-1.136a1.003 1.003 0 011.414 0l1.81 1.81c.388.389.43 1.062.092 1.496z" data-original="#000000"/></svg><svg viewBox="0 0 242.667 242.667" id="ynd" xmlns="http://www.w3.org/2000/svg"><path d="M127.675 58.313h13.771v68.831h-10.713c-6.123 0-12.036-2.632-15.85-7.422-3.961-4.976-7.406-13.253-7.406-26.993 0-30.096 17.301-33.983 19.691-34.376.17-.029.336-.04.507-.04zM242.667 0v242.667H0V0h242.667zm-84.683 45.5h-28.493c-18.136 0-39.742 19.07-39.742 50.059s27.115 43.504 27.115 43.504l-32.181 58.104h20.262l25.626-56.614h11.323v56.614h16.09V45.5z" data-original="#000000"/></svg></svg>